<svg width="1350" height="852" viewBox="0 0 1350 852" fill="none" xmlns="http://www.w3.org/2000/svg">
<rect width="1350" height="123" fill="#61BBE5"/>
<path d="M0 61L248.906 84L818.906 61L1350 84V196H0V61Z" fill="#3EACE0"/>
<path d="M0 161L362.812 128L665.156 184L1030.78 101L1350 161V308H0V161Z" fill="#229BD3"/>
<path d="M0 223L337.5 244L1000.31 163L1350 223V399H0V223Z" fill="#1D81AF"/>
<path d="M0 308L400.781 255.5L956.719 308H1350V569H0V308Z" fill="#1A749E"/>
<path d="M0 381L410.156 300L679.219 402.5L1027.5 460.5L1199.53 402.5L1350 381V628H0V381Z" fill="#17678C"/>
<path d="M0 487L75.9375 537L179.531 579.5L675.469 487L1030.31 519.5L1180.78 597L1258.59 579.5L1312.97 502.5L1350 487V721H0V487Z" fill="#145A7B"/>
<path d="M0 671.97L188.438 700.493L536.25 629L939.844 679.008L1238.44 657.894L1350 671.97V852L1102.5 793.209L736.875 817.536L536.25 730.364L400.312 748.609L234.375 817.536L0 852V671.97Z" fill="#114D69"/>
</svg>
