<svg width="1350" height="943" viewBox="0 0 1350 943" fill="none" xmlns="http://www.w3.org/2000/svg">
<path d="M0 0H1350V875C829.084 650.606 416.5 1106.5 0 875V0Z" fill="#61BBE5"/>
<path d="M0 0H1350V706.433C663.5 907 466 533.567 0 777.5V0Z" fill="#3EACE0"/>
<path d="M0 0H1350V651C748 460.5 698.5 773 0 608.5V0Z" fill="#229BD3"/>
<path d="M0 0H1350V552.837C908 704.5 567 338 0 516.746V0Z" fill="#1D81AF"/>
<path d="M0 0H1350V533C832.5 251.385 388.5 710.136 0 429.711V0Z" fill="#1A749E"/>
<path d="M0 0H1350V475.826C971.5 760.985 508.5 76.4922 0 383.617V0Z" fill="#145A7B"/>
<path d="M0 0H1350V423C753 145.5 637.5 538 0 341.028V0Z" fill="#114D69"/>
</svg>
