<svg width="327" height="324" viewBox="0 0 327 324" fill="none" xmlns="http://www.w3.org/2000/svg">
<path d="M286.64 274.889C278.293 283.492 270.825 288.55 265.107 292.368C209.34 329.604 145.592 318.871 125.883 315.203C94.0842 309.285 67.2419 305.11 44.1796 284.274C-8.22487 236.928 -5.67608 138.162 34.3674 76.9812C39.1153 69.7269 79.0982 10.46 142.984 2.10867C144.547 1.90442 145.712 1.7881 146.734 1.68C156.616 0.633653 217.859 -4.88897 267.797 36.9487C274.945 42.9375 286.449 53.7398 297.116 70.2151C336.122 130.456 336.246 223.757 286.64 274.889Z" fill="url(#paint0_linear_3_1526)"/>
<path d="M305.04 23.1667H22.4615C10.2827 23.1667 0.622636 32.78 0.891257 44.5255L6.59737 294.096C6.84348 304.861 16.4515 313.501 28.0517 313.413L297.305 311.37C308.735 311.283 318.258 302.586 318.583 291.905L326.104 44.3421C326.458 32.6966 317.031 23.1667 305.04 23.1667Z" fill="#7D97F4"/>
<path d="M281.254 45.0296L246.557 45.0495C243.762 45.0511 241.187 46.6112 239.936 49.057C233.619 61.4156 227.325 73.728 221.055 85.9947C219.819 88.4117 217.264 89.9516 214.485 89.9564C180.855 90.0156 147.166 90.0748 113.416 90.1341C110.624 90.1391 108.063 88.6023 106.84 86.1836C100.625 73.8966 94.3826 61.5557 88.1129 49.1605C86.8722 46.7078 84.2851 45.1427 81.4678 45.1443L46.4033 45.1645C34.2832 45.1714 24.6325 54.6578 24.854 66.3127L28.7988 273.822C29.0047 284.655 38.6013 293.34 50.2276 293.258L275.57 291.66C287.052 291.579 296.586 282.819 296.873 272.06L302.352 65.9993C302.66 54.429 293.218 45.0226 281.254 45.0296Z" fill="#91B3FA"/>
<path d="M220.905 47.6376C219.905 46.0386 218.117 45.0658 216.177 45.0668C181.536 45.0868 146.832 45.1067 112.064 45.1266C110.112 45.1278 108.304 46.1018 107.285 47.7079C106.267 49.3133 106.184 51.317 107.064 53.0031C111.304 61.1248 115.532 69.223 119.747 77.298C120.986 79.6712 123.518 81.1702 126.273 81.166C151.467 81.1277 176.629 81.0893 201.757 81.0511C204.503 81.0469 207.032 79.5455 208.285 77.1722C212.542 69.1057 216.81 61.0199 221.088 52.914C221.975 51.2328 221.904 49.2357 220.905 47.6376Z" fill="white"/>
<path d="M165.365 63.0027C165.362 63.5913 164.865 64.383 164.256 64.383H163.978C163.369 64.383 162.878 63.5937 162.88 63.0052L162.92 51.315C162.922 50.7241 163.415 50.2517 164.026 50.2517H164.305C164.916 50.2517 165.412 50.7226 165.409 51.3134L165.365 63.0027Z" fill="url(#paint1_linear_3_1526)"/>
<path d="M150.722 63.3522C151.054 63.845 150.908 64.5054 150.397 64.8272C149.886 65.149 149.203 65.0105 148.871 64.5179L142.247 54.6871C141.913 54.1927 142.058 53.5299 142.57 53.207C143.081 52.884 143.766 53.0232 144.1 53.5179L150.722 63.3522Z" fill="url(#paint2_linear_3_1526)"/>
<path d="M138.707 70.3174C139.188 70.6777 139.274 71.3459 138.9 71.8097C138.526 72.2736 137.833 72.3575 137.353 71.9975L127.765 64.8137C127.282 64.4525 127.195 63.7826 127.569 63.3175C127.942 62.8523 128.636 62.7682 129.119 63.1296L138.707 70.3174Z" fill="url(#paint3_linear_3_1526)"/>
<path d="M177.168 63.3243C176.832 63.8176 176.972 64.4771 177.48 64.7976C177.988 65.118 178.671 64.9781 179.007 64.4851L185.694 54.651C186.03 54.1565 185.891 53.4948 185.383 53.1731C184.875 52.8512 184.19 52.9915 183.854 53.4862L177.168 63.3243Z" fill="url(#paint4_linear_3_1526)"/>
<path d="M189.105 70.255C188.622 70.616 188.531 71.2836 188.901 71.7458C189.27 72.208 189.96 72.2902 190.442 71.9293L200.054 64.7347C200.537 64.3732 200.63 63.7043 200.261 63.2408C199.892 62.7773 199.201 62.6948 198.718 63.0565L189.105 70.255Z" fill="url(#paint5_linear_3_1526)"/>
<mask id="mask0_3_1526" style="mask-type:luminance" maskUnits="userSpaceOnUse" x="106" y="45" width="116" height="37">
<path d="M220.905 47.6376C219.905 46.0386 218.117 45.0658 216.177 45.0668C181.536 45.0868 146.832 45.1067 112.064 45.1266C110.112 45.1278 108.304 46.1018 107.285 47.7079C106.267 49.3133 106.184 51.317 107.064 53.0031C111.304 61.1248 115.532 69.223 119.747 77.298C120.986 79.6712 123.518 81.1702 126.273 81.166C151.467 81.1277 176.629 81.0893 201.757 81.0511C204.503 81.0469 207.032 79.5455 208.285 77.1722C212.542 69.1057 216.81 61.0199 221.088 52.914C221.975 51.2328 221.904 49.2357 220.905 47.6376Z" fill="white"/>
</mask>
<g mask="url(#mask0_3_1526)">
<path d="M165.849 95.4787C165.845 96.3806 165.08 97.0515 164.142 97.0545L163.834 97.0555C162.895 97.0585 162.139 96.3879 162.142 95.4858L162.236 69.2554C162.239 68.3452 163.006 67.9156 163.949 67.9156H164.258C165.201 67.9156 165.963 68.3409 165.959 69.251L165.849 95.4787Z" fill="url(#paint6_linear_3_1526)"/>
</g>
<path d="M15.3315 134.771C14.9898 134.772 14.7073 134.51 14.7005 134.184L12.9639 51.1383C12.7485 40.8359 21.5561 32.4258 32.5928 32.4231L49.0332 32.4191C49.38 32.419 49.6653 32.6909 49.6702 33.0271C49.6753 33.3631 49.3981 33.635 49.0514 33.6351L32.6141 33.6396C22.2732 33.6424 14.0189 41.5043 14.2183 51.1374L15.9378 134.181C15.9447 134.506 15.6732 134.77 15.3315 134.771Z" fill="url(#paint7_linear_3_1526)"/>
<path d="M308.662 286.438C308.334 286.441 308.075 286.194 308.084 285.888L309.895 222.511C309.903 222.198 310.179 221.943 310.511 221.941C310.842 221.939 311.104 222.191 311.095 222.505L309.271 285.879C309.263 286.186 308.99 286.436 308.662 286.438Z" fill="url(#paint8_linear_3_1526)"/>
<path d="M309.638 307.238L301.731 306.418C297.586 301.56 293.442 296.931 289.297 292.072C288.314 290.919 286.87 290.483 285.354 290.483C257.426 290.483 229.498 290.483 201.57 290.483C200.053 290.483 198.611 290.918 197.626 292.072C193.482 296.931 189.338 301.674 185.193 306.533L177.256 307.295L177.274 317.922C177.307 318.571 177.451 319.331 177.733 319.943C178.58 321.777 180.416 323.064 182.436 323.064C223.12 323.064 263.804 323.064 304.488 323.064C306.509 323.064 308.346 321.765 309.193 319.93C309.475 319.318 309.619 318.606 309.652 317.957L309.638 307.238Z" fill="#7D97F4"/>
<path d="M308.43 304.435C302.053 296.959 295.675 289.92 289.298 282.444C288.314 281.291 286.87 281.063 285.354 281.063C257.426 281.063 229.498 281.063 201.57 281.063C200.053 281.063 198.611 281.29 197.627 282.444C191.249 289.92 184.871 297.178 178.494 304.654C177.183 306.191 176.887 308.379 177.734 310.213C178.58 312.047 180.416 313.25 182.437 313.25C223.12 313.25 263.804 313.25 304.488 313.25C306.509 313.25 308.346 311.94 309.193 310.105C310.04 308.271 309.742 305.973 308.43 304.435Z" fill="url(#paint9_linear_3_1526)"/>
<path d="M239.007 310.11C235.208 310.11 232.237 308.479 230.857 306.711C229.595 305.092 229.801 302.867 231.437 300.899C232.313 299.78 234.149 298.334 236.149 298.334H250.773C252.777 298.334 254.612 299.472 255.487 300.592C257.123 302.559 257.329 305.12 256.067 306.738C254.687 308.507 251.716 310.11 247.915 310.11L239.007 310.11Z" fill="#7D97F4"/>
<path opacity="0.78" d="M250.773 300.297C245.899 300.297 241.025 300.297 236.151 300.297C235.328 300.297 234.169 301.312 233.563 302.101C230.936 305.234 233.374 308.148 239.009 308.148C241.978 308.148 244.946 308.148 247.915 308.148C253.55 308.148 255.988 305.234 253.361 302.101C252.755 301.309 251.596 300.297 250.773 300.297Z" fill="white"/>
<path d="M242.642 300.789L243.233 305.65C243.239 305.699 243.28 305.735 243.329 305.736C243.378 305.736 243.42 305.7 243.428 305.652L244.278 300.199C244.278 300.199 242.472 299.392 242.642 300.789Z" fill="url(#paint10_linear_3_1526)"/>
<path d="M125.084 226.419C143.995 226.419 159.325 211.089 159.325 192.178C159.325 173.268 143.995 157.938 125.084 157.938C106.174 157.938 90.8435 173.268 90.8435 192.178C90.8435 211.089 106.174 226.419 125.084 226.419Z" fill="url(#paint11_linear_3_1526)"/>
<path d="M125.084 225.281C143.366 225.281 158.187 210.46 158.187 192.178C158.187 173.897 143.366 159.076 125.084 159.076C106.802 159.076 91.982 173.897 91.982 192.178C91.982 210.46 106.802 225.281 125.084 225.281Z" fill="url(#paint12_linear_3_1526)"/>
<path opacity="0.78" d="M94.5699 190.907C94.5636 190.907 94.5573 190.907 94.5512 190.906C94.3582 190.896 94.2102 190.731 94.2203 190.539C94.2883 189.238 94.4393 187.932 94.6696 186.657C94.7037 186.467 94.8844 186.34 95.0759 186.374C95.266 186.409 95.3921 186.591 95.3578 186.781C95.133 188.027 94.9854 189.304 94.9187 190.575C94.9089 190.762 94.7545 190.907 94.5699 190.907Z" fill="white"/>
<path opacity="0.78" d="M97.7883 178.777C97.7354 178.777 97.6814 178.765 97.6309 178.74C97.4584 178.653 97.3893 178.442 97.4764 178.27C102.769 167.785 113.347 161.271 125.084 161.271C126.956 161.271 128.832 161.44 130.659 161.773C130.85 161.808 130.976 161.99 130.941 162.18C130.906 162.371 130.725 162.498 130.534 162.461C128.748 162.136 126.914 161.971 125.084 161.971C113.613 161.971 103.274 168.337 98.1006 178.585C98.0393 178.707 97.9162 178.777 97.7883 178.777Z" fill="white"/>
<path opacity="0.9" d="M145.613 212.71C156.555 201.769 156.555 184.03 145.613 173.088C134.672 162.147 116.933 162.147 105.992 173.088C95.0506 184.03 95.0505 201.769 105.992 212.71C116.933 223.651 134.672 223.651 145.613 212.71Z" fill="white"/>
<path d="M134.626 179.196C131.322 179.196 128.379 180.928 126.471 183.628C124.562 180.929 121.619 179.196 118.315 179.196C112.562 179.196 107.897 184.443 107.897 190.915C107.897 196.691 117.883 207.274 124.367 211.435C125.637 212.249 127.281 212.178 128.478 211.26C134.057 206.985 145.044 196.611 145.044 190.915C145.044 184.443 140.38 179.196 134.626 179.196Z" fill="url(#paint13_linear_3_1526)"/>
<path d="M127.164 200.959C127.149 200.959 127.135 200.959 127.12 200.959C126.701 200.942 126.328 200.691 126.154 200.309L121.305 189.64L116.616 194.776C116.406 195.006 116.108 195.137 115.797 195.137H103.875C103.263 195.137 102.766 194.641 102.766 194.028C102.766 193.416 103.263 192.919 103.875 192.919H115.308L120.8 186.904C121.051 186.629 121.424 186.498 121.792 186.556C122.16 186.615 122.474 186.854 122.629 187.193L127.26 197.383L132.015 188.779C132.221 188.407 132.622 188.185 133.045 188.208C133.469 188.23 133.843 188.493 134.008 188.885L135.94 193.474H146.294C146.906 193.474 147.403 193.97 147.403 194.583C147.403 195.195 146.906 195.692 146.294 195.692H135.204C134.758 195.692 134.355 195.424 134.182 195.013L132.851 191.852L128.134 200.387C127.938 200.741 127.566 200.959 127.164 200.959Z" fill="url(#paint14_linear_3_1526)"/>
<path d="M129.459 142.029C148.37 142.029 163.7 126.698 163.7 107.788C163.7 88.8771 148.37 73.5469 129.459 73.5469C110.549 73.5469 95.2185 88.8771 95.2185 107.788C95.2185 126.698 110.549 142.029 129.459 142.029Z" fill="url(#paint15_linear_3_1526)"/>
<path d="M129.459 140.89C147.741 140.89 162.562 126.07 162.562 107.788C162.562 89.5059 147.741 74.6855 129.459 74.6855C111.177 74.6855 96.3571 89.5059 96.3571 107.788C96.3571 126.07 111.177 140.89 129.459 140.89Z" fill="url(#paint16_linear_3_1526)"/>
<path opacity="0.78" d="M98.9448 106.516C98.9386 106.516 98.9323 106.516 98.9262 106.515C98.7332 106.505 98.5852 106.341 98.5953 106.148C98.6632 104.847 98.8143 103.542 99.0446 102.266C99.0787 102.076 99.2594 101.95 99.4509 101.984C99.6409 102.018 99.7671 102.2 99.7328 102.39C99.508 103.637 99.3604 104.913 99.2938 106.184C99.2839 106.371 99.1295 106.516 98.9448 106.516Z" fill="white"/>
<path opacity="0.78" d="M102.163 94.3867C102.11 94.3867 102.057 94.3747 102.006 94.3491C101.834 94.262 101.764 94.0516 101.851 93.8795C107.144 83.3943 117.723 76.8808 129.459 76.8808C131.331 76.8808 133.207 77.0496 135.035 77.3829C135.225 77.4174 135.351 77.5995 135.316 77.7896C135.282 77.9799 135.1 78.1069 134.909 78.0707C133.123 77.7452 131.289 77.5803 129.459 77.5803C117.988 77.5803 107.649 83.9467 102.476 94.1944C102.414 94.3162 102.291 94.3867 102.163 94.3867Z" fill="white"/>
<path opacity="0.9" d="M149.989 128.32C160.93 117.379 160.93 99.6395 149.989 88.6983C139.048 77.7571 121.309 77.7571 110.367 88.6983C99.4261 99.6395 99.4261 117.379 110.367 128.32C121.309 139.261 139.048 139.261 149.989 128.32Z" fill="white"/>
<path d="M119.2 125.507C118.564 124.872 113.024 119.174 114.056 114.75C114.297 113.719 114.885 112.95 115.757 112.526C118.209 111.333 122.329 113.252 125.339 114.653C125.821 114.878 126.259 115.082 126.634 115.245C127.247 115.511 129.707 114.328 131.73 111.677C132.939 110.093 135.441 106.021 132.56 102.438C126.864 95.353 129.51 87.5437 129.626 87.2148L131.844 87.9899C131.747 88.27 129.533 94.923 134.391 100.966C137.112 104.35 136.816 108.887 133.598 113.103C131.451 115.918 127.953 118.381 125.697 117.4C125.307 117.23 124.849 117.017 124.347 116.783C122.209 115.788 118.23 113.934 116.785 114.639C116.623 114.718 116.444 114.856 116.344 115.283C115.721 117.954 119.492 122.473 120.861 123.846L119.2 125.507Z" fill="url(#paint17_linear_3_1526)"/>
<path d="M143.41 99.6959C142.319 97.9385 140.513 96.7475 138.468 96.4341C134.444 95.8169 131.669 98.551 130.779 102.263C130.418 103.771 130.204 105.431 129.37 106.771C128.212 108.633 126.395 108.707 124.537 109.498C121.024 110.995 120.039 115.46 121.658 118.634C123.961 123.146 130.616 123.224 134.708 121.536C141.746 118.634 147.777 106.732 143.41 99.6959Z" fill="url(#paint18_linear_3_1526)"/>
<path d="M123.449 307.318C142.36 307.318 157.69 291.988 157.69 273.078C157.69 254.167 142.36 238.837 123.449 238.837C104.538 238.837 89.2082 254.167 89.2082 273.078C89.2082 291.988 104.538 307.318 123.449 307.318Z" fill="url(#paint19_linear_3_1526)"/>
<path d="M123.449 306.18C141.731 306.18 156.551 291.359 156.551 273.078C156.551 254.796 141.731 239.975 123.449 239.975C105.167 239.975 90.3467 254.796 90.3467 273.078C90.3467 291.359 105.167 306.18 123.449 306.18Z" fill="url(#paint20_linear_3_1526)"/>
<path opacity="0.78" d="M92.9346 271.806C92.9283 271.806 92.922 271.806 92.9159 271.805C92.7229 271.795 92.575 271.63 92.585 271.438C92.653 270.137 92.804 268.831 93.0343 267.556C93.0684 267.366 93.2491 267.239 93.4406 267.274C93.6307 267.308 93.7568 267.49 93.7225 267.68C93.4978 268.926 93.3501 270.203 93.2835 271.474C93.2736 271.661 93.1193 271.806 92.9346 271.806Z" fill="white"/>
<path opacity="0.78" d="M96.1531 259.676C96.1001 259.676 96.0464 259.664 95.9957 259.639C95.8233 259.552 95.7541 259.341 95.8412 259.169C101.134 248.684 111.712 242.17 123.449 242.17C125.321 242.17 127.197 242.339 129.024 242.672C129.214 242.707 129.34 242.889 129.306 243.079C129.271 243.27 129.09 243.396 128.899 243.36C127.112 243.035 125.279 242.87 123.449 242.87C111.978 242.87 101.638 249.236 96.4655 259.484C96.404 259.606 96.2809 259.676 96.1531 259.676Z" fill="white"/>
<path opacity="0.9" d="M143.978 293.609C154.919 282.667 154.919 264.928 143.978 253.987C133.036 243.046 115.297 243.046 104.356 253.987C93.4147 264.928 93.4147 282.667 104.356 293.609C115.297 304.55 133.036 304.55 143.978 293.609Z" fill="white"/>
<path d="M133.845 278.08C133.845 283.839 129.177 288.508 123.418 288.508C117.659 288.508 112.99 283.839 112.99 278.08C112.99 272.321 121.183 255.416 123.418 255.416C126.05 255.416 133.845 272.321 133.845 278.08Z" fill="url(#paint21_linear_3_1526)"/>
<path d="M40.0074 313.105C40.0074 313.105 39.3748 316.685 39.0648 320.229C38.9436 321.614 40.0115 322.816 41.4007 322.874C46.1204 323.071 56.2159 323.453 59.8385 323.292C60.3831 323.267 60.7392 322.71 60.5376 322.203C60.3687 321.779 60.0429 321.436 59.628 321.245L42.9519 313.581L40.0074 313.105Z" fill="url(#paint22_linear_3_1526)"/>
<path d="M39.4894 311.001L39.9975 315.283C39.9975 315.283 42.9186 316.643 44.9136 315.112L43.7038 310.34L39.4894 311.001Z" fill="url(#paint23_linear_3_1526)"/>
<path d="M39.8711 230.489C39.6518 231.607 38.693 286.297 44.539 310.805C44.6344 311.205 44.4317 311.617 44.051 311.773C43.1544 312.139 41.3966 312.67 39.29 312.741C38.6377 312.762 38.0527 312.338 37.8687 311.712C36.1977 306.026 28.1904 277.536 27.1458 250.32C25.9786 219.91 27.1458 249.285 27.1458 249.285L27.8303 230.487L39.8711 230.489Z" fill="url(#paint24_linear_3_1526)"/>
<path d="M20.8243 314.972C20.8243 314.972 19.8177 316.78 18.843 321.582C18.667 322.45 19.273 323.28 20.1539 323.367C21.7123 323.52 24.1115 323.717 26.0332 323.704C26.9191 323.698 27.6105 322.926 27.5038 322.047C27.2908 320.294 26.6277 317.418 24.5789 315.176L20.8243 314.972Z" fill="url(#paint25_linear_3_1526)"/>
<path d="M19.9403 309.464L21.1276 315.94C21.1276 315.94 22.3016 316.813 24.6237 316.18L24.0571 309.212L19.9403 309.464Z" fill="url(#paint26_linear_3_1526)"/>
<path d="M16.7329 232.167C11.9517 261.022 17.77 303.484 19.7323 311.795C19.8524 312.304 20.2632 312.694 20.7787 312.779C21.6547 312.924 23.0968 313.043 24.5183 312.63C25.0082 312.488 25.3523 312.046 25.3724 311.536C25.6356 304.817 25.1618 263.568 29.6167 247.267C29.8424 246.441 30.3468 245.72 31.045 245.224L39.6917 239.077L40.3547 229.141L16.7329 232.167Z" fill="url(#paint27_linear_3_1526)"/>
<path d="M47.1986 177.493C32.8703 177.256 17.5746 181.642 17.5746 181.642C13.3036 206.563 16.3138 234.921 16.3138 234.921C27.4064 237.83 39.9196 233.142 39.9196 233.142C41.7632 222.726 50.3653 193.411 50.3653 193.411C57.3661 192.542 55.8456 186.797 60.5948 184.127C56.9723 179.928 62.5521 181.964 61.8103 178.805C56.7443 180.38 51.618 177.566 47.1986 177.493Z" fill="url(#paint28_linear_3_1526)"/>
<path d="M89.5219 156.388C88.1143 154.688 86.3329 155.492 86.3329 155.492C84.2242 164.399 73.1686 171.621 61.8101 175.151C62.552 178.309 64.2597 183.653 67.8823 187.852C86.7326 177.253 89.5219 156.388 89.5219 156.388Z" fill="white"/>
<path d="M89.1802 156.821C89.3275 157.289 87.6219 158.002 86.6178 156.087C86.5826 155.169 86.0246 151.237 86.5729 150.49C89.4936 146.508 95.1563 141.516 95.1563 141.516C96.1133 142.46 95.325 143.388 95.325 143.388L92.5779 146.25C93.1525 147.288 93.8533 148.165 94.1819 149.421C94.4306 150.372 94.2785 151.388 93.7981 152.254C93.3159 153.122 92.658 154.252 92.0361 155.135C90.8588 156.808 89.1802 156.821 89.1802 156.821Z" fill="url(#paint29_linear_3_1526)"/>
<path d="M91.3763 148.107L88.873 150.229L88.0871 152.342L90.3191 154.818C90.3191 154.818 91.0695 150.625 91.6272 149.718C92.185 148.811 91.8958 148.372 91.3763 148.107Z" fill="url(#paint30_linear_3_1526)"/>
<path d="M22.5565 195.129L17.0608 181.255C17.0608 181.255 3.67737 190.349 1.47646 201.878C4.0052 202.064 8.60682 202.722 13.1109 204.996C14.1005 199.552 22.5565 195.129 22.5565 195.129Z" fill="url(#paint31_linear_3_1526)"/>
<path d="M32.6853 165.861L28.1262 179.045C28.0509 179.264 28.1404 179.506 28.3427 179.617C29.5856 180.304 34.0629 182.29 39.4585 178.87C40.0206 178.513 40.4032 177.932 40.4886 177.272L41.9649 165.861H32.6853Z" fill="url(#paint32_linear_3_1526)"/>
<path d="M24.0327 179.837L29.4729 175.216L37.6111 195.085L31.6764 274.039L13.1469 274.593C13.0158 274.597 12.8891 274.546 12.7965 274.454C12.704 274.361 12.6541 274.234 12.6587 274.103L15.2456 198.145C15.2456 198.145 15.3165 181.732 17.0608 181.321C18.8052 180.91 24.0327 179.837 24.0327 179.837Z" fill="url(#paint33_linear_3_1526)"/>
<path d="M37.6111 194.065L40.7631 175.216L43.4608 177.588L49.1478 177.532L50.3653 193.476L42.2505 275.064C42.2377 275.193 42.1728 275.31 42.0709 275.39C41.969 275.47 41.8388 275.505 41.7107 275.486L31.6764 274.039L37.6111 194.065Z" fill="white"/>
<path d="M48.4009 177.554C48.4009 177.554 57.5411 176.924 62.8177 174.893C69.014 185.906 70.6252 186.229 70.6252 186.229C70.6252 186.229 63.1196 192.887 50.3654 193.476C37.6111 194.065 48.4009 177.554 48.4009 177.554Z" fill="white"/>
<path d="M41.2752 194.924V196.857L48.3408 196.427V194.28L41.2752 194.924Z" fill="url(#paint34_linear_3_1526)"/>
<path d="M37.172 199.755C37.1256 199.755 37.0783 199.744 37.0345 199.72L30.7816 196.362C30.7005 196.318 30.6447 196.239 30.631 196.148L29.7844 190.451L27.5725 190.058C27.4648 190.039 27.3768 189.961 27.3447 189.857L24.932 182.019C24.8846 181.866 24.9709 181.702 25.1251 181.655C25.279 181.607 25.4419 181.694 25.4895 181.848L27.8498 189.515L30.093 189.914C30.2164 189.936 30.312 190.034 30.3304 190.158L31.1861 195.918L37.3099 199.206C37.452 199.282 37.5052 199.459 37.4289 199.601C37.3765 199.699 37.276 199.755 37.172 199.755Z" fill="#91B3FA"/>
<path d="M38.6576 197.8C38.6209 197.8 38.5838 197.791 38.5494 197.771C38.4445 197.712 38.4082 197.578 38.4679 197.473L41.7365 191.743L41.1991 188.518C41.1837 188.426 41.2294 188.334 41.3121 188.289L43.9099 186.907L43.2424 177.603C43.2339 177.483 43.3244 177.378 43.4448 177.37C43.5676 177.365 43.6701 177.452 43.6786 177.572L44.3564 187.018C44.3627 187.104 44.3174 187.186 44.2411 187.226L41.6564 188.602L42.1806 191.748C42.1888 191.798 42.1798 191.849 42.1547 191.892L38.8476 197.69C38.8073 197.761 38.7337 197.8 38.6576 197.8Z" fill="#91B3FA"/>
<path d="M34.2687 207.778C34.2687 207.778 19.2425 216.27 14.1725 209.019C13.1198 207.513 12.8681 206.017 13.1275 204.59C8.62347 202.316 4.02186 201.658 1.49311 201.472C0.829589 204.948 1.18028 208.644 3.22267 212.381C12.1037 228.627 36.2573 211.483 36.2573 211.483L34.2687 207.778Z" fill="url(#paint35_linear_3_1526)"/>
<path d="M32.4633 218.521L40.6641 189.882C40.7572 189.557 41.0345 189.32 41.3704 189.281C42.8562 189.108 47.1615 188.621 52.1325 188.2C58.1201 187.694 65.0737 187.284 69.2288 187.633C69.8195 187.682 70.1764 188.307 69.9138 188.839C67.551 193.619 57.8315 213.065 52.9644 219.435C52.8031 219.646 52.5538 219.769 52.2882 219.767L33.261 219.59C32.7075 219.585 32.3109 219.054 32.4633 218.521Z" fill="url(#paint36_linear_3_1526)"/>
<path d="M52.9832 185.718L58.9288 184.727C59.2455 184.674 59.5047 184.977 59.4041 185.282L58.8156 187.065C58.7644 187.221 58.629 187.333 58.4669 187.355L52.7452 188.119C52.4493 188.158 52.2053 187.889 52.2733 187.599L52.6377 186.041C52.677 185.874 52.8133 185.746 52.9832 185.718Z" fill="#7D97F4"/>
<path d="M48.5311 190.751L49.021 188.2C49.0701 187.944 49.2814 187.75 49.5407 187.724L61.5496 186.506C61.9539 186.465 62.2775 186.835 62.1826 187.23L61.4191 190.409C61.358 190.664 61.1367 190.847 60.8753 190.861L49.1401 191.451C48.758 191.471 48.4592 191.127 48.5311 190.751Z" fill="#7D97F4"/>
<path d="M34.4446 211.602C34.4446 211.602 33.3023 206.905 33.7631 205.238C34.2239 203.572 35.1167 201.429 38.0927 201.905C41.0686 202.381 44.5791 203.635 44.5791 203.635C44.5791 203.635 44.4017 205.806 42.1399 205.105L43.5424 206.19C43.5424 206.19 43.3419 207.929 41.4315 207L42.7359 208.439C42.7359 208.439 41.9155 209.867 40.5099 208.951C39.1044 208.036 38.4307 212.168 34.4446 211.602Z" fill="url(#paint37_linear_3_1526)"/>
<path d="M20.1211 212.155C18.7095 212.155 17.4128 211.946 16.4242 211.404C16.2832 211.326 16.2314 211.149 16.3088 211.008C16.3868 210.866 16.5629 210.816 16.705 210.892C20.6692 213.069 30.5104 209.321 30.6093 209.283C30.6392 209.273 32.5236 208.617 33.1914 207.313C33.2651 207.17 33.4402 207.114 33.5838 207.187C33.727 207.26 33.7837 207.436 33.7102 207.579C32.9342 209.095 30.8943 209.802 30.8077 209.831C30.4993 209.95 24.7078 212.155 20.1211 212.155Z" fill="#91B3FA"/>
<path d="M14.704 220.612C14.5477 220.612 14.4184 220.044 14.413 219.886C14.4073 219.725 14.5334 219.368 14.6944 219.363C26.0596 218.972 32.5433 213.656 32.6073 213.604C32.7315 213.502 32.9152 213.465 33.0177 213.589C33.1196 213.714 33.1017 214.314 32.9769 214.416C32.9115 214.47 26.2885 220.22 14.7143 220.612C14.7108 220.612 14.7074 220.612 14.704 220.612Z" fill="#91B3FA"/>
<path d="M43.4305 151.118C43.5787 151.324 48.2031 167.443 48.2031 167.443L38.9437 169.887L32.2909 155.262C32.2909 155.262 40.9497 147.672 43.4305 151.118Z" fill="url(#paint38_linear_3_1526)"/>
<path d="M35.968 156.344C35.741 156.706 35.6936 157.149 35.8394 157.55L38.6967 165.408C38.7401 165.527 38.7976 165.639 38.8723 165.741C39.2842 166.307 40.7401 168.001 42.4291 166.406C43.8688 165.047 45.2105 163.818 46.4647 163.447C47.1971 163.23 47.9624 163.665 48.1703 164.4C48.5986 165.914 49.4008 168.986 49.7304 171.816C49.8129 172.525 49.3289 173.175 48.6282 173.312C46.7791 173.674 43.1471 174.273 40.0599 174.105C39.5527 174.077 39.1042 173.774 38.8883 173.314C37.9385 171.291 35.2532 165.632 34.2493 164.151C33.3166 162.775 31.0987 162.795 30.0837 162.885C29.6983 162.919 29.3196 162.793 29.0322 162.534C28.1707 161.757 26.7523 159.964 28.7901 157.789C29.2969 157.248 29.2585 156.389 28.7283 155.872C27.7782 154.944 26.8572 153.37 28.4055 151.411C29.9731 149.427 32.0469 149.624 33.4003 150.062C33.9991 150.256 34.6842 150.056 35.0304 149.53C35.1844 149.296 35.4333 149.119 35.8336 149.116C36.5889 149.11 37.1948 148.538 37.1934 147.782C37.1908 146.487 37.6892 144.903 39.8935 144.194C43.9363 142.894 46.5014 146.787 46.7792 149.708C47.057 152.628 42.5937 153.789 39.9613 153.616C38.0275 153.489 36.5932 155.348 35.968 156.344Z" fill="url(#paint39_linear_3_1526)"/>
<path d="M35.3339 167.043C35.3339 167.043 34.6316 161.975 32.5183 161.746C30.4051 161.517 28.3667 163.271 30.492 166.1C33.1357 169.618 35.3339 167.043 35.3339 167.043Z" fill="url(#paint40_linear_3_1526)"/>
<path d="M44.1385 151.819C44.0835 151.819 44.0277 151.804 43.9782 151.771C43.8438 151.682 43.8068 151.502 43.8951 151.367C43.9044 151.353 44.8196 149.934 44.3396 148.449C43.9839 147.348 42.9594 146.468 41.2944 145.832C41.1439 145.775 41.0686 145.606 41.1258 145.456C41.1834 145.305 41.3534 145.23 41.5023 145.287C43.3435 145.99 44.4856 146.995 44.8965 148.275C45.4598 150.029 44.4257 151.622 44.3816 151.689C44.3256 151.774 44.233 151.819 44.1385 151.819Z" fill="#91B3FA"/>
<path d="M267.602 302.981C262.252 302.818 259.487 302.181 258.058 301.593C258.053 302.125 258.055 302.666 258.071 303.227C258.088 303.826 258.53 304.306 259.076 304.304L288.451 304.188C289.388 304.184 289.939 303.098 289.535 302.238C285.683 302.546 275.871 303.234 267.602 302.981Z" fill="url(#paint41_linear_3_1526)"/>
<path d="M259.336 291.797C260.015 289.411 262.225 287.796 264.705 287.88L267.158 287.964C280.206 291.127 286.795 298.362 289.38 301.993C289.43 302.064 289.46 302.14 289.496 302.215C285.643 302.523 275.832 303.21 267.563 302.958C262.213 302.795 259.448 302.158 258.018 301.57C258.053 297.393 258.678 294.112 259.336 291.797Z" fill="url(#paint42_linear_3_1526)"/>
<path d="M259.17 275.96L260.791 289.864C260.769 291.307 261.775 292.467 263.038 292.573L268.442 293.012C269.705 293.118 272.179 292.301 272.201 290.858L276.166 275.96H259.17Z" fill="url(#paint43_linear_3_1526)"/>
<path d="M220.197 302.981C225.547 302.818 228.312 302.181 229.741 301.593C229.746 302.125 229.744 302.666 229.729 303.227C229.712 303.826 229.269 304.306 228.723 304.304L199.348 304.188C198.411 304.184 197.86 303.098 198.264 302.238C202.117 302.546 211.928 303.234 220.197 302.981Z" fill="url(#paint44_linear_3_1526)"/>
<path d="M228.463 291.797C227.784 289.411 225.575 287.796 223.095 287.88L220.642 287.964C207.594 291.127 201.005 298.362 198.419 301.993C198.369 302.064 198.339 302.14 198.304 302.215C202.156 302.523 211.967 303.21 220.237 302.958C225.586 302.795 228.352 302.158 229.781 301.57C229.746 297.393 229.121 294.112 228.463 291.797Z" fill="url(#paint45_linear_3_1526)"/>
<path d="M228.629 275.96L227.008 289.864C227.03 291.307 226.024 292.467 224.761 292.573L219.358 293.012C218.094 293.118 215.62 292.301 215.598 290.858L211.633 275.96H228.629Z" fill="url(#paint46_linear_3_1526)"/>
<path d="M301.053 172.088L243.951 172.252L186.761 172.088C186.761 172.088 181.299 206.943 198.024 231.222C203.42 247.408 206.623 268.947 208.781 274.156C210.939 279.366 211.984 284.203 211.984 284.203H229.789L237.257 226.654C237.614 223.899 239.96 221.79 242.738 221.79H245.166C247.841 221.79 250.101 223.691 250.446 226.345L259.785 284.468L275.741 283.96C275.741 283.96 276.808 279.244 278.966 274.035C281.125 268.826 284.35 247.413 289.746 231.227C306.471 206.948 301.053 172.088 301.053 172.088Z" fill="url(#paint47_linear_3_1526)"/>
<path d="M293.64 184.265C278.692 193.483 272.086 201.9 248.141 202.904V202.936C247.356 202.976 246.109 203.733 244.968 203.733H242.831C241.69 203.733 239.898 202.976 238.328 202.936V202.904C215.168 201.9 208.442 193.483 193.495 184.265C176.766 173.946 186.179 149.749 189.959 137.374C193.746 124.992 192.25 108.061 197.105 90.0062C200.367 77.8667 212.575 72.404 220.183 70.1298C221.413 69.7575 222.544 69.6884 223.483 69.4699C225.377 69.0409 226.581 69.0934 226.581 69.0934H261.218C261.218 69.0934 262.392 69.041 264.286 69.4699C265.216 69.6884 266.325 69.8647 267.555 70.2368C275.163 72.511 287.31 77.9203 290.572 90.0598C295.428 108.115 293.72 125.019 297.508 137.401C301.287 149.775 310.368 173.947 293.64 184.265Z" fill="url(#paint48_linear_3_1526)"/>
<path d="M264.286 69.4699C262.117 80.6706 253.814 88.8345 243.899 88.8345C233.969 88.8345 225.658 80.7401 223.505 69.5235C225.399 69.0945 226.581 69.0934 226.581 69.0934H261.218C261.218 69.0934 262.392 69.0409 264.286 69.4699Z" fill="url(#paint49_linear_3_1526)"/>
<path d="M227.983 57.1427C227.983 57.1427 222.168 52.8867 222.701 62.1248C223.234 71.3631 227.029 69.5982 227.029 69.5982L227.983 57.1427Z" fill="url(#paint50_linear_3_1526)"/>
<path d="M259.085 57.1427C259.085 57.1427 264.9 52.8867 264.367 62.1248C263.835 71.3631 260.04 69.5982 260.04 69.5982L259.085 57.1427Z" fill="url(#paint51_linear_3_1526)"/>
<path d="M228.472 49.5115C226.251 58.686 223.142 74.7633 231.312 81.8262C236.55 86.3546 244.405 86.785 250.774 85.1375C266.965 80.9488 260.431 55.3666 258.197 43.3068C258.197 43.3068 233.598 33.865 228.472 49.5115Z" fill="url(#paint52_linear_3_1526)"/>
<path d="M226.978 56.5744C226.978 56.5744 227.983 42.6323 234.188 46.2742C240.393 49.916 242.011 52.7305 247.406 51.1208C252.802 49.5113 254.669 42.6095 257.118 47.623C259.567 52.6366 261.047 60.5049 261.047 60.5049C261.047 60.5049 262.783 50.8602 262.379 46.8138C261.974 42.7672 262.244 31.8417 253.341 32.7859C253.341 32.7859 245.383 37.3719 237.29 36.6975C227.109 35.8492 223.436 49.1086 226.978 56.5744Z" fill="url(#paint53_linear_3_1526)"/>
<path d="M221.374 175.088C222.318 175.222 223.127 175.088 221.374 171.176C219.621 167.264 210.174 169.423 210.174 169.423C210.174 169.423 190.081 136.498 197.365 125.849C204.649 115.2 220.556 97.4982 210.174 74.3815C210.174 74.3815 178.751 88.4928 173.49 106.702C168.263 124.797 165.041 163.669 205.903 182.024C205.905 182.026 205.907 182.029 205.908 182.031C210.001 187.356 217.328 187.362 223.802 185.204C230.276 183.046 220.43 174.953 221.374 175.088Z" fill="url(#paint54_linear_3_1526)"/>
<path d="M265.749 175.088C264.805 175.222 263.996 175.088 265.749 171.176C267.503 167.264 276.949 169.423 276.949 169.423C276.949 169.423 297.042 136.498 289.758 125.849C282.475 115.2 266.568 97.4982 276.949 74.3815C276.949 74.3815 308.372 88.4928 313.633 106.702C318.86 124.797 322.082 163.669 281.22 182.024C281.218 182.026 281.217 182.029 281.215 182.031C277.123 187.356 269.796 187.362 263.321 185.204C256.847 183.046 266.693 174.953 265.749 175.088Z" fill="url(#paint55_linear_3_1526)"/>
<path d="M271.145 142.176C271.071 142.176 270.995 142.155 270.928 142.112C247.36 127.019 217.63 137.725 217.333 137.835C217.123 137.913 216.891 137.805 216.813 137.595C216.736 137.386 216.843 137.154 217.052 137.076C217.354 136.965 247.462 126.123 271.364 141.431C271.552 141.551 271.607 141.801 271.486 141.99C271.409 142.11 271.279 142.176 271.145 142.176Z" fill="url(#paint56_linear_3_1526)"/>
<defs>
<linearGradient id="paint0_linear_3_1526" x1="354.527" y1="371.452" x2="128.425" y2="130.763" gradientUnits="userSpaceOnUse">
<stop stop-color="#DAE3FE"/>
<stop offset="1" stop-color="#E9EFFD"/>
</linearGradient>
<linearGradient id="paint1_linear_3_1526" x1="162.88" y1="57.3172" x2="165.409" y2="57.3172" gradientUnits="userSpaceOnUse">
<stop stop-color="#09005D"/>
<stop offset="1" stop-color="#1A0F91"/>
</linearGradient>
<linearGradient id="paint2_linear_3_1526" x1="145.49" y1="59.6647" x2="147.476" y2="58.3705" gradientUnits="userSpaceOnUse">
<stop stop-color="#09005D"/>
<stop offset="1" stop-color="#1A0F91"/>
</linearGradient>
<linearGradient id="paint3_linear_3_1526" x1="132.503" y1="68.5035" x2="133.965" y2="66.6248" gradientUnits="userSpaceOnUse">
<stop stop-color="#09005D"/>
<stop offset="1" stop-color="#1A0F91"/>
</linearGradient>
<linearGradient id="paint4_linear_3_1526" x1="182.441" y1="59.6434" x2="180.423" y2="58.3281" gradientUnits="userSpaceOnUse">
<stop stop-color="#09005D"/>
<stop offset="1" stop-color="#1A0F91"/>
</linearGradient>
<linearGradient id="paint5_linear_3_1526" x1="195.31" y1="68.4296" x2="193.852" y2="66.5578" gradientUnits="userSpaceOnUse">
<stop stop-color="#09005D"/>
<stop offset="1" stop-color="#1A0F91"/>
</linearGradient>
<linearGradient id="paint6_linear_3_1526" x1="196.276" y1="54.8534" x2="105.714" y2="132.308" gradientUnits="userSpaceOnUse">
<stop stop-color="#E1473D"/>
<stop offset="1" stop-color="#E9605A"/>
</linearGradient>
<linearGradient id="paint7_linear_3_1526" x1="12.96" y1="83.5951" x2="49.6703" y2="83.5951" gradientUnits="userSpaceOnUse">
<stop stop-color="#DAE3FE"/>
<stop offset="1" stop-color="#E9EFFD"/>
</linearGradient>
<linearGradient id="paint8_linear_3_1526" x1="308.084" y1="254.19" x2="311.095" y2="254.19" gradientUnits="userSpaceOnUse">
<stop stop-color="#DAE3FE"/>
<stop offset="1" stop-color="#E9EFFD"/>
</linearGradient>
<linearGradient id="paint9_linear_3_1526" x1="220.131" y1="348.787" x2="340.64" y2="137.995" gradientUnits="userSpaceOnUse">
<stop stop-color="#4F52FF"/>
<stop offset="1" stop-color="#4042E2"/>
</linearGradient>
<linearGradient id="paint10_linear_3_1526" x1="237.856" y1="298.141" x2="248.066" y2="306.451" gradientUnits="userSpaceOnUse">
<stop stop-color="#E1473D"/>
<stop offset="1" stop-color="#E9605A"/>
</linearGradient>
<linearGradient id="paint11_linear_3_1526" x1="210.269" y1="287.438" x2="137.257" y2="205.791" gradientUnits="userSpaceOnUse">
<stop stop-color="#FF928E"/>
<stop offset="1" stop-color="#FE7062"/>
</linearGradient>
<linearGradient id="paint12_linear_3_1526" x1="166.563" y1="251.929" x2="-11.6488" y2="-4.78931" gradientUnits="userSpaceOnUse">
<stop stop-color="#FF928E"/>
<stop offset="1" stop-color="#FE7062"/>
</linearGradient>
<linearGradient id="paint13_linear_3_1526" x1="107.897" y1="195.598" x2="145.044" y2="195.598" gradientUnits="userSpaceOnUse">
<stop stop-color="#E1473D"/>
<stop offset="1" stop-color="#E9605A"/>
</linearGradient>
<linearGradient id="paint14_linear_3_1526" x1="129.309" y1="181.751" x2="114.755" y2="224.999" gradientUnits="userSpaceOnUse">
<stop stop-color="#FEBBBA"/>
<stop offset="1" stop-color="#FF928E"/>
</linearGradient>
<linearGradient id="paint15_linear_3_1526" x1="201.598" y1="207.806" x2="120.343" y2="95.1477" gradientUnits="userSpaceOnUse">
<stop stop-color="#FF928E"/>
<stop offset="1" stop-color="#FE7062"/>
</linearGradient>
<linearGradient id="paint16_linear_3_1526" x1="209.047" y1="222.437" x2="30.8361" y2="-34.2817" gradientUnits="userSpaceOnUse">
<stop stop-color="#FF928E"/>
<stop offset="1" stop-color="#FE7062"/>
</linearGradient>
<linearGradient id="paint17_linear_3_1526" x1="113.928" y1="106.361" x2="136.24" y2="106.361" gradientUnits="userSpaceOnUse">
<stop stop-color="#E1473D"/>
<stop offset="1" stop-color="#E9605A"/>
</linearGradient>
<linearGradient id="paint18_linear_3_1526" x1="120.901" y1="109.448" x2="144.888" y2="109.448" gradientUnits="userSpaceOnUse">
<stop stop-color="#E1473D"/>
<stop offset="1" stop-color="#E9605A"/>
</linearGradient>
<linearGradient id="paint19_linear_3_1526" x1="185.588" y1="325.56" x2="127.492" y2="276.492" gradientUnits="userSpaceOnUse">
<stop stop-color="#FF928E"/>
<stop offset="1" stop-color="#FE7062"/>
</linearGradient>
<linearGradient id="paint20_linear_3_1526" x1="127.562" y1="279.003" x2="-50.649" y2="22.2843" gradientUnits="userSpaceOnUse">
<stop stop-color="#FF928E"/>
<stop offset="1" stop-color="#FE7062"/>
</linearGradient>
<linearGradient id="paint21_linear_3_1526" x1="112.99" y1="271.962" x2="133.845" y2="271.962" gradientUnits="userSpaceOnUse">
<stop stop-color="#E1473D"/>
<stop offset="1" stop-color="#E9605A"/>
</linearGradient>
<linearGradient id="paint22_linear_3_1526" x1="59.3108" y1="308.156" x2="-1.75626" y2="374.58" gradientUnits="userSpaceOnUse">
<stop stop-color="#09005D"/>
<stop offset="1" stop-color="#1A0F91"/>
</linearGradient>
<linearGradient id="paint23_linear_3_1526" x1="39.4893" y1="313.09" x2="44.9136" y2="313.09" gradientUnits="userSpaceOnUse">
<stop stop-color="#FEBBBA"/>
<stop offset="1" stop-color="#FF928E"/>
</linearGradient>
<linearGradient id="paint24_linear_3_1526" x1="64.1191" y1="233.038" x2="12.1569" y2="303.466" gradientUnits="userSpaceOnUse">
<stop stop-color="#09005D"/>
<stop offset="1" stop-color="#1A0F91"/>
</linearGradient>
<linearGradient id="paint25_linear_3_1526" x1="45.6114" y1="295.562" x2="-15.4558" y2="361.986" gradientUnits="userSpaceOnUse">
<stop stop-color="#09005D"/>
<stop offset="1" stop-color="#1A0F91"/>
</linearGradient>
<linearGradient id="paint26_linear_3_1526" x1="19.9402" y1="312.812" x2="24.6236" y2="312.812" gradientUnits="userSpaceOnUse">
<stop stop-color="#FEBBBA"/>
<stop offset="1" stop-color="#FF928E"/>
</linearGradient>
<linearGradient id="paint27_linear_3_1526" x1="54.8582" y1="226.205" x2="2.89604" y2="296.633" gradientUnits="userSpaceOnUse">
<stop stop-color="#09005D"/>
<stop offset="1" stop-color="#1A0F91"/>
</linearGradient>
<linearGradient id="paint28_linear_3_1526" x1="15.2838" y1="206.678" x2="61.879" y2="206.678" gradientUnits="userSpaceOnUse">
<stop stop-color="#09005D"/>
<stop offset="1" stop-color="#1A0F91"/>
</linearGradient>
<linearGradient id="paint29_linear_3_1526" x1="83.3485" y1="166.932" x2="64.7532" y2="209.24" gradientUnits="userSpaceOnUse">
<stop stop-color="#FEBBBA"/>
<stop offset="1" stop-color="#FF928E"/>
</linearGradient>
<linearGradient id="paint30_linear_3_1526" x1="89.3888" y1="152.842" x2="97.1478" y2="140.912" gradientUnits="userSpaceOnUse">
<stop stop-color="#FEBBBA"/>
<stop offset="1" stop-color="#FF928E"/>
</linearGradient>
<linearGradient id="paint31_linear_3_1526" x1="1.47644" y1="193.126" x2="22.5565" y2="193.126" gradientUnits="userSpaceOnUse">
<stop stop-color="#DAE3FE"/>
<stop offset="1" stop-color="#E9EFFD"/>
</linearGradient>
<linearGradient id="paint32_linear_3_1526" x1="28.0997" y1="173.339" x2="41.9649" y2="173.339" gradientUnits="userSpaceOnUse">
<stop stop-color="#FEBBBA"/>
<stop offset="1" stop-color="#FF928E"/>
</linearGradient>
<linearGradient id="paint33_linear_3_1526" x1="12.6583" y1="224.905" x2="37.6112" y2="224.905" gradientUnits="userSpaceOnUse">
<stop stop-color="#DAE3FE"/>
<stop offset="1" stop-color="#E9EFFD"/>
</linearGradient>
<linearGradient id="paint34_linear_3_1526" x1="40.2894" y1="198.928" x2="65.3118" y2="180.92" gradientUnits="userSpaceOnUse">
<stop stop-color="#9CFFFB"/>
<stop offset="1" stop-color="#9BFFFA"/>
</linearGradient>
<linearGradient id="paint35_linear_3_1526" x1="1.18795" y1="210.424" x2="36.2573" y2="210.424" gradientUnits="userSpaceOnUse">
<stop stop-color="#DAE3FE"/>
<stop offset="1" stop-color="#E9EFFD"/>
</linearGradient>
<linearGradient id="paint36_linear_3_1526" x1="46.8671" y1="185.49" x2="66.1504" y2="265.838" gradientUnits="userSpaceOnUse">
<stop stop-color="#4F52FF"/>
<stop offset="1" stop-color="#4042E2"/>
</linearGradient>
<linearGradient id="paint37_linear_3_1526" x1="33.6535" y1="206.747" x2="44.5791" y2="206.747" gradientUnits="userSpaceOnUse">
<stop stop-color="#FEBBBA"/>
<stop offset="1" stop-color="#FF928E"/>
</linearGradient>
<linearGradient id="paint38_linear_3_1526" x1="40.4319" y1="153.414" x2="39.689" y2="185.308" gradientUnits="userSpaceOnUse">
<stop stop-color="#FEBBBA"/>
<stop offset="1" stop-color="#FF928E"/>
</linearGradient>
<linearGradient id="paint39_linear_3_1526" x1="32.0793" y1="166.959" x2="50.7285" y2="153.532" gradientUnits="userSpaceOnUse">
<stop stop-color="#09005D"/>
<stop offset="1" stop-color="#1A0F91"/>
</linearGradient>
<linearGradient id="paint40_linear_3_1526" x1="29.3415" y1="186.233" x2="32.6144" y2="164.37" gradientUnits="userSpaceOnUse">
<stop stop-color="#FEBBBA"/>
<stop offset="1" stop-color="#FF928E"/>
</linearGradient>
<linearGradient id="paint41_linear_3_1526" x1="293.673" y1="287.093" x2="213.962" y2="349.361" gradientUnits="userSpaceOnUse">
<stop stop-color="#09005D"/>
<stop offset="1" stop-color="#1A0F91"/>
</linearGradient>
<linearGradient id="paint42_linear_3_1526" x1="286.28" y1="302.568" x2="215.942" y2="279.181" gradientUnits="userSpaceOnUse">
<stop stop-color="#09005D"/>
<stop offset="1" stop-color="#1A0F91"/>
</linearGradient>
<linearGradient id="paint43_linear_3_1526" x1="259.17" y1="284.49" x2="276.166" y2="284.49" gradientUnits="userSpaceOnUse">
<stop stop-color="#FEBBBA"/>
<stop offset="1" stop-color="#FF928E"/>
</linearGradient>
<linearGradient id="paint44_linear_3_1526" x1="194.126" y1="287.093" x2="273.837" y2="349.361" gradientUnits="userSpaceOnUse">
<stop stop-color="#09005D"/>
<stop offset="1" stop-color="#1A0F91"/>
</linearGradient>
<linearGradient id="paint45_linear_3_1526" x1="201.519" y1="302.568" x2="271.857" y2="279.181" gradientUnits="userSpaceOnUse">
<stop stop-color="#09005D"/>
<stop offset="1" stop-color="#1A0F91"/>
</linearGradient>
<linearGradient id="paint46_linear_3_1526" x1="228.629" y1="284.49" x2="211.633" y2="284.49" gradientUnits="userSpaceOnUse">
<stop stop-color="#FEBBBA"/>
<stop offset="1" stop-color="#FF928E"/>
</linearGradient>
<linearGradient id="paint47_linear_3_1526" x1="185.908" y1="228.278" x2="301.891" y2="228.278" gradientUnits="userSpaceOnUse">
<stop stop-color="#09005D"/>
<stop offset="1" stop-color="#1A0F91"/>
</linearGradient>
<linearGradient id="paint48_linear_3_1526" x1="271.45" y1="69.3901" x2="239.651" y2="160.075" gradientUnits="userSpaceOnUse">
<stop stop-color="#E1473D"/>
<stop offset="1" stop-color="#E9605A"/>
</linearGradient>
<linearGradient id="paint49_linear_3_1526" x1="233.157" y1="105.231" x2="244.669" y2="67.2064" gradientUnits="userSpaceOnUse">
<stop stop-color="#FEBBBA"/>
<stop offset="1" stop-color="#FF928E"/>
</linearGradient>
<linearGradient id="paint50_linear_3_1526" x1="220.802" y1="77.8146" x2="226.703" y2="58.3248" gradientUnits="userSpaceOnUse">
<stop stop-color="#FEBBBA"/>
<stop offset="1" stop-color="#FF928E"/>
</linearGradient>
<linearGradient id="paint51_linear_3_1526" x1="266.266" y1="77.8146" x2="260.366" y2="58.3248" gradientUnits="userSpaceOnUse">
<stop stop-color="#FEBBBA"/>
<stop offset="1" stop-color="#FF928E"/>
</linearGradient>
<linearGradient id="paint52_linear_3_1526" x1="241.086" y1="85.7705" x2="249.063" y2="26.4814" gradientUnits="userSpaceOnUse">
<stop stop-color="#FEBBBA"/>
<stop offset="1" stop-color="#FF928E"/>
</linearGradient>
<linearGradient id="paint53_linear_3_1526" x1="242.883" y1="58.6602" x2="247.672" y2="23.0607" gradientUnits="userSpaceOnUse">
<stop stop-color="#09005D"/>
<stop offset="1" stop-color="#1A0F91"/>
</linearGradient>
<linearGradient id="paint54_linear_3_1526" x1="189.01" y1="91.0796" x2="149.756" y2="-158.573" gradientUnits="userSpaceOnUse">
<stop stop-color="#FEBBBA"/>
<stop offset="1" stop-color="#FF928E"/>
</linearGradient>
<linearGradient id="paint55_linear_3_1526" x1="313.274" y1="90.8213" x2="484.42" y2="-127.428" gradientUnits="userSpaceOnUse">
<stop stop-color="#FEBBBA"/>
<stop offset="1" stop-color="#FF928E"/>
</linearGradient>
<linearGradient id="paint56_linear_3_1526" x1="250.269" y1="116.359" x2="230.845" y2="190.41" gradientUnits="userSpaceOnUse">
<stop stop-color="#233894"/>
<stop offset="0.9964" stop-color="#DD397A"/>
</linearGradient>
</defs>
</svg>
