<svg width="388" height="357" viewBox="0 0 388 357" fill="none" xmlns="http://www.w3.org/2000/svg">
<path d="M193.889 356.991C300.971 356.991 387.778 351.922 387.778 345.668C387.778 339.415 300.971 334.345 193.889 334.345C86.8071 334.345 0 339.415 0 345.668C0 351.922 86.8071 356.991 193.889 356.991Z" fill="#F5F5F5"/>
<path d="M293.135 92.862L283.216 88.84C283.216 88.84 270.126 112.713 266.377 113.918C261.275 115.558 250.724 120.117 244.454 120.971C243.609 121.959 242.215 125.075 242.348 126.211C250.76 129.016 269.24 125.291 273.196 122.354C282.214 115.655 293.135 92.862 293.135 92.862Z" fill="#E58A7B"/>
<path d="M296.189 87.445C298.034 94.284 288.015 108.021 288.015 108.021L274.853 100.638C274.853 100.638 277.307 94.991 280.311 89.24C285.162 79.953 294.082 79.64 296.189 87.445Z" fill="#407BFF"/>
<path opacity="0.2" d="M296.189 87.445C298.034 94.284 288.015 108.021 288.015 108.021L274.853 100.638C274.853 100.638 277.307 94.991 280.311 89.24C285.162 79.953 294.082 79.64 296.189 87.445Z" fill="black"/>
<path opacity="0.2" d="M280.101 103.578L285.27 106.476L286.174 90.61C283.174 92.922 281.046 99.879 280.101 103.578Z" fill="black"/>
<path d="M287.551 82.293C287.551 82.293 277.332 105.029 283.29 147.37C295.424 147.37 317.656 147.37 323.56 147.37C324.2 141.188 322.084 111.032 329.754 81.905C329.754 81.905 322.932 80.52 316.373 80.203C311.242 79.955 303.802 79.791 299.254 80.204C293.258 80.748 287.551 82.293 287.551 82.293Z" fill="#407BFF"/>
<path opacity="0.2" d="M287.551 82.293C287.551 82.293 277.332 105.029 283.29 147.37C295.424 147.37 317.656 147.37 323.56 147.37C324.2 141.188 322.084 111.032 329.754 81.905C329.754 81.905 322.932 80.52 316.373 80.203C311.242 79.955 303.802 79.791 299.254 80.204C293.258 80.748 287.551 82.293 287.551 82.293Z" fill="black"/>
<path d="M278.212 346.572C278.149 347.646 293.417 348.516 312.314 348.516C331.211 348.516 346.581 347.646 346.644 346.572C346.707 345.498 331.439 344.628 312.542 344.628C293.645 344.627 278.275 345.498 278.212 346.572Z" fill="#E8ECF1"/>
<path d="M306.03 319.588L298.864 322.349L305.009 338.298L312.175 335.537L306.03 319.588Z" fill="#E58A7B"/>
<path d="M336.94 338.884H329.411L326.649 321.448H334.178L336.94 338.884Z" fill="#E58A7B"/>
<path d="M328.927 338.012H337.386C337.694 338.012 337.948 338.226 337.997 338.526L339.092 345.218C339.206 345.912 338.622 346.569 337.911 346.557C334.961 346.506 333.536 346.333 329.817 346.333C327.529 346.333 322.8 346.571 319.639 346.571C316.548 346.571 316.249 343.446 317.56 343.163C323.435 341.894 325.723 340.144 327.678 338.475C328.03 338.174 328.477 338.012 328.927 338.012Z" fill="#263238"/>
<path d="M303.861 335.376L311.882 333.044C312.182 332.957 312.491 333.086 312.624 333.355L315.596 339.351C315.904 339.972 315.54 340.752 314.844 340.942C311.939 341.735 309.986 342.231 306.349 343.288C303.836 344.018 301.28 345.208 298.797 346C297.078 346.548 293.041 346.57 290.95 346.57C287.859 346.57 287.17 343.311 288.495 343.162C291.848 342.786 292.298 342.96 294.149 342.032C297.209 340.497 299.576 339.226 302.225 336.451C302.687 335.969 303.228 335.56 303.861 335.376Z" fill="#263238"/>
<path d="M245.722 120.899L237.437 117.413L234.026 126.591C234.026 126.591 238.807 127.458 244.267 126.591L245.722 120.899Z" fill="#E58A7B"/>
<path d="M231.28 117.188L231.061 123.295L234.026 126.591L237.437 117.413L231.28 117.188Z" fill="#E58A7B"/>
<path d="M306.057 319.57L298.89 322.336L302.062 330.556L309.23 327.789L306.057 319.57Z" fill="#CF6F64"/>
<path d="M334.18 321.453H326.648L328.076 330.44H335.608L334.18 321.453Z" fill="#CF6F64"/>
<path opacity="0.2" d="M282.012 135.917C282.156 137.726 282.331 139.575 282.546 141.476L312.491 131.755C317.167 130.357 321.236 127.418 324.011 123.401C324.124 120.729 324.278 117.924 324.504 114.995C324.607 113.567 324.73 112.107 324.864 110.628C325.008 109.087 325.172 107.514 325.357 105.932L282.012 135.917Z" fill="black"/>
<path d="M291.789 103.118L290.769 102.997C291.363 98.007 295.088 94.063 299.023 94.157L298.993 95.185C295.596 95.086 292.323 98.643 291.789 103.118Z" fill="white"/>
<path d="M297.117 112.352C297.061 112.352 297.005 112.351 296.948 112.35L296.978 111.322C300.417 111.448 303.648 107.863 304.182 103.388L305.202 103.51C304.616 108.429 301.009 112.352 297.117 112.352Z" fill="white"/>
<path d="M315.807 60.927C314.404 66.435 312.735 76.527 316.373 80.202C316.373 80.202 313.832 85.789 303.597 85.789C294.244 85.789 299.254 80.202 299.254 80.202C305.482 78.735 305.591 74.178 304.772 69.898L315.807 60.927Z" fill="#E58A7B"/>
<path d="M311.308 64.588L304.777 69.895C304.974 70.908 305.114 71.935 305.127 72.933C307.036 74.834 310.868 70.018 311.261 67.561C311.456 66.337 311.474 65.159 311.308 64.588Z" fill="#CF6F64"/>
<path d="M293.553 60.859C294.51 62.573 296.199 63.64 297.795 63.995C300.196 64.53 301.403 62.321 300.741 60.098C300.145 58.097 298.178 55.408 295.765 55.869C293.388 56.324 292.458 58.899 293.553 60.859Z" fill="#CF6F64"/>
<path d="M297.515 43.23C293.775 44.944 292.457 59.801 297.159 61.998C301.861 64.194 304.599 39.985 297.515 43.23Z" fill="#263238"/>
<path d="M316.948 52.638C316.053 60.096 315.906 64.485 311.915 68.313C305.911 74.071 296.905 70.656 295.562 63.211C294.353 56.51 296.02 45.439 303.495 42.471C310.859 39.547 317.843 45.18 316.948 52.638Z" fill="#E58A7B"/>
<path d="M304.663 47.095C310.195 45.68 314.267 44.716 312.814 49.334C310.878 55.486 308.556 61.446 311.671 61.724C313.565 61.893 321.966 58.328 320.899 54.724C319.97 51.584 323.875 50.737 324.595 49.136C327.188 43.37 319.779 44.119 321.097 40.63C322.381 37.233 315.128 31.492 311.109 34.297C304.604 38.838 293.424 38.773 299.302 31.325C303.511 25.991 296.001 27.086 296.001 27.086C296.001 27.086 300.537 29.777 292.902 33.937C284.808 38.345 292.217 50.279 304.663 47.095Z" fill="#263238"/>
<path d="M319.835 60.859C318.676 62.573 316.863 63.64 315.225 63.995C312.761 64.53 311.814 62.321 312.736 60.098C313.567 58.097 315.849 55.408 318.208 55.869C320.531 56.324 321.159 58.899 319.835 60.859Z" fill="#E58A7B"/>
<path d="M283.29 147.37C283.29 147.37 276.531 207.867 276.003 230.827C275.455 254.709 298.911 329.221 298.911 329.221L310.922 324.177C310.922 324.177 296.937 256.104 298.88 232.649C300.998 207.08 309.761 147.369 309.761 147.369H283.29V147.37Z" fill="#407BFF"/>
<path opacity="0.2" d="M300.088 163.981C294.703 175.161 298.331 197.265 301.249 210.368C302.359 201.119 303.674 191.08 304.928 181.79C304.805 167.506 303.695 156.48 300.088 163.981Z" fill="black"/>
<path d="M310.379 320.256C310.435 320.233 311.803 324.084 311.803 324.084L297.959 329.897L295.778 325.842L310.379 320.256Z" fill="#407BFF"/>
<path d="M297.575 147.37C297.575 147.37 302.746 204.908 306.173 226.464C309.926 250.069 324.668 328.7 324.668 328.7H338.458C338.458 328.7 330.195 251.975 328.634 228.604C326.94 203.238 323.559 147.37 323.559 147.37H297.575Z" fill="#407BFF"/>
<path d="M338.669 325.107C338.728 325.107 339.13 328.961 339.13 328.961H323.973L322.891 324.537L338.669 325.107Z" fill="#407BFF"/>
<path opacity="0.2" d="M333.386 320.552C333.321 320.552 333.266 320.503 333.259 320.438C333.184 319.74 325.733 250.471 324.331 229.473C322.81 206.686 319.751 156.161 319.72 155.653C319.716 155.582 319.77 155.521 319.84 155.517C319.843 155.517 319.846 155.517 319.848 155.517C319.915 155.517 319.973 155.57 319.977 155.638C320.007 156.145 323.066 206.67 324.588 229.455C325.989 250.449 333.439 319.713 333.514 320.41C333.522 320.481 333.471 320.544 333.401 320.551C333.395 320.552 333.39 320.552 333.386 320.552Z" fill="black"/>
<path d="M305.513 54.723C305.477 55.33 305.127 55.823 304.73 55.823C304.333 55.823 304.04 55.331 304.076 54.723C304.111 54.116 304.462 53.623 304.859 53.623C305.256 53.623 305.549 54.116 305.513 54.723Z" fill="#263238"/>
<path d="M298.649 54.723C298.613 55.33 298.263 55.823 297.866 55.823C297.469 55.823 297.176 55.331 297.212 54.723C297.248 54.116 297.598 53.623 297.995 53.623C298.392 53.623 298.685 54.116 298.649 54.723Z" fill="#263238"/>
<path d="M300.813 55.025C300.813 55.025 299.227 58.529 297.607 60.219C298.623 61.222 300.476 60.763 300.476 60.763L300.813 55.025Z" fill="#DF5753"/>
<path d="M300.988 63.311C300.89 63.311 300.814 63.231 300.82 63.133C300.826 63.035 300.911 62.955 301.009 62.955C303.675 62.955 305.028 61.093 305.042 61.074C305.102 60.992 305.214 60.968 305.292 61.022C305.371 61.076 305.388 61.186 305.329 61.269C305.269 61.351 303.845 63.311 300.988 63.311Z" fill="#263238"/>
<path d="M306.734 52.876C306.631 52.916 306.515 52.91 306.419 52.849C305.107 52.023 303.884 52.577 303.872 52.584C303.704 52.67 303.481 52.595 303.406 52.417C303.331 52.239 303.419 52.026 303.601 51.941C303.666 51.91 305.197 51.215 306.825 52.24C306.988 52.343 307.028 52.562 306.916 52.73C306.87 52.798 306.805 52.848 306.734 52.876Z" fill="#263238"/>
<path d="M295.995 50.881C295.946 50.867 295.898 50.842 295.859 50.804C295.719 50.674 295.719 50.449 295.859 50.301C297.255 48.826 298.873 49.051 298.941 49.061C299.131 49.082 299.258 49.271 299.217 49.466C299.176 49.66 298.988 49.794 298.796 49.766C298.742 49.758 297.479 49.597 296.364 50.774C296.265 50.88 296.12 50.917 295.995 50.881Z" fill="#263238"/>
<path d="M333.619 91.747L323.216 88.978C323.216 88.978 313.016 114.086 309.413 115.725C304.51 117.956 292.096 125.672 286.82 129.393C286.527 130.637 286.757 133.953 287.421 134.856C296.392 133.226 313.651 126.591 317.25 123.218C325.456 115.529 333.619 91.747 333.619 91.747Z" fill="#E58A7B"/>
<path d="M326.36 339.327C325.787 339.327 325.257 339.229 324.933 338.944C324.676 338.717 324.571 338.399 324.62 338.001C324.656 337.704 324.821 337.563 324.955 337.497C325.804 337.071 328.153 338.561 328.418 338.733C328.476 338.772 328.504 338.843 328.489 338.914C328.473 338.984 328.417 339.041 328.346 339.057C327.815 339.183 327.056 339.327 326.36 339.327ZM325.333 337.769C325.24 337.769 325.161 337.783 325.099 337.814C325.05 337.839 324.991 337.885 324.975 338.023C324.94 338.307 325.006 338.519 325.179 338.671C325.57 339.018 326.55 339.064 327.844 338.806C327.022 338.314 325.91 337.769 325.333 337.769Z" fill="#407BFF"/>
<path d="M328.304 339.062C328.275 339.062 328.246 339.055 328.22 339.041C327.465 338.617 326.056 336.968 326.265 336.128C326.302 335.976 326.43 335.713 326.86 335.661C327.141 335.626 327.39 335.704 327.606 335.889C328.439 336.604 328.491 338.777 328.493 338.869C328.495 338.934 328.46 338.997 328.403 339.032C328.372 339.052 328.338 339.062 328.304 339.062ZM326.964 336.01C326.938 336.01 326.911 336.013 326.883 336.016C326.65 336.044 326.623 336.151 326.612 336.196C326.488 336.692 327.375 337.939 328.115 338.527C328.064 337.892 327.898 336.625 327.365 336.167C327.242 336.061 327.111 336.01 326.964 336.01Z" fill="#407BFF"/>
<path d="M299.806 338.083C299.07 338.261 298.368 338.314 297.92 338.071C297.635 337.917 297.471 337.659 297.433 337.308C297.41 337.098 297.481 336.915 297.636 336.778C298.442 336.061 301.704 336.832 302.074 336.922C302.146 336.94 302.197 337.002 302.2 337.078C302.203 337.154 302.159 337.225 302.088 337.258C301.483 337.532 300.623 337.885 299.806 338.083ZM298.18 336.895C298.043 336.928 297.935 336.975 297.864 337.038C297.801 337.094 297.778 337.158 297.788 337.25C297.814 337.488 297.918 337.654 298.104 337.756C298.635 338.045 299.868 337.816 301.455 337.152C300.34 336.918 298.882 336.724 298.18 336.895Z" fill="#407BFF"/>
<path d="M302.055 337.268C302.03 337.274 302.005 337.274 301.98 337.271C301.011 337.091 298.941 335.941 298.922 335.08C298.917 334.879 299.012 334.603 299.486 334.439C299.83 334.31 300.184 334.336 300.516 334.499C301.603 335.035 302.171 336.955 302.195 337.036C302.212 337.096 302.196 337.162 302.152 337.211C302.125 337.24 302.091 337.259 302.055 337.268ZM299.69 334.742C299.656 334.75 299.621 334.762 299.585 334.773C299.275 334.882 299.278 335.009 299.278 335.051C299.29 335.567 300.727 336.517 301.742 336.837C301.54 336.285 301.054 335.171 300.342 334.82C300.128 334.714 299.913 334.688 299.69 334.742Z" fill="#407BFF"/>
<path d="M287.667 128.802L277.239 133.602L276.029 136.544L279.883 139.137C279.883 139.137 287.075 138.354 289.124 133.733L287.667 128.802Z" fill="#E58A7B"/>
<path d="M288.111 135.026C287.459 131.152 286.185 129.385 286.173 129.368L287.817 128.135C287.881 128.22 289.392 130.26 290.138 134.685L288.111 135.026Z" fill="#263238"/>
<path d="M289.887 130.221C290.225 131.058 289.682 132.066 288.673 132.474C287.664 132.882 286.573 132.534 286.235 131.697C285.897 130.86 286.44 129.852 287.449 129.444C288.457 129.037 289.549 129.384 289.887 130.221Z" fill="#263238"/>
<path d="M270.193 137.478L271.578 138.881L280.935 134.879L277.239 133.603L270.193 137.478Z" fill="#E58A7B"/>
<path opacity="0.2" d="M310.379 320.256C310.435 320.233 311.803 324.084 311.803 324.084L297.959 329.897L295.778 325.842L310.379 320.256Z" fill="black"/>
<path opacity="0.2" d="M338.669 325.107C338.728 325.107 339.13 328.961 339.13 328.961H323.973L322.891 324.537L338.669 325.107Z" fill="black"/>
<path d="M336.33 88.869C339.081 97.736 328.37 109.849 328.37 109.849L313.522 103.789C313.522 103.789 315.614 97.347 319.595 88.716C324.121 78.907 333.553 79.92 336.33 88.869Z" fill="#407BFF"/>
<path opacity="0.2" d="M336.33 88.869C339.081 97.736 328.37 109.849 328.37 109.849L313.522 103.789C313.522 103.789 315.614 97.347 319.595 88.716C324.121 78.907 333.553 79.92 336.33 88.869Z" fill="black"/>
<path d="M188.763 0H182.376V1.028H188.763V0Z" fill="#407BFF"/>
<path d="M271.492 40.7605L270.719 57.9193L271.745 57.9655L272.518 40.8067L271.492 40.7605Z" fill="#407BFF"/>
<path d="M269.502 4.62399H151.503L140.518 250.343H258.517L269.502 4.62399Z" fill="#407BFF"/>
<path opacity="0.56" d="M265.979 7.996H147.98L136.996 253.715H254.995L265.979 7.996Z" fill="#FAFAFA"/>
<path opacity="0.07" d="M262.456 11.368H144.458L133.473 257.087H251.472L262.456 11.368Z" fill="#407BFF"/>
<path d="M249.025 118.536H148.308L147.467 137.342H248.185L249.025 118.536Z" fill="white"/>
<path d="M203.704 104.82H148.921L148.545 113.234H203.327L203.704 104.82Z" fill="#407BFF"/>
<path d="M246.757 169.279H146.039L145.198 188.085H245.916L246.757 169.279Z" fill="white"/>
<path opacity="0.47" d="M228.287 213.466H160.558L159.551 236.005H227.279L228.287 213.466Z" fill="#407BFF"/>
<path d="M223.757 239.496H156.029C155.997 239.496 155.966 239.482 155.943 239.459C155.921 239.436 155.909 239.404 155.911 239.372L156.919 216.833C156.921 216.769 156.974 216.719 157.037 216.719H224.765C224.797 216.719 224.828 216.733 224.851 216.756C224.873 216.779 224.885 216.811 224.883 216.843L223.875 239.382C223.873 239.446 223.82 239.496 223.757 239.496ZM156.153 239.258H223.643L224.639 216.957H157.149L156.153 239.258Z" fill="white"/>
<path d="M191.867 155.564H146.652L146.276 163.978H191.49L191.867 155.564Z" fill="#407BFF"/>
<path d="M226.995 57.809C226.743 63.44 224.702 68.64 221.43 72.864C216.489 79.266 208.75 83.428 200.231 83.428C191.712 83.428 184.355 79.266 179.987 72.864C177.093 68.64 175.517 63.441 175.769 57.809C176.402 43.659 188.382 32.191 202.522 32.191C216.672 32.19 227.627 43.659 226.995 57.809Z" fill="white"/>
<path d="M229.404 37.553C229.337 39.049 228.795 40.431 227.925 41.553C226.612 43.254 224.556 44.36 222.292 44.36C220.028 44.36 218.074 43.254 216.913 41.553C216.144 40.431 215.725 39.049 215.792 37.553C215.96 33.793 219.144 30.746 222.901 30.746C226.661 30.746 229.572 33.793 229.404 37.553Z" fill="#407BFF"/>
<path d="M159.154 127.939C159.08 129.603 157.67 130.952 156.006 130.952C154.342 130.952 153.053 129.603 153.127 127.939C153.201 126.275 154.611 124.926 156.275 124.926C157.94 124.925 159.229 126.275 159.154 127.939Z" fill="#263238"/>
<path d="M172.641 127.939C172.567 129.603 171.157 130.952 169.493 130.952C167.829 130.952 166.54 129.603 166.614 127.939C166.688 126.275 168.098 124.926 169.762 124.926C171.426 124.926 172.716 126.275 172.641 127.939Z" fill="#263238"/>
<path d="M186.129 127.939C186.055 129.603 184.645 130.952 182.981 130.952C181.317 130.952 180.028 129.603 180.102 127.939C180.176 126.275 181.586 124.926 183.25 124.926C184.914 124.925 186.203 126.275 186.129 127.939Z" fill="#263238"/>
<path d="M156.886 178.682C156.812 180.346 155.402 181.695 153.738 181.695C152.074 181.695 150.785 180.346 150.859 178.682C150.933 177.018 152.343 175.668 154.007 175.668C155.671 175.669 156.96 177.018 156.886 178.682Z" fill="#263238"/>
<path d="M170.373 178.682C170.299 180.346 168.889 181.695 167.225 181.695C165.561 181.695 164.272 180.346 164.346 178.682C164.42 177.018 165.83 175.668 167.494 175.668C169.159 175.669 170.447 177.018 170.373 178.682Z" fill="#263238"/>
<path d="M183.86 178.682C183.786 180.346 182.376 181.695 180.712 181.695C179.048 181.695 177.759 180.346 177.833 178.682C177.907 177.018 179.317 175.668 180.981 175.668C182.645 175.668 183.935 177.018 183.86 178.682Z" fill="#263238"/>
<path d="M197.348 178.682C197.274 180.346 195.864 181.695 194.2 181.695C192.536 181.695 191.247 180.346 191.321 178.682C191.395 177.018 192.805 175.668 194.469 175.668C196.133 175.669 197.422 177.018 197.348 178.682Z" fill="#263238"/>
<path d="M210.835 178.682C210.761 180.346 209.351 181.695 207.687 181.695C206.023 181.695 204.734 180.346 204.808 178.682C204.882 177.018 206.292 175.668 207.956 175.668C209.62 175.669 210.909 177.018 210.835 178.682Z" fill="#263238"/>
<path d="M212.125 49.246C211.869 54.968 207.023 59.607 201.3 59.607C195.578 59.607 191.146 54.968 191.402 49.246C191.658 43.523 196.504 38.885 202.227 38.885C207.949 38.885 212.381 43.524 212.125 49.246Z" fill="#407BFF"/>
<path d="M221.43 72.863C216.489 79.265 208.75 83.427 200.231 83.427C191.712 83.427 184.355 79.265 179.987 72.863C184.848 68.023 192.542 64.879 201.061 64.879C209.589 64.879 217.002 68.023 221.43 72.863Z" fill="#407BFF"/>
<path opacity="0.1" d="M212.125 49.246C211.869 54.968 207.023 59.607 201.3 59.607C195.578 59.607 191.146 54.968 191.402 49.246C191.658 43.523 196.504 38.885 202.227 38.885C207.949 38.885 212.381 43.524 212.125 49.246Z" fill="white"/>
<path opacity="0.1" d="M221.43 72.863C216.489 79.265 208.75 83.427 200.231 83.427C191.712 83.427 184.355 79.265 179.987 72.863C184.848 68.023 192.542 64.879 201.061 64.879C209.589 64.879 217.002 68.023 221.43 72.863Z" fill="white"/>
<path d="M74.296 141.873C73.349 143.95 72.352 146.235 71.477 148.464C70.595 150.714 69.715 152.966 68.948 155.25C67.458 159.818 66.061 164.428 65.373 169.051L65.145 170.523C65.127 170.7 65.14 170.952 65.218 171.268C65.364 171.903 65.76 172.753 66.317 173.587C67.443 175.274 69.039 176.982 70.76 178.568C72.477 180.179 74.342 181.72 76.28 183.183C78.199 184.659 80.223 186.104 82.203 187.458L80.339 190.967C75.581 188.887 71.15 186.4 66.858 183.279C64.748 181.671 62.664 179.94 60.818 177.6C59.908 176.42 59.013 175.087 58.427 173.327C58.143 172.449 57.945 171.456 57.944 170.382C57.951 170.135 57.964 169.788 57.981 169.622L58.03 169.125L58.13 168.131C58.674 162.83 59.848 157.735 61.395 152.793C62.175 150.325 63.007 147.882 63.957 145.485C64.927 143.072 65.884 140.756 67.097 138.327L74.296 141.873Z" fill="#E58A7B"/>
<path d="M80.803 186.862L87.869 183.277L86.044 191.043C86.044 191.043 81.192 192.398 78.935 190.044L80.803 186.862Z" fill="#E58A7B"/>
<path d="M94.34 184.552L92.46 190.972L86.043 191.044L87.869 183.277L94.34 184.552Z" fill="#E58A7B"/>
<path d="M104.321 104.431C104.321 104.431 104.934 106.685 105.906 108.384C105.071 109.164 104.321 108.893 104.321 108.893V104.431Z" fill="#DF5753"/>
<path d="M104.112 104.49C104.526 104.49 104.861 103.977 104.861 103.344C104.861 102.711 104.526 102.198 104.112 102.198C103.698 102.198 103.363 102.711 103.363 103.344C103.363 103.977 103.698 104.49 104.112 104.49Z" fill="#263238"/>
<path d="M103.929 102.233L105.449 101.795C105.449 101.795 104.669 102.983 103.929 102.233Z" fill="#263238"/>
<path d="M84.786 111.766C85.699 116.421 86.61 124.951 83.352 128.057C83.352 128.057 84.625 132.779 93.275 132.779C102.787 132.779 97.821 128.057 97.821 128.057C92.63 126.817 92.764 122.966 93.668 119.349L84.786 111.766Z" fill="#E58A7B"/>
<path d="M82.262 101.172C82.739 108.944 82.775 112.243 86.701 116.232C92.605 122.232 102.046 119.946 103.901 112.189C105.57 105.206 104.509 93.67 96.902 90.577C89.406 87.53 81.784 93.4 82.262 101.172Z" fill="#E58A7B"/>
<path d="M83.028 92.378C79.131 93.799 73.932 92.742 75.972 104.771C78.132 117.508 74.807 121.698 74.807 121.698C74.807 121.698 89.599 124.849 104.699 121.51C104.699 121.51 100.089 113.448 101.383 107.565C103.033 100.062 101.725 97.289 101.725 97.289C101.725 97.289 88.508 90.38 83.028 92.378Z" fill="#263238"/>
<path d="M99.529 105.222C99.513 106.762 100.053 108.313 100.753 109.39C101.806 111.011 103.056 110.351 103.369 108.668C103.651 107.154 103.442 104.486 102.093 103.451C100.765 102.433 99.548 103.462 99.529 105.222Z" fill="#E58A7B"/>
<path d="M79.643 93.739C78.518 90.594 83.862 85.757 95.16 87.769C106.458 89.781 106.954 99.177 106.954 99.177L104.668 96.464L104.771 99.321L93.16 101.552L79.643 93.739Z" fill="#263238"/>
<path d="M80.601 128.586C80.445 127.625 81.091 126.72 82.051 126.562C85.569 125.981 93.565 124.805 97.59 125.362C100.58 125.776 101.371 127.522 101.497 128.95C101.591 130.009 100.715 130.902 99.653 130.854L82.264 130.068C81.429 130.03 80.734 129.412 80.601 128.586Z" fill="#407BFF"/>
<path opacity="0.6" d="M80.601 128.586C80.445 127.625 81.091 126.72 82.051 126.562C85.569 125.981 93.565 124.805 97.59 125.362C100.58 125.776 101.371 127.522 101.497 128.95C101.591 130.009 100.715 130.902 99.653 130.854L82.264 130.068C81.429 130.03 80.734 129.412 80.601 128.586Z" fill="black"/>
<path d="M90.649 303.292L97.094 307.766L107.886 293.14L101.441 288.666L90.649 303.292Z" fill="#E58A7B"/>
<path d="M75.604 302.996L82.422 306.879L91.973 291.41L85.156 287.528L75.604 302.996Z" fill="#E58A7B"/>
<path d="M107.881 293.143L102.32 300.683L95.873 296.207L101.434 288.667L107.881 293.143Z" fill="#CF6F64"/>
<path d="M85.152 287.531L91.972 291.415L87.045 299.387L80.225 295.503L85.152 287.531Z" fill="#CF6F64"/>
<path d="M96.087 177.418C96.087 177.418 121.267 209.153 116.543 239.5C112.727 264.012 90.63 297.203 90.63 297.203L80.24 292.039C80.24 292.039 91.529 269.981 98.942 246.598C102.051 236.792 100.726 225.989 94.914 217.501C82.159 198.871 61.724 209.956 75.47 177.419L96.087 177.418Z" fill="#407BFF"/>
<path opacity="0.6" d="M96.087 177.418C96.087 177.418 121.267 209.153 116.543 239.5C112.727 264.012 90.63 297.203 90.63 297.203L80.24 292.039C80.24 292.039 91.529 269.981 98.942 246.598C102.051 236.792 100.726 225.989 94.914 217.501C82.159 198.871 61.724 209.956 75.47 177.419L96.087 177.418Z" fill="black"/>
<path opacity="0.4" d="M108.438 197.81L104.78 194.172C104.78 194.46 111.871 238.226 113.864 250.526C115.066 246.755 115.991 243.035 116.546 239.5C118.858 224.641 113.997 209.443 108.438 197.81Z" fill="black"/>
<path d="M107.333 177.418C107.333 177.418 137.652 217.298 138.505 241.213C139.22 261.251 105.48 299.958 105.48 299.958L95.685 293.621C95.685 293.621 115.414 266.104 120.381 243.61C118.487 221.345 77.839 177.417 77.839 177.417H107.333V177.418Z" fill="#407BFF"/>
<path opacity="0.6" d="M107.333 177.418C107.333 177.418 137.652 217.298 138.505 241.213C139.22 261.251 105.48 299.958 105.48 299.958L95.685 293.621C95.685 293.621 115.414 266.104 120.381 243.61C118.487 221.345 77.839 177.417 77.839 177.417H107.333V177.418Z" fill="black"/>
<path d="M69.822 129.84C66.575 130.606 63.472 142.393 63.472 142.393L76.135 150.846C76.135 150.846 80.355 141.53 78.882 137.449C77.347 133.199 73.922 128.873 69.822 129.84Z" fill="#407BFF"/>
<path opacity="0.2" d="M72.3 137.424L71.415 147.693L76.129 150.848C76.129 150.848 78.338 145.967 78.996 141.713L72.3 137.424Z" fill="black"/>
<path d="M111.082 130.067C111.082 130.067 114.819 131.383 107.333 177.418C94.689 177.418 81.622 177.418 75.47 177.418C76.005 164.45 76.02 156.453 69.822 129.84C69.822 129.84 76.498 128.388 83.352 128.057C88.714 127.799 93.107 127.627 97.821 128.058C104.035 128.625 111.082 130.067 111.082 130.067Z" fill="#407BFF"/>
<path d="M114.318 137.377C115.04 139.372 115.804 141.53 116.599 143.602C117.362 145.705 118.154 147.804 118.971 149.894L121.423 156.175L122.043 157.745L122.354 158.53L122.51 158.922C122.537 158.992 122.532 158.986 122.522 158.979C122.479 158.96 122.442 158.762 121.822 158.355C121.518 158.166 121.008 157.984 120.516 157.974C120.021 157.956 119.629 158.077 119.404 158.175C118.953 158.39 118.946 158.483 118.956 158.468C118.985 158.453 119.078 158.364 119.18 158.241C119.617 157.716 120.145 156.811 120.608 155.911C121.081 154.994 121.528 154.014 121.973 153.02C122.858 151.027 123.663 148.947 124.482 146.864C125.292 144.775 126.055 142.655 126.811 140.529L129.087 134.147L132.94 135.118C132.178 139.683 131.192 144.154 130.017 148.641C129.443 150.889 128.779 153.118 128.02 155.368C127.642 156.495 127.219 157.619 126.733 158.765C126.228 159.92 125.727 161.059 124.833 162.382C124.598 162.717 124.332 163.071 123.961 163.461C123.569 163.845 123.116 164.309 122.139 164.748C121.653 164.957 120.977 165.142 120.197 165.111C119.42 165.089 118.632 164.813 118.087 164.475C116.979 163.767 116.596 163.093 116.268 162.587C116.116 162.333 115.986 162.071 115.896 161.882L115.706 161.494L115.326 160.718L114.57 159.165C113.582 157.084 112.614 154.992 111.697 152.877C110.789 150.757 109.904 148.625 109.046 146.477C108.225 144.296 107.413 142.183 106.69 139.863L114.318 137.377Z" fill="#E58A7B"/>
<path d="M111.082 130.067C114.912 130.979 119.215 142.295 119.215 142.295L107.833 151.994C107.833 151.994 100.456 139.655 101.949 135.581C103.503 131.338 106.079 128.875 111.082 130.067Z" fill="#407BFF"/>
<path d="M130.865 130.619L134.86 127.278L137.639 131.607L135.592 135.222C135.592 135.222 132.332 138.206 129.446 136.688C128.514 134.575 129.093 132.101 130.865 130.619Z" fill="#E58A7B"/>
<path d="M142.111 127.288L141.812 128.377L135.483 129.44L134.859 127.278L142.111 127.288Z" fill="#E58A7B"/>
<path d="M106.291 300.483L94.872 293.097L96.917 289.541L109.75 297.43L106.291 300.483Z" fill="#407BFF"/>
<path d="M86.872 306.356C85.964 306.356 84.769 305.78 84.045 305.378C83.98 305.342 83.943 305.271 83.951 305.196C83.958 305.123 84.009 305.061 84.079 305.037C84.387 304.94 87.096 304.11 87.863 304.754C87.984 304.856 88.119 305.044 88.076 305.357C88.02 305.772 87.83 306.065 87.512 306.223C87.328 306.315 87.11 306.356 86.872 306.356ZM84.623 305.265C85.865 305.897 86.865 306.13 87.346 305.891C87.551 305.789 87.669 305.598 87.709 305.307C87.73 305.15 87.675 305.081 87.624 305.039C87.221 304.7 85.719 304.964 84.623 305.265Z" fill="#263238"/>
<path d="M84.136 305.4C84.086 305.4 84.038 305.38 84.003 305.344C83.957 305.296 83.94 305.228 83.958 305.164C83.984 305.072 84.608 302.9 85.635 302.405C85.909 302.274 86.187 302.267 86.459 302.38C86.891 302.562 86.934 302.878 86.919 303.049C86.849 303.948 85.016 305.19 84.18 305.394C84.166 305.398 84.151 305.4 84.136 305.4ZM86.074 302.673C85.982 302.673 85.889 302.696 85.795 302.741C85.183 303.036 84.669 304.208 84.423 304.921C85.303 304.551 86.504 303.569 86.547 303.021C86.554 302.932 86.534 302.816 86.313 302.724C86.234 302.69 86.154 302.673 86.074 302.673Z" fill="#263238"/>
<path d="M101.157 310.677C100.031 310.677 98.461 309.23 97.602 308.341C97.547 308.284 97.534 308.199 97.569 308.128C97.605 308.058 97.695 308.018 97.759 308.027C98.155 308.078 101.633 308.548 102.124 309.53C102.218 309.72 102.21 309.922 102.101 310.115C101.917 310.439 101.65 310.625 101.309 310.668C101.26 310.674 101.209 310.677 101.157 310.677ZM98.26 308.475C99.524 309.703 100.628 310.383 101.263 310.298C101.485 310.27 101.653 310.151 101.778 309.931C101.826 309.847 101.83 309.773 101.791 309.696C101.524 309.162 99.667 308.701 98.26 308.475Z" fill="#263238"/>
<path d="M98.37 308.444C98.113 308.444 97.883 308.428 97.702 308.394C97.638 308.382 97.584 308.337 97.561 308.276C97.539 308.214 97.55 308.144 97.592 308.093C97.649 308.024 99.002 306.393 100.28 306.281C100.68 306.25 101.019 306.356 101.309 306.604C101.702 306.941 101.675 307.241 101.583 307.433C101.266 308.099 99.538 308.444 98.37 308.444ZM98.112 308.069C99.229 308.131 101.015 307.76 101.248 307.273C101.268 307.232 101.327 307.108 101.068 306.887C100.852 306.702 100.602 306.625 100.313 306.651C99.474 306.725 98.537 307.615 98.112 308.069Z" fill="#263238"/>
<path d="M84.41 304.348L75.928 301.95C75.619 301.863 75.308 302.006 75.18 302.295L72.317 308.732C72.02 309.4 72.432 310.228 73.148 310.417C76.119 311.202 77.593 311.431 81.323 312.486C83.618 313.135 86.903 314.321 90.072 315.216C93.171 316.092 94.295 313.026 93.056 312.369C87.499 309.424 87.061 307.405 85.541 305.168C85.267 304.765 84.862 304.476 84.41 304.348Z" fill="#407BFF"/>
<path d="M97.833 307.173L90.593 302.146C90.329 301.963 89.989 301.998 89.773 302.229L84.971 307.385C84.473 307.92 84.594 308.837 85.209 309.248C87.763 310.957 89.083 311.653 92.267 313.864C94.226 315.224 98.136 318.24 100.841 320.118C103.487 321.955 105.547 319.421 104.589 318.397C100.293 313.805 99.345 310.927 98.636 308.316C98.507 307.846 98.218 307.44 97.833 307.173Z" fill="#407BFF"/>
<path d="M91.964 297.866L78.907 291.377L80.259 287.844L94.195 294.675L91.964 297.866Z" fill="#407BFF"/>
<path d="M74.993 175.548L73.888 178.4C73.776 178.621 74.038 178.847 74.407 178.847H107.49C107.777 178.847 108.015 178.706 108.033 178.526L108.32 175.674C108.34 175.476 108.091 175.309 107.777 175.309H75.511C75.275 175.309 75.065 175.406 74.993 175.548Z" fill="#407BFF"/>
<path opacity="0.4" d="M74.993 175.548L73.888 178.4C73.776 178.621 74.038 178.847 74.407 178.847H107.49C107.777 178.847 108.015 178.706 108.033 178.526L108.32 175.674C108.34 175.476 108.091 175.309 107.777 175.309H75.511C75.275 175.309 75.065 175.406 74.993 175.548Z" fill="white"/>
<path d="M80.196 179.156H79.332C79.16 179.156 79.029 179.067 79.041 178.959L79.446 175.254C79.458 175.146 79.608 175.057 79.781 175.057H80.645C80.817 175.057 80.948 175.146 80.936 175.254L80.531 178.959C80.519 179.068 80.368 179.156 80.196 179.156Z" fill="#407BFF"/>
<path d="M100.603 179.156H99.739C99.567 179.156 99.436 179.067 99.448 178.959L99.853 175.254C99.865 175.146 100.015 175.057 100.188 175.057H101.052C101.224 175.057 101.355 175.146 101.343 175.254L100.938 178.959C100.926 179.068 100.775 179.156 100.603 179.156Z" fill="#407BFF"/>
<path d="M79.435 348.517C94.2313 348.517 106.226 347.647 106.226 346.573C106.226 345.499 94.2313 344.629 79.435 344.629C64.6388 344.629 52.644 345.499 52.644 346.573C52.644 347.647 64.6388 348.517 79.435 348.517Z" fill="#F5F5F5"/>
<path d="M95.762 343.83C91.022 342.454 85.805 340.681 82.577 338.796C82.487 338.744 82.392 338.706 82.301 338.658V317.229H91.835C93.412 317.229 94.69 315.951 94.69 314.374C94.69 312.798 93.412 311.52 91.835 311.52H82.301V213.697H76.592V311.52H67.058C65.482 311.52 64.204 312.798 64.204 314.374C64.204 315.951 65.482 317.229 67.058 317.229H76.592V338.657C76.501 338.705 76.406 338.742 76.316 338.795C73.088 340.68 67.871 342.453 63.131 343.829C61.576 344.28 61.904 346.571 63.523 346.571H79.446H95.369C96.989 346.572 97.317 344.281 95.762 343.83Z" fill="#E0E0E0"/>
<path d="M97.229 224.677H61.664C58.815 224.677 56.484 222.346 56.484 219.497V208.924C56.484 206.075 58.815 203.744 61.664 203.744H97.229C100.078 203.744 102.409 206.075 102.409 208.924V219.497C102.409 222.346 100.078 224.677 97.229 224.677Z" fill="#407BFF"/>
<path d="M61.337 224.677V226.497C61.337 227.997 62.97 229.225 64.965 229.225H93.928C95.923 229.225 97.556 227.998 97.556 226.497V224.677H61.337Z" fill="#407BFF"/>
<path opacity="0.3" d="M61.337 224.677V226.497C61.337 227.997 62.97 229.225 64.965 229.225H93.928C95.923 229.225 97.556 227.998 97.556 226.497V224.677H61.337Z" fill="white"/>
</svg>
