<svg width="607" height="609" viewBox="0 0 607 609" fill="none" xmlns="http://www.w3.org/2000/svg">
<path d="M530.081 510.068C514.567 526.06 500.685 535.46 490.056 542.557C386.399 611.77 267.908 591.821 231.273 585.003C172.168 574.002 122.275 566.241 79.4075 527.513C-17.9997 439.509 -13.2619 255.927 61.1689 142.206C69.9942 128.722 144.312 18.5598 263.06 3.03695C265.965 2.65723 268.132 2.44112 270.03 2.24019C288.4 0.295173 402.235 -9.96998 495.057 67.7958C508.344 78.9276 529.726 99.0064 549.555 129.63C622.057 241.604 622.287 415.026 530.081 510.068Z" fill="url(#paint0_linear_7_2611)"/>
<path d="M578.581 173.162L38.085 164.029C16.3244 163.661 -1.14151 182.325 0.151696 204.564L18.7561 524.499C19.774 542.009 33.8578 555.725 50.9928 555.894L570.54 561.032C583.373 561.159 593.975 550.812 594.464 537.685L606.895 203.772C607.51 187.248 594.733 173.436 578.581 173.162Z" fill="url(#paint1_linear_7_2611)"/>
<path d="M570.296 181.313L43.9066 172.623C22.714 172.273 5.7038 190.03 6.96316 211.188L25.0817 515.576C26.0736 532.235 39.7896 545.284 56.4772 545.445L562.465 550.334C574.963 550.455 585.288 540.61 585.764 528.121L597.87 210.435C598.469 194.714 586.027 181.573 570.296 181.313Z" fill="url(#paint2_linear_7_2611)"/>
<path d="M560.452 191.805L59.2044 183.53C39.0239 183.196 22.8265 200.105 24.0255 220.253L41.2788 510.102C42.2231 525.965 55.2842 538.392 71.1746 538.545L552.995 543.2C564.896 543.315 574.728 533.941 575.181 522.048L586.709 219.536C587.28 204.565 575.431 192.052 560.452 191.805Z" fill="#91B3FA"/>
<path d="M42.6904 172.371L571.286 181.097C587.083 181.358 599.577 194.555 598.976 210.342L598.122 232.736H6.8805L5.59272 211.098C4.32794 189.851 21.4091 172.02 42.6904 172.371Z" fill="url(#paint3_linear_7_2611)"/>
<g opacity="0.85">
<path d="M554.664 191.922C554.664 194.548 556.793 196.676 559.418 196.676C562.044 196.676 564.172 194.548 564.172 191.922C564.172 189.296 562.044 187.168 559.418 187.168C556.792 187.168 554.664 189.296 554.664 191.922Z" fill="white"/>
<path d="M554.664 205.853C554.664 208.478 556.793 210.607 559.418 210.607C562.044 210.607 564.173 208.478 564.173 205.853C564.173 203.227 562.044 201.099 559.418 201.099C556.792 201.099 554.664 203.227 554.664 205.853Z" fill="white"/>
<path d="M554.664 219.784C554.664 222.41 556.793 224.538 559.418 224.538C562.044 224.538 564.173 222.41 564.173 219.784C564.173 217.158 562.044 215.03 559.418 215.03C556.792 215.03 554.664 217.158 554.664 219.784Z" fill="white"/>
</g>
<g opacity="0.49">
<path d="M482.366 367.516H539.379C547.169 367.516 553.374 374.032 552.993 381.812L546.505 514.313C546.15 521.573 540.16 527.277 532.891 527.277H482.366C474.839 527.277 468.737 521.174 468.737 513.647V381.146C468.737 373.618 474.839 367.516 482.366 367.516Z" fill="white"/>
<path d="M345.234 247.29L545.326 250.38C553.031 250.499 559.106 256.978 558.729 264.675L555.397 332.718C555.042 339.978 549.052 345.682 541.784 345.682H345.024C337.496 345.682 331.394 339.579 331.394 332.051V260.919C331.394 253.308 337.625 247.172 345.234 247.29Z" fill="white"/>
<path d="M345.023 367.516H438.202C445.73 367.516 451.832 373.618 451.832 381.146V513.647C451.832 521.174 445.73 527.277 438.202 527.277H345.023C337.496 527.277 331.393 521.174 331.393 513.647V381.146C331.393 373.618 337.496 367.516 345.023 367.516Z" fill="white"/>
</g>
<path d="M263.878 318.636C282.781 318.636 298.105 303.312 298.105 284.409C298.105 265.507 282.781 250.183 263.878 250.183C244.975 250.183 229.652 265.507 229.652 284.409C229.652 303.312 244.975 318.636 263.878 318.636Z" fill="url(#paint4_linear_7_2611)"/>
<path d="M178.815 318.636C197.717 318.636 213.041 303.312 213.041 284.409C213.041 265.507 197.717 250.183 178.815 250.183C159.912 250.183 144.588 265.507 144.588 284.409C144.588 303.312 159.912 318.636 178.815 318.636Z" fill="url(#paint5_linear_7_2611)"/>
<path d="M93.7513 319.757C112.654 319.757 127.978 304.433 127.978 285.53C127.978 266.627 112.654 251.303 93.7513 251.303C74.8483 251.303 59.5245 266.627 59.5245 285.53C59.5245 304.433 74.8483 319.757 93.7513 319.757Z" fill="url(#paint6_linear_7_2611)"/>
<path d="M243.541 277.176C242.481 279.752 241.893 282.572 241.893 285.53C241.893 297.672 251.736 307.515 263.878 307.515C276.02 307.515 285.863 297.672 285.863 285.53C285.863 273.388 276.02 263.545 263.878 263.545C263.506 263.545 263.137 263.555 262.769 263.573V258C263.137 257.986 263.506 257.976 263.878 257.976C279.096 257.976 291.432 270.312 291.432 285.53C291.432 300.748 279.096 313.084 263.878 313.084C248.661 313.084 236.324 300.748 236.324 285.53C236.324 281.783 237.074 278.211 238.428 274.955L243.541 277.176Z" fill="url(#paint7_linear_7_2611)"/>
<path d="M167.474 304.13C170.866 306.271 174.881 307.515 179.188 307.515C191.33 307.515 201.173 297.672 201.173 285.53C201.173 273.388 191.33 263.545 179.188 263.545C178.816 263.545 178.446 263.555 178.079 263.573V258C178.447 257.986 178.816 257.976 179.188 257.976C194.405 257.976 206.741 270.312 206.741 285.53C206.741 300.748 194.405 313.084 179.188 313.084C173.877 313.084 168.918 311.58 164.711 308.977L167.474 304.13Z" fill="url(#paint8_linear_7_2611)"/>
<path d="M75.4053 297.891C79.3622 303.699 86.0281 307.515 93.5866 307.515C105.728 307.515 115.571 297.672 115.571 285.53C115.571 273.388 105.729 263.545 93.5866 263.545C93.2147 263.545 92.845 263.555 92.4776 263.573V258C92.8456 257.986 93.2149 257.976 93.5866 257.976C108.804 257.976 121.14 270.312 121.14 285.53C121.14 300.748 108.804 313.084 93.5866 313.084C84.1724 313.084 75.8627 308.361 70.8925 301.158L75.4053 297.891Z" fill="url(#paint9_linear_7_2611)"/>
<g opacity="0.64">
<path d="M235.99 333.135H291.766C295.267 333.135 298.105 335.973 298.105 339.474C298.105 342.974 295.267 345.812 291.766 345.812H235.99C232.489 345.812 229.651 342.974 229.651 339.474C229.651 335.973 232.489 333.135 235.99 333.135Z" fill="white"/>
<path d="M150.927 333.135H206.703C210.204 333.135 213.041 335.973 213.041 339.474C213.041 342.974 210.204 345.812 206.703 345.812H150.927C147.426 345.812 144.588 342.974 144.588 339.474C144.588 335.973 147.426 333.135 150.927 333.135Z" fill="white"/>
<path d="M121.639 345.812H65.8636C62.3628 345.812 59.5247 342.974 59.5247 339.474C59.5247 335.973 62.3626 333.135 65.8636 333.135H121.639C125.14 333.135 127.978 335.973 127.978 339.474C127.978 342.974 125.14 345.812 121.639 345.812Z" fill="white"/>
<path d="M235.99 352.855H291.766C295.267 352.855 298.105 355.694 298.105 359.195V396.524C298.105 400.025 295.267 402.863 291.766 402.863H235.99C232.489 402.863 229.651 400.025 229.651 396.524V359.195C229.651 355.694 232.489 352.855 235.99 352.855Z" fill="white"/>
<path d="M150.927 352.855H206.703C210.204 352.855 213.041 355.694 213.041 359.195V396.524C213.041 400.025 210.204 402.863 206.703 402.863H150.927C147.426 402.863 144.588 400.025 144.588 396.524V359.195C144.588 355.694 147.426 352.855 150.927 352.855Z" fill="white"/>
<path d="M65.8636 352.855H121.639C125.14 352.855 127.978 355.694 127.978 359.195V396.524C127.978 400.025 125.14 402.863 121.639 402.863H65.8636C62.3628 402.863 59.5247 400.025 59.5247 396.524V359.195C59.5247 355.694 62.3628 352.855 65.8636 352.855Z" fill="white"/>
</g>
<path d="M440.976 452.81V503.112C440.976 510.977 434.6 517.353 426.734 517.353H357.84C349.762 517.353 343.214 510.805 343.214 502.727V426.989C343.214 420.615 351.082 417.609 355.332 422.359L368.646 437.239C373.77 442.966 382.445 443.772 388.537 439.086L389.812 438.105C394.51 434.491 401.095 434.652 405.611 438.492L412.903 444.692C418.516 449.464 426.359 450.619 433.11 447.666C436.82 446.042 440.976 448.761 440.976 452.81Z" fill="#91B3FA"/>
<path d="M268.622 522.74H279.695V472.627H268.622V522.74Z" fill="url(#paint10_linear_7_2611)"/>
<path d="M250.122 522.74H261.194V489.85H250.122V522.74Z" fill="url(#paint11_linear_7_2611)"/>
<path d="M231.622 522.74H242.694V447.285H231.622V522.74Z" fill="url(#paint12_linear_7_2611)"/>
<path d="M213.122 522.74H224.194V504.613H213.122V522.74Z" fill="url(#paint13_linear_7_2611)"/>
<path d="M194.621 522.74H205.694V457.373H194.621V522.74Z" fill="url(#paint14_linear_7_2611)"/>
<path d="M176.121 522.74H187.193V468.691H176.121V522.74Z" fill="url(#paint15_linear_7_2611)"/>
<path d="M157.621 522.74H168.693V480.993H157.621V522.74Z" fill="url(#paint16_linear_7_2611)"/>
<path d="M139.121 522.74H150.193V432.03H139.121V522.74Z" fill="url(#paint17_linear_7_2611)"/>
<path d="M120.62 522.74H131.693V441.626H120.62V522.74Z" fill="url(#paint18_linear_7_2611)"/>
<path d="M102.12 522.74H113.192V456.142H102.12V522.74Z" fill="url(#paint19_linear_7_2611)"/>
<path d="M83.6202 522.74H94.6919V506.295H83.6202V522.74Z" fill="url(#paint20_linear_7_2611)"/>
<path d="M65.1198 522.74H76.1917V474.35H65.1198V522.74Z" fill="url(#paint21_linear_7_2611)"/>
<path opacity="0.54" d="M264.504 432.677H315.309C317.541 432.677 319.351 434.487 319.351 436.719C319.351 438.951 317.541 440.76 315.309 440.76H264.504C262.272 440.76 260.463 438.951 260.463 436.719C260.463 434.487 262.272 432.677 264.504 432.677Z" fill="white"/>
<path opacity="0.54" d="M264.504 420.031H315.309C317.541 420.031 319.351 421.841 319.351 424.073C319.351 426.304 317.541 428.114 315.309 428.114H264.504C262.272 428.114 260.463 426.305 260.463 424.073C260.463 421.841 262.272 420.031 264.504 420.031Z" fill="white"/>
<path opacity="0.54" d="M172.849 432.677H223.654C225.886 432.677 227.695 434.487 227.695 436.719C227.695 438.951 225.886 440.76 223.654 440.76H172.849C170.617 440.76 168.807 438.951 168.807 436.719C168.807 434.487 170.617 432.677 172.849 432.677Z" fill="white"/>
<path opacity="0.54" d="M172.849 420.031H223.654C225.886 420.031 227.695 421.841 227.695 424.073C227.695 426.304 225.886 428.114 223.654 428.114H172.849C170.617 428.114 168.807 426.305 168.807 424.073C168.807 421.841 170.617 420.031 172.849 420.031Z" fill="white"/>
<path d="M82.746 563.017C82.746 563.017 81.846 568.113 81.4047 573.157C81.2322 575.128 82.7521 576.84 84.7292 576.922C91.4465 577.202 105.815 577.746 110.971 577.516C111.746 577.481 112.253 576.688 111.966 575.967C111.726 575.363 111.262 574.875 110.671 574.603L86.937 563.695L82.746 563.017Z" fill="url(#paint22_linear_7_2611)"/>
<path d="M82.0087 560.023L82.7317 566.118C82.7317 566.118 86.8895 568.054 89.7287 565.874L88.0069 559.082L82.0087 560.023Z" fill="url(#paint23_linear_7_2611)"/>
<path d="M82.5522 445.434C82.2398 447.026 80.8754 524.863 89.1958 559.745C89.3316 560.314 89.043 560.9 88.5014 561.122C87.2251 561.643 84.7234 562.398 81.7253 562.499C80.7969 562.53 79.9645 561.927 79.7024 561.035C77.3241 552.942 65.9276 512.394 64.4408 473.659C62.7796 430.377 64.4408 472.185 64.4408 472.185L65.4153 445.431L82.5522 445.434Z" fill="url(#paint24_linear_7_2611)"/>
<path d="M55.4437 565.676C55.4437 565.676 54.011 568.248 52.6238 575.084C52.3734 576.318 53.2359 577.5 54.4894 577.623C56.7074 577.841 60.122 578.121 62.8573 578.103C64.1182 578.094 65.1024 576.996 64.9503 575.744C64.6474 573.249 63.7035 569.156 60.7877 565.965L55.4437 565.676Z" fill="url(#paint25_linear_7_2611)"/>
<path d="M54.1854 557.836L55.8751 567.053C55.8751 567.053 57.5458 568.296 60.8509 567.395L60.0444 557.478L54.1854 557.836Z" fill="url(#paint26_linear_7_2611)"/>
<path d="M49.6204 447.823C42.8156 488.891 51.0965 549.325 53.8892 561.153C54.0602 561.877 54.6448 562.432 55.3786 562.554C56.6254 562.761 58.6778 562.929 60.7011 562.341C61.3981 562.139 61.888 561.51 61.9165 560.785C62.2912 551.222 61.6166 492.514 67.9574 469.313C68.2788 468.137 68.9968 467.112 69.9901 466.406L82.2966 457.657L83.2401 443.515L49.6204 447.823Z" fill="url(#paint27_linear_7_2611)"/>
<path d="M92.981 370.008C72.5883 369.671 50.0871 375.362 50.0871 375.362C44.0086 410.831 49.0243 451.742 49.0243 451.742C64.8119 455.882 82.621 449.21 82.621 449.21C85.245 434.385 97.4879 392.662 97.4879 392.662C107.452 391.426 115.66 388.551 122.419 384.75C117.263 378.774 114.833 371.169 113.777 366.674C106.567 368.915 99.2709 370.112 92.981 370.008Z" fill="url(#paint28_linear_7_2611)"/>
<path d="M153.218 339.97C151.214 337.551 148.679 338.695 148.679 338.695C145.678 351.372 129.943 361.65 113.777 366.674C114.833 371.17 117.263 378.774 122.419 384.751C149.248 369.666 153.218 339.97 153.218 339.97Z" fill="url(#paint29_linear_7_2611)"/>
<path d="M152.731 340.585C152.941 341.252 150.514 342.266 149.084 339.541C149.034 338.235 148.24 332.639 149.021 331.575C153.177 325.908 161.237 318.803 161.237 318.803C162.599 320.147 161.477 321.467 161.477 321.467L157.567 325.54C158.385 327.018 159.382 328.265 159.85 330.053C160.204 331.407 159.987 332.854 159.303 334.085C158.617 335.322 157.681 336.929 156.796 338.187C155.121 340.568 152.731 340.585 152.731 340.585Z" fill="url(#paint30_linear_7_2611)"/>
<path d="M155.857 328.183L152.294 331.204L151.176 334.211L154.352 337.735C154.352 337.735 155.42 331.768 156.214 330.477C157.008 329.185 156.596 328.561 155.857 328.183Z" fill="url(#paint31_linear_7_2611)"/>
<path d="M57.9091 395.108L50.0871 375.362C50.0871 375.362 31.0392 388.304 27.9069 404.714C31.5059 404.979 38.0551 405.915 44.4656 409.152C45.874 401.404 57.9091 395.108 57.9091 395.108Z" fill="url(#paint32_linear_7_2611)"/>
<path d="M74.5548 413.689C74.5548 413.689 53.1687 425.775 45.9527 415.455C44.4545 413.312 44.0965 411.182 44.4653 409.152C38.0548 405.915 31.5057 404.979 27.9066 404.714C26.9621 409.661 27.4614 414.922 30.3683 420.24C43.0083 443.362 77.3851 418.962 77.3851 418.962L74.5548 413.689Z" fill="url(#paint33_linear_7_2611)"/>
<path d="M71.9851 428.979L83.6567 388.219C83.7893 387.757 84.1839 387.419 84.662 387.363C86.7767 387.117 92.9044 386.424 99.9793 385.826C108.501 385.105 118.398 384.521 124.312 385.018C125.152 385.088 125.661 385.978 125.287 386.734C121.924 393.538 108.09 421.213 101.163 430.28C100.934 430.58 100.579 430.756 100.201 430.752L73.1205 430.5C72.3326 430.493 71.7683 429.737 71.9851 428.979Z" fill="url(#paint34_linear_7_2611)"/>
<path d="M101.19 382.292L109.652 380.882C110.103 380.807 110.472 381.237 110.329 381.671L109.491 384.209C109.418 384.431 109.226 384.59 108.995 384.621L100.852 385.709C100.43 385.765 100.083 385.382 100.18 384.969L100.699 382.752C100.754 382.514 100.948 382.332 101.19 382.292Z" fill="url(#paint35_linear_7_2611)"/>
<path d="M94.8538 389.456L95.5507 385.824C95.6208 385.46 95.9215 385.185 96.2904 385.147L113.382 383.413C113.957 383.355 114.418 383.882 114.283 384.444L113.196 388.969C113.109 389.331 112.794 389.593 112.422 389.611L95.7202 390.452C95.1766 390.479 94.7511 389.99 94.8538 389.456Z" fill="url(#paint36_linear_7_2611)"/>
<path d="M74.8052 419.132C74.8052 419.132 73.1793 412.446 73.8352 410.074C74.491 407.702 75.7616 404.653 79.9973 405.33C84.233 406.008 89.2292 407.792 89.2292 407.792C89.2292 407.792 88.9768 410.882 85.7577 409.885L87.7539 411.43C87.7539 411.43 87.4686 413.903 84.7494 412.582L86.6061 414.63C86.6061 414.63 85.4383 416.662 83.438 415.359C81.4372 414.056 80.4783 419.937 74.8052 419.132Z" fill="url(#paint37_linear_7_2611)"/>
<path d="M72.3246 353.452L65.836 372.216C65.7284 372.527 65.8564 372.872 66.1441 373.031C67.913 374.009 74.2853 376.835 81.9646 371.966C82.7647 371.459 83.3091 370.632 83.4308 369.693L85.532 353.452H72.3246Z" fill="url(#paint38_linear_7_2611)"/>
<path d="M86.4432 336.075C86.4432 336.075 93.5684 349.488 92.6551 354.906C91.7416 360.324 82.9111 359.935 75.1998 355.534L69.8113 341.052L86.4432 336.075Z" fill="url(#paint39_linear_7_2611)"/>
<path d="M75.5407 348.422C75.854 348.283 75.9697 347.9 75.782 347.613C75.2111 346.741 74.141 344.962 73.7997 343.404C73.7997 343.404 72.5186 342.584 77.0598 341.497C81.6008 340.41 88.3728 338.723 89.7962 334.858C91.184 331.089 87.5376 321.612 81.7203 329.163C81.499 329.451 81.0655 329.457 80.8444 329.169C79.8908 327.928 77.3835 325.352 73.9025 326.914C70.6452 328.375 70.2781 330.762 70.323 331.965C70.336 332.319 70.0196 332.594 69.6718 332.528C68.0247 332.214 64.0726 331.944 62.2281 335.998C60.7085 339.338 61.6962 341.228 62.5956 342.153C62.887 342.452 62.7592 342.945 62.3598 343.068C61.2773 343.399 59.8795 344.317 60.0194 346.853C60.213 350.358 64.1325 350.05 65.2486 349.89C65.4313 349.864 65.6156 349.926 65.7395 350.063C66.6966 351.122 71.0076 355.619 75.6737 356.16C76.0777 356.207 76.3909 355.808 76.2585 355.423L74.2393 349.554C74.1453 349.281 74.2759 348.982 74.5393 348.865L75.5407 348.422Z" fill="url(#paint40_linear_7_2611)"/>
<path d="M76.3524 349.255C76.3524 349.255 71.2792 345.774 70.9086 348.706C70.5378 351.637 75.4769 352.952 77.9236 351.859L76.3524 349.255Z" fill="url(#paint41_linear_7_2611)"/>
<path d="M432.441 151.034C432.441 151.034 437.761 153.621 438.739 156.594C439.524 158.979 445.406 159.286 445.987 163.977C446.287 166.398 448.079 168.338 450.491 168.708C456.499 169.629 465.757 172.748 467.239 183.179C468.369 191.14 464.311 194.159 460.051 195.204C456.923 195.972 454.843 199.015 455.476 202.173C456.083 205.203 455.178 208.705 449.93 211.474C438.169 217.68 426.424 196.772 426.424 196.772L424.016 160.265L432.441 151.034Z" fill="url(#paint42_linear_7_2611)"/>
<path d="M384.059 129.359C384.059 129.359 395.026 171.911 419.407 187.299C419.407 187.299 409.478 200.383 404.937 200.784C404.937 200.784 381.022 162.969 381.092 133.948L384.059 129.359Z" fill="url(#paint43_linear_7_2611)"/>
<path d="M480.784 379.946L481.545 386.202C481.689 387.389 482.624 388.328 483.812 388.463C485.818 388.693 489.036 388.927 492.185 388.594C493.567 388.448 494.465 387.049 494.044 385.724C493.276 383.309 491.872 379.683 489.847 377.549H482.906C481.623 377.549 480.629 378.672 480.784 379.946Z" fill="url(#paint44_linear_7_2611)"/>
<path d="M426.423 306.653L425.252 313.545C425.252 313.545 429.175 353.281 429.873 369.175C429.982 371.667 429.337 374.13 428.029 376.254L421.208 387.331L438.544 377.101L438.889 374.986L436.051 371.084L439.769 326.569C439.987 323.954 439.448 321.331 438.214 319.015L434.629 312.278L426.423 306.653Z" fill="url(#paint45_linear_7_2611)"/>
<path d="M420.066 388.936H425.599C426.634 388.936 427.611 388.46 428.242 387.64C429.967 385.399 433.54 381.026 435.249 380.912C437.549 380.759 437.255 388.936 437.255 388.936H438.544L440.178 378.775C440.588 376.218 439.317 373.686 437.021 372.488C437.021 372.488 436.496 376.376 433.644 378.096C430.793 379.816 422.043 385.976 422.043 385.976C422.043 385.976 420.971 385.823 419.794 386.035C418.049 386.351 418.292 388.936 420.066 388.936Z" fill="url(#paint46_linear_7_2611)"/>
<path d="M450.168 309.926C450.168 309.926 473.15 353.521 476.804 363.474C480.457 373.427 481.737 381.731 481.786 382.517C481.862 383.746 483.391 384.924 487.603 384.924C489.777 384.924 490.842 384.053 491.363 383.209C491.808 382.49 491.831 381.589 491.456 380.831C490.126 378.14 485.907 369.542 484.345 365.643C482.479 360.987 478.467 339.887 476.266 332.551C474.065 325.215 471.578 317.257 461.994 309.926C461.994 309.926 455.415 303.483 450.168 309.926Z" fill="url(#paint47_linear_7_2611)"/>
<path d="M435.65 238.494C429.722 213.374 444.74 199.166 444.74 199.166C435.264 190.07 417.999 185.931 417.999 185.931C417.999 185.931 401.524 197.975 403.478 207.403C404.624 212.929 415.059 240.5 415.059 240.5C415.059 240.5 424.707 245.067 435.65 238.494Z" fill="url(#paint48_linear_7_2611)"/>
<path d="M448.794 250.931C446.382 243.662 435.65 238.494 435.65 238.494C424.707 245.066 415.058 240.5 415.058 240.5C415.058 240.5 412.894 248.771 414.388 256.458C415.881 264.144 425.252 313.544 425.252 313.544C440.016 316.536 462.724 310.534 462.724 310.534C453.319 293.838 451.207 258.199 448.794 250.931Z" fill="url(#paint49_linear_7_2611)"/>
<path d="M428.769 169.33L433.589 190.98C434.05 192.887 432.312 192.575 430.384 192.211C427.227 191.616 423.157 190.39 421.797 187.933C421.658 187.683 421.589 187.4 421.55 187.117L419.479 172.105C419.315 170.914 419.959 169.758 421.058 169.27L425.054 167.499C426.593 166.816 428.373 167.694 428.769 169.33Z" fill="url(#paint50_linear_7_2611)"/>
<path d="M423.114 148.717C423.114 148.717 417.406 151.127 413.524 159.375C409.643 167.624 412.541 171.433 416.182 171.956C419.823 172.479 425.268 172.399 431.027 167.07C436.786 161.742 430.534 145.859 423.114 148.717Z" fill="url(#paint51_linear_7_2611)"/>
<path d="M427.155 162.667C427.155 162.667 431.462 150.598 420.763 150.456L418.245 152.216C418.245 152.216 414.319 145.524 420.763 142.331C427.206 139.137 434.747 141.775 437.49 150.456C440.232 159.137 440.7 164.948 436.138 169.101C431.576 173.254 429.696 168.545 429.696 168.545C429.696 168.545 432.18 164.66 431.169 162.582C430.157 160.504 427.825 163.012 427.825 163.012L427.155 162.667Z" fill="url(#paint52_linear_7_2611)"/>
<path d="M428.355 164.011C428.355 164.011 430.533 157.794 433.438 160.27C436.343 162.746 431.077 166.012 429.016 167.07L428.355 164.011Z" fill="url(#paint53_linear_7_2611)"/>
<path d="M381.869 136.686C381.566 137.394 384.116 138.771 385.98 135.94C386.177 134.514 387.659 128.467 386.92 127.215C382.983 120.55 378.212 119.668 378.212 119.668C377.154 121.198 375.924 122.457 375.217 124.365C374.681 125.81 374.76 127.419 375.375 128.844C375.992 130.274 376.843 132.138 377.675 133.614C379.252 136.406 381.869 136.686 381.869 136.686Z" fill="url(#paint54_linear_7_2611)"/>
<path d="M447.405 205.853C447.405 205.853 403.317 259.688 370.378 198.39C370.378 198.39 369.746 196.824 370.141 194.561C370.34 193.419 369.585 189.367 369.17 187.297C369.037 186.632 369.509 186.003 370.185 185.938C370.714 185.887 371.233 186.109 371.562 186.527L377.578 194.189C378.027 195.706 377.304 197.323 375.875 198.002C374.963 198.434 374.676 199.592 375.288 200.395C400.338 233.231 442.236 197.199 443.003 197.622C445.723 199.124 448.866 200.783 447.405 205.853Z" fill="url(#paint55_linear_7_2611)"/>
<path d="M419.231 606.914C420.222 606.914 421.025 606.111 421.025 605.12V390.73C421.025 389.739 420.222 388.936 419.231 388.936C418.24 388.936 417.437 389.739 417.437 390.73V605.12C417.437 606.111 418.24 606.914 419.231 606.914Z" fill="url(#paint56_linear_7_2611)"/>
<path d="M467.837 606.914C468.828 606.914 469.631 606.111 469.631 605.12V390.73C469.631 389.739 468.828 388.936 467.837 388.936C466.846 388.936 466.043 389.739 466.043 390.73V605.12C466.043 606.111 466.846 606.914 467.837 606.914Z" fill="url(#paint57_linear_7_2611)"/>
<path d="M587.256 608.274C587.49 608.274 587.727 608.227 587.956 608.13C588.868 607.742 589.293 606.689 588.905 605.777L497.185 390.028C496.798 389.116 495.743 388.692 494.833 389.079C493.921 389.467 493.497 390.52 493.884 391.432L585.604 607.181C585.894 607.864 586.558 608.274 587.256 608.274Z" fill="url(#paint58_linear_7_2611)"/>
<path d="M530.601 608.274C530.835 608.274 531.073 608.227 531.302 608.13C532.213 607.742 532.638 606.689 532.251 605.777L440.53 390.028C440.143 389.116 439.088 388.692 438.178 389.079C437.266 389.467 436.842 390.52 437.229 391.432L528.95 607.181C529.239 607.864 529.903 608.274 530.601 608.274Z" fill="url(#paint59_linear_7_2611)"/>
<path d="M416.446 392.703H500.464C501.861 392.703 502.992 391.571 502.992 390.175C502.992 388.779 501.861 387.647 500.464 387.647H416.446C415.05 387.647 413.918 388.779 413.918 390.175C413.918 391.571 415.05 392.703 416.446 392.703Z" fill="url(#paint60_linear_7_2611)"/>
<path d="M452.736 425.513H509.559C510.55 425.513 511.353 424.71 511.353 423.72C511.353 422.729 510.55 421.926 509.559 421.926H452.736C451.746 421.926 450.943 422.729 450.943 423.72C450.943 424.71 451.746 425.513 452.736 425.513Z" fill="url(#paint61_linear_7_2611)"/>
<path d="M526.994 462.73H470.171V466.317H526.994V462.73Z" fill="url(#paint62_linear_7_2611)"/>
<path d="M543.873 503.533H487.05V507.121H543.873V503.533Z" fill="url(#paint63_linear_7_2611)"/>
<path d="M504.751 547.924H561.573C562.564 547.924 563.367 547.121 563.367 546.131C563.367 545.14 562.564 544.337 561.573 544.337H504.751C503.76 544.337 502.957 545.14 502.957 546.131C502.957 547.121 503.76 547.924 504.751 547.924Z" fill="url(#paint64_linear_7_2611)"/>
<path d="M521.864 588.729H578.687C579.677 588.729 580.48 587.926 580.48 586.935C580.48 585.945 579.677 585.142 578.687 585.142H521.864C520.873 585.142 520.07 585.945 520.07 586.935C520.07 587.926 520.873 588.729 521.864 588.729Z" fill="url(#paint65_linear_7_2611)"/>
<g opacity="0.3">
<path d="M235.375 70.9254C234.766 70.0227 234.924 68.7866 235.777 68.0712C237.641 66.5061 239.602 64.9992 241.603 63.5916C242.577 62.9068 243.921 63.1407 244.606 64.1143C244.614 64.1262 244.622 64.1378 244.63 64.1493C245.285 65.1198 245.045 66.4406 244.083 67.1169C242.181 68.4539 240.319 69.8858 238.548 71.3723C237.637 72.1376 236.277 72.0192 235.512 71.107C235.462 71.0484 235.417 70.9876 235.375 70.9254ZM251.012 60.5357C250.965 60.4658 250.921 60.3922 250.882 60.3154C250.336 59.2576 250.751 57.9575 251.809 57.412C253.982 56.2917 256.224 55.2532 258.473 54.3259C259.574 53.8719 260.829 54.3933 261.288 55.496C261.741 56.5966 261.217 57.8564 260.117 58.3096C257.979 59.1914 255.849 60.1781 253.784 61.2432C252.803 61.749 251.615 61.4283 251.012 60.5357ZM268.548 53.8472C268.413 53.6484 268.31 53.4234 268.247 53.1778C267.951 52.025 268.645 50.8503 269.798 50.5539C272.16 49.9461 274.579 49.4338 276.987 49.0313C278.161 48.8358 279.27 49.6291 279.468 50.8014C279.664 51.9751 278.871 53.0863 277.697 53.2824C275.411 53.6645 273.115 54.151 270.871 54.7281C269.964 54.9612 269.043 54.581 268.548 53.8472ZM287.143 51.2473C286.921 50.9186 286.787 50.525 286.776 50.0993C286.745 48.9096 287.684 47.9199 288.874 47.8887C291.314 47.8253 293.787 47.8666 296.223 48.0111C297.41 48.0827 298.315 49.1023 298.246 50.2902C298.176 51.478 297.155 52.3839 295.967 52.3136C293.654 52.176 291.305 52.1365 288.986 52.1977C288.222 52.2172 287.541 51.8371 287.143 51.2473ZM305.85 52.8593C305.539 52.3984 305.405 51.8184 305.523 51.2304C305.757 50.0631 306.892 49.3064 308.059 49.5406C310.447 50.0188 312.848 50.6059 315.195 51.2866C316.338 51.6171 316.997 52.8122 316.665 53.9559C316.334 55.0987 315.139 55.7569 313.995 55.426C311.764 54.7787 309.482 54.2206 307.213 53.7663C306.634 53.6504 306.156 53.3128 305.85 52.8593ZM323.734 58.5689C323.331 57.972 323.235 57.1872 323.551 56.4814C324.037 55.3947 325.312 54.9082 326.398 55.3938C328.625 56.3898 330.837 57.4938 332.971 58.6757C334.013 59.2526 334.389 60.5636 333.813 61.6052C333.237 62.646 331.925 63.0229 330.884 62.4466C328.855 61.3237 326.754 60.2746 324.639 59.3284C324.258 59.1582 323.951 58.8909 323.734 58.5689ZM372.173 121.145C372.006 120.897 371.888 120.612 371.835 120.299C371.45 118.016 370.959 115.719 370.377 113.472C370.079 112.32 370.77 111.144 371.922 110.846C373.074 110.547 374.25 111.239 374.549 112.392C375.162 114.757 375.679 117.177 376.086 119.581C376.284 120.755 375.493 121.866 374.319 122.065C373.459 122.21 372.631 121.824 372.173 121.145ZM339.897 68.094C339.396 67.353 339.393 66.3468 339.961 65.5926C340.676 64.6411 342.027 64.4502 342.979 65.1656C344.928 66.6317 346.838 68.2007 348.654 69.829C349.536 70.6272 349.616 71.9855 348.821 72.8723C348.027 73.7585 346.664 73.8329 345.777 73.0385C344.053 71.4921 342.24 70.0023 340.388 68.6099C340.192 68.4615 340.027 68.2869 339.897 68.094ZM366.979 103.105C366.899 102.987 366.83 102.86 366.773 102.723C365.886 100.583 364.894 98.4531 363.826 96.392C363.279 95.3349 363.692 94.0343 364.748 93.487C365.805 92.9403 367.11 93.3491 367.653 94.4094C368.776 96.5784 369.82 98.8196 370.754 101.071C371.21 102.171 370.689 103.432 369.59 103.888C368.627 104.287 367.54 103.936 366.979 103.105ZM353.527 80.9905C352.918 80.0891 353.075 78.8551 353.926 78.1389C354.836 77.3719 356.195 77.4882 356.963 78.398C358.533 80.2616 360.044 82.2181 361.452 84.2137C361.461 84.2256 361.47 84.2387 361.478 84.2512C362.133 85.2203 361.895 86.5389 360.935 87.2165C359.963 87.903 358.618 87.6717 357.932 86.699C356.593 84.8039 355.158 82.9459 353.666 81.1753C353.616 81.1154 353.57 81.0536 353.527 80.9905Z" fill="#91B3FA"/>
<path d="M373.333 136.232C373.096 135.881 372.959 135.456 372.965 134.999C372.981 133.888 372.973 132.758 372.944 131.64C372.912 130.451 373.85 129.46 375.04 129.429C376.229 129.396 377.222 130.335 377.252 131.525C377.284 132.701 377.291 133.889 377.275 135.058C377.259 136.248 376.281 137.2 375.091 137.183C374.357 137.173 373.715 136.797 373.333 136.232Z" fill="#91B3FA"/>
</g>
<g opacity="0.3">
<path d="M346.845 196.357C346.264 195.495 346.376 194.315 347.16 193.581C347.971 192.822 348.779 192.032 349.563 191.235C350.397 190.386 351.762 190.375 352.61 191.209C353.462 192.047 353.47 193.408 352.636 194.257C351.812 195.096 350.96 195.927 350.106 196.727C349.238 197.54 347.874 197.496 347.06 196.627C346.98 196.542 346.909 196.451 346.845 196.357Z" fill="#91B3FA"/>
<path d="M219.907 182.181C219.352 181.359 218.809 180.525 218.278 179.678C217.646 178.67 217.95 177.34 218.959 176.707C219.967 176.075 221.304 176.382 221.93 177.387C223.155 179.341 224.457 181.241 225.816 183.055C226.528 184.009 226.336 185.358 225.383 186.071C224.43 186.785 223.079 186.591 222.366 185.639C221.526 184.517 220.698 183.354 219.907 182.181ZM212.905 169.649C212.838 169.55 212.778 169.442 212.727 169.329C211.736 167.138 210.827 164.881 210.026 162.62C209.629 161.498 210.216 160.266 211.337 159.869C212.459 159.471 213.695 160.059 214.088 161.18C214.849 163.327 215.713 165.471 216.654 167.554C217.144 168.638 216.662 169.915 215.578 170.405C214.607 170.844 213.482 170.504 212.905 169.649ZM229.778 194.222C229.21 193.38 229.301 192.227 230.05 191.486C230.896 190.649 232.261 190.657 233.098 191.503C234.699 193.122 236.391 194.694 238.129 196.175C239.033 196.949 239.142 198.308 238.37 199.213C237.597 200.119 236.237 200.227 235.331 199.454C233.502 197.894 231.719 196.238 230.033 194.533C229.937 194.436 229.852 194.331 229.778 194.222ZM207.194 152.075C207.041 151.848 206.929 151.588 206.87 151.304C206.386 148.951 205.996 146.549 205.712 144.165C205.572 142.984 206.415 141.912 207.597 141.771C208.779 141.63 209.851 142.473 209.992 143.656C210.261 145.919 210.631 148.2 211.092 150.435C211.332 151.6 210.581 152.74 209.416 152.98C208.535 153.161 207.668 152.777 207.194 152.075ZM244.136 205.83C243.67 205.139 243.629 204.209 244.107 203.462C244.748 202.459 246.081 202.166 247.084 202.807C249 204.034 250.997 205.195 253.018 206.259C254.071 206.814 254.475 208.117 253.92 209.171C253.365 210.223 252.062 210.627 251.009 210.072C248.882 208.952 246.78 207.729 244.761 206.438C244.506 206.275 244.296 206.066 244.136 205.83ZM260.694 214.006C260.321 213.454 260.209 212.737 260.454 212.063C260.86 210.945 262.097 210.367 263.215 210.774C265.361 211.554 267.564 212.252 269.763 212.85C270.912 213.16 271.591 214.344 271.278 215.494C270.966 216.643 269.782 217.32 268.634 217.009C266.319 216.38 264.001 215.645 261.743 214.824C261.299 214.663 260.94 214.371 260.694 214.006ZM278.641 218.379C278.357 217.959 278.22 217.438 278.29 216.896C278.443 215.716 279.524 214.883 280.705 215.036C282.971 215.331 285.272 215.533 287.549 215.637C288.737 215.691 289.657 216.697 289.603 217.888C289.548 219.077 288.541 219.996 287.352 219.942C284.957 219.833 282.533 219.62 280.15 219.311C279.511 219.227 278.975 218.873 278.641 218.379ZM297.112 218.733C296.916 218.442 296.788 218.099 296.754 217.725C296.645 216.54 297.518 215.491 298.703 215.383C300.977 215.175 303.267 214.868 305.511 214.469C306.682 214.261 307.802 215.043 308.01 216.213C308.218 217.385 307.436 218.504 306.265 218.712C303.901 219.132 301.489 219.456 299.096 219.675C298.285 219.749 297.538 219.363 297.112 218.733ZM315.218 215.022C315.108 214.858 315.018 214.676 314.954 214.479C314.587 213.347 315.208 212.132 316.34 211.765C318.506 211.062 320.671 210.259 322.776 209.374C323.873 208.913 325.137 209.432 325.597 210.526C326.058 211.623 325.542 212.887 324.445 213.348C322.229 214.279 319.95 215.125 317.669 215.864C316.734 216.168 315.742 215.798 315.218 215.022ZM332.055 207.429C332.03 207.392 332.007 207.354 331.984 207.316C331.379 206.291 331.72 204.97 332.745 204.365C334.192 203.512 335.629 202.604 337.019 201.665C337.522 201.326 338.021 200.981 338.514 200.632C339.486 199.945 340.831 200.175 341.517 201.147C342.232 202.117 341.974 203.464 341.003 204.151C340.484 204.518 339.961 204.88 339.431 205.237C337.969 206.224 336.456 207.18 334.934 208.077C333.948 208.66 332.687 208.366 332.055 207.429Z" fill="#91B3FA"/>
<path d="M205.495 133.623C205.255 133.268 205.119 132.839 205.127 132.378C205.149 131.212 205.196 130.024 205.267 128.847C205.338 127.659 206.359 126.754 207.547 126.825C208.735 126.897 209.641 127.916 209.569 129.105C209.502 130.223 209.458 131.351 209.437 132.459C209.415 133.648 208.432 134.595 207.242 134.573C206.512 134.559 205.874 134.185 205.495 133.623Z" fill="#91B3FA"/>
</g>
<path d="M227.838 122.046C227.714 122.458 227.865 122.903 228.213 123.154L238.158 130.322C237.801 136.035 238.352 141.847 239.883 147.537L231.57 156.535C231.278 156.851 231.219 157.317 231.422 157.695L238.38 170.649C238.583 171.027 239.005 171.235 239.428 171.166L251.521 169.204C255.419 173.622 259.96 177.291 264.921 180.148L265.405 192.397C265.422 192.826 265.71 193.198 266.121 193.322L280.201 197.562C280.612 197.685 281.057 197.535 281.308 197.186L288.476 187.242C294.19 187.599 300.002 187.047 305.691 185.517L314.69 193.83C315.005 194.121 315.471 194.181 315.849 193.977L328.803 187.019C329.182 186.816 329.39 186.395 329.321 185.971L327.359 173.878C331.777 169.98 335.445 165.44 338.303 160.479L350.552 159.994C350.981 159.976 351.352 159.689 351.476 159.278L355.716 145.198C355.84 144.786 355.689 144.342 355.34 144.091L345.396 136.923C345.753 131.209 345.202 125.397 343.671 119.708L351.984 110.71C352.276 110.394 352.335 109.928 352.132 109.55L345.174 96.5959C344.971 96.2172 344.55 96.0093 344.125 96.0783L332.033 98.0403C328.135 93.6226 323.594 89.9538 318.633 87.0966L318.148 74.8476C318.131 74.4182 317.843 74.0467 317.432 73.9231L303.352 69.6835C302.941 69.5596 302.496 69.7104 302.245 70.0588L295.077 80.0033C289.363 79.6461 283.552 80.1977 277.862 81.7283L268.864 73.4151C268.548 73.1237 268.082 73.0642 267.704 73.2678L254.75 80.2255C254.372 80.4288 254.164 80.85 254.232 81.2742L256.194 93.3667C251.777 97.2648 248.108 101.806 245.251 106.766L233.002 107.251C232.572 107.268 232.201 107.556 232.077 107.967L227.838 122.046Z" fill="#91B3FA"/>
<path d="M279.521 141.885C275.49 135.914 276.334 127.71 281.809 122.71C287.827 117.213 297.193 117.637 302.69 123.654C305.354 126.569 306.721 130.347 306.543 134.29C306.364 138.234 304.661 141.872 301.745 144.535C295.728 150.031 286.361 149.607 280.864 143.59C280.369 143.048 279.921 142.477 279.521 141.885ZM301.184 127.3C300.873 126.839 300.526 126.398 300.144 125.979C295.93 121.366 288.748 121.041 284.134 125.255C279.521 129.469 279.193 136.651 283.41 141.265C287.624 145.879 294.806 146.203 299.42 141.99C301.655 139.948 302.961 137.159 303.098 134.134C303.209 131.677 302.536 129.303 301.184 127.3Z" fill="#BDD0FB"/>
<path d="M261.998 154.081C261.305 153.056 260.66 151.989 260.067 150.884C259.88 150.537 259.698 150.186 259.523 149.832C258.657 148.088 257.932 146.278 257.357 144.43C257.349 144.405 257.342 144.379 257.334 144.354C257.312 144.283 257.29 144.211 257.269 144.139C257.226 144 257.186 143.86 257.145 143.72C257.039 143.352 257.189 142.971 257.49 142.767C257.563 142.717 257.645 142.679 257.735 142.653C258.192 142.521 258.669 142.786 258.801 143.243C259.48 145.597 260.416 147.893 261.586 150.068C267.388 160.876 278.147 167.352 289.558 168.204C295.905 168.679 302.454 167.414 308.464 164.185C309.518 163.619 310.536 163.004 311.514 162.343C318.097 157.898 322.91 151.378 325.231 143.67C327.897 134.815 326.956 125.453 322.581 117.307C313.543 100.484 292.517 94.158 275.702 103.19C274.665 103.747 273.661 104.354 272.692 105.009C268.493 107.845 264.961 111.568 262.363 115.924C262.296 116.036 262.208 116.128 262.106 116.196C261.838 116.377 261.478 116.399 261.182 116.222C260.773 115.977 260.638 115.45 260.883 115.04C263.611 110.467 267.318 106.558 271.726 103.581C272.743 102.894 273.798 102.256 274.886 101.672C292.541 92.1884 314.62 98.8424 324.1 116.491C328.693 125.043 329.681 134.871 326.882 144.167C324.446 152.259 319.392 159.103 312.482 163.771C311.455 164.464 310.387 165.109 309.281 165.704C300.728 170.297 290.899 171.286 281.604 168.487C273.51 166.049 266.665 160.994 261.998 154.081Z" fill="#BDD0FB"/>
<g opacity="0.3">
<path d="M147.158 41.7546C146.836 41.2774 146.85 40.6276 147.236 40.1615C147.957 39.291 148.713 38.4304 149.485 37.6039C149.987 37.0669 150.829 37.0383 151.367 37.5399C151.907 38.0403 151.932 38.8839 151.431 39.4211C150.695 40.2086 149.974 41.0288 149.286 41.8594C148.818 42.4252 147.979 42.504 147.412 42.036C147.312 41.9524 147.227 41.8574 147.158 41.7546Z" fill="#91B3FA"/>
<path d="M154.383 34.4997C154.005 33.9408 154.105 33.1755 154.634 32.7346C156.127 31.4878 157.702 30.3035 159.314 29.2156C159.653 28.9865 159.996 28.7606 160.342 28.5369C160.961 28.1387 161.783 28.3646 162.183 28.9337C162.582 29.5515 162.404 30.3751 161.787 30.7737C161.455 30.9872 161.127 31.2029 160.803 31.4219C159.266 32.4599 157.764 33.5893 156.339 34.7777C155.775 35.2492 154.936 35.1732 154.464 34.6093C154.435 34.5731 154.408 34.5368 154.383 34.4997ZM165.998 27.0106C165.963 26.9584 165.93 26.9028 165.902 26.8451C165.582 26.1829 165.858 25.3868 166.52 25.0663C168.642 24.038 170.848 23.1323 173.073 22.3755C173.769 22.1383 174.526 22.5148 174.762 23.2067C174.999 23.9033 174.627 24.6583 173.931 24.8955C171.807 25.6178 169.704 26.4821 167.68 27.4624C167.077 27.754 166.362 27.5503 165.998 27.0106ZM179.082 22.5619C178.987 22.4219 178.918 22.2614 178.881 22.0863C178.733 21.3665 179.197 20.6626 179.917 20.5138C182.223 20.0388 184.585 19.7018 186.935 19.5155C187.669 19.4569 188.308 20.0021 188.367 20.7373C188.426 21.4696 187.878 22.111 187.146 22.1694C184.905 22.3475 182.654 22.6675 180.454 23.1215C179.91 23.233 179.374 22.9954 179.082 22.5619ZM192.86 21.4657C192.706 21.2372 192.621 20.9595 192.633 20.6635C192.666 19.9292 193.288 19.3595 194.023 19.3922C196.38 19.4968 198.75 19.7487 201.07 20.1415C201.794 20.2647 202.281 20.9532 202.159 21.6762C202.037 22.4009 201.35 22.8889 200.624 22.7665C198.414 22.3918 196.152 22.1516 193.905 22.052C193.466 22.0322 193.088 21.8033 192.86 21.4657ZM206.487 23.7679C206.272 23.4489 206.196 23.0392 206.315 22.6413C206.525 21.9374 207.266 21.5373 207.971 21.7469C210.228 22.4215 212.466 23.2412 214.621 24.1842C215.296 24.478 215.602 25.2635 215.307 25.937C215.012 26.6105 214.227 26.918 213.554 26.6231C211.498 25.7235 209.363 24.9413 207.209 24.2984C206.902 24.2066 206.653 24.0139 206.487 23.7679ZM219.141 29.3072C218.862 28.894 218.828 28.3397 219.1 27.882C219.474 27.2504 220.291 27.0425 220.923 27.417C222.949 28.6198 224.919 29.9605 226.777 31.4019C227.358 31.8558 227.463 32.6893 227.012 33.2699C226.562 33.8505 225.725 33.956 225.145 33.5055C223.373 32.1307 221.496 30.8529 219.565 29.7064C219.389 29.6029 219.248 29.4649 219.141 29.3072ZM230.054 37.7696C229.705 37.2526 229.758 36.5444 230.215 36.0867C230.734 35.5662 231.576 35.5647 232.097 36.0835C233.761 37.7412 235.341 39.525 236.797 41.3856C237.241 41.9734 237.146 42.8025 236.567 43.2547C235.988 43.7076 235.152 43.6049 234.699 43.0262C233.312 41.2505 231.804 39.5491 230.218 37.9686C230.156 37.9066 230.101 37.8397 230.054 37.7696ZM241.757 54.802C241.714 54.7384 241.676 54.6697 241.643 54.5965C240.856 52.8231 239.957 51.0619 238.971 49.3612C238.824 49.1028 238.675 48.8507 238.524 48.6014C238.146 47.9708 238.348 47.1534 238.978 46.7744C239.609 46.3933 240.447 46.5897 240.805 47.2274C240.965 47.4943 241.124 47.7614 241.278 48.0324C242.307 49.8095 243.25 51.6558 244.076 53.5158C244.374 54.1877 244.072 54.9736 243.4 55.2722C242.801 55.5382 242.112 55.3271 241.757 54.802Z" fill="#91B3FA"/>
</g>
<g opacity="0.3">
<path d="M144.324 109.644C143.918 109.041 144.07 108.222 144.669 107.806C145.272 107.387 146.103 107.536 146.521 108.14C147.783 109.958 149.167 111.714 150.634 113.36C151.115 113.91 151.076 114.75 150.526 115.24C149.977 115.729 149.136 115.68 148.647 115.132C147.109 113.405 145.658 111.564 144.335 109.659C144.331 109.654 144.328 109.648 144.324 109.644ZM140.784 103.827C140.757 103.787 140.733 103.746 140.71 103.703C139.626 101.655 138.655 99.5205 137.824 97.3587C137.562 96.672 137.903 95.9028 138.589 95.6394C139.276 95.3747 140.046 95.7223 140.31 96.4036C141.102 98.4667 142.028 100.503 143.063 102.458C143.407 103.107 143.159 103.913 142.51 104.256C141.902 104.578 141.16 104.383 140.784 103.827ZM153.369 119.787C153.038 119.298 153.064 118.63 153.471 118.165C153.955 117.613 154.796 117.558 155.349 118.042C157.015 119.501 158.782 120.872 160.604 122.114C161.211 122.532 161.368 123.357 160.953 123.964C160.539 124.571 159.711 124.728 159.103 124.314C157.193 123.011 155.34 121.574 153.595 120.044C153.507 119.966 153.431 119.88 153.369 119.787ZM135.916 91.1299C135.832 91.0045 135.767 90.8623 135.728 90.7068C135.167 88.4569 134.74 86.1495 134.459 83.8495C134.369 83.1198 134.889 82.4561 135.619 82.3662C136.347 82.2779 137.011 82.7972 137.101 83.5258C137.37 85.7188 137.777 87.9179 138.311 90.0634C138.488 90.7766 138.054 91.4992 137.341 91.6767C136.784 91.8153 136.22 91.5801 135.916 91.1299ZM164.596 127.443C164.332 127.053 164.284 126.534 164.516 126.087C164.854 125.433 165.657 125.177 166.31 125.515C168.272 126.529 170.316 127.434 172.388 128.203C173.078 128.46 173.428 129.226 173.172 129.915C172.916 130.604 172.149 130.955 171.46 130.699C169.288 129.892 167.144 128.944 165.087 127.88C164.882 127.774 164.716 127.622 164.596 127.443ZM177.333 132.182C177.131 131.883 177.051 131.505 177.141 131.127C177.312 130.412 178.031 129.971 178.745 130.143C180.899 130.658 183.102 131.048 185.293 131.301C186.024 131.386 186.547 132.047 186.463 132.776C186.379 133.507 185.719 134.03 184.989 133.945C182.691 133.68 180.382 133.272 178.125 132.732C177.789 132.651 177.512 132.449 177.333 132.182ZM190.839 133.734C190.698 133.524 190.613 133.272 190.613 132.999C190.607 132.264 191.2 131.664 191.935 131.659C194.148 131.646 196.381 131.496 198.569 131.213C199.296 131.119 199.965 131.634 200.058 132.362C200.152 133.092 199.638 133.759 198.909 133.853C196.614 134.149 194.273 134.307 191.952 134.322C191.489 134.325 191.08 134.091 190.839 133.734Z" fill="#91B3FA"/>
<path d="M134.26 77.5717C134.117 77.3588 134.033 77.1025 134.033 76.8263C134.034 75.6872 134.069 74.5428 134.136 73.4249C134.181 72.6915 134.811 72.1317 135.545 72.1758C136.277 72.2218 136.837 72.8508 136.794 73.5846C136.73 74.6507 136.697 75.7425 136.695 76.8296C136.695 77.5647 136.098 78.1601 135.363 78.159C134.904 78.1579 134.499 77.9255 134.26 77.5717Z" fill="#91B3FA"/>
</g>
<path d="M149.13 68.8672C149.047 69.1423 149.148 69.4402 149.381 69.6082L156.036 74.4048C155.797 78.228 156.166 82.1169 157.19 85.9239L151.627 91.9453C151.432 92.1564 151.393 92.4682 151.529 92.7215L156.184 101.39C156.321 101.643 156.602 101.782 156.886 101.736L164.978 100.423C167.586 103.379 170.625 105.834 173.944 107.746L174.269 115.943C174.28 116.23 174.472 116.478 174.748 116.561L184.169 119.398C184.445 119.481 184.742 119.38 184.91 119.147L189.707 112.493C193.53 112.732 197.419 112.363 201.226 111.338L207.247 116.901C207.459 117.096 207.77 117.136 208.023 117L216.692 112.344C216.945 112.208 217.084 111.926 217.038 111.642L215.725 103.55C218.681 100.942 221.136 97.9034 223.048 94.584L231.244 94.2594C231.531 94.2479 231.78 94.0557 231.863 93.7805L234.7 84.359C234.783 84.0836 234.682 83.7862 234.449 83.618L227.794 78.8216C228.033 74.9984 227.664 71.1095 226.64 67.3025L232.203 61.2811C232.398 61.07 232.438 60.7584 232.302 60.505L227.646 51.8368C227.51 51.5836 227.228 51.4445 226.944 51.4905L218.852 52.8034C216.244 49.8473 213.205 47.3921 209.886 45.4803L209.561 37.2841C209.55 36.9966 209.358 36.7481 209.082 36.6652L199.661 33.8282C199.386 33.7453 199.088 33.8462 198.92 34.0795L194.123 40.7336C190.3 40.4945 186.411 40.8638 182.604 41.888L176.583 36.325C176.372 36.1302 176.06 36.0902 175.806 36.2265L167.138 40.8823C166.885 41.0185 166.746 41.3002 166.792 41.584L168.105 49.6759C165.149 52.2842 162.694 55.3226 160.782 58.6422L152.585 58.9668C152.298 58.9783 152.05 59.1705 151.967 59.4459L149.13 68.8672Z" fill="#91B3FA"/>
<path d="M183.558 82.23C182.357 80.4505 181.759 78.3414 181.858 76.1575C181.979 73.4711 183.14 70.9929 185.126 69.1794C189.223 65.436 195.603 65.7244 199.349 69.8225C203.09 73.9335 202.804 80.3032 198.705 84.0467C196.719 85.8609 194.146 86.7929 191.46 86.6709C188.773 86.5498 186.295 85.3892 184.481 83.4025C184.143 83.0311 183.834 82.6387 183.558 82.23ZM198.056 72.4721C197.856 72.1753 197.631 71.8899 197.383 71.6174C194.628 68.6031 189.936 68.3911 186.92 71.145C185.461 72.4788 184.606 74.3021 184.517 76.2775C184.428 78.2544 185.115 80.1454 186.447 81.6077C187.781 83.0679 189.605 83.922 191.58 84.0116C193.557 84.101 195.449 83.4153 196.91 82.0807C199.653 79.5758 200.076 75.4643 198.056 72.4721Z" fill="#BDD0FB"/>
<path d="M171.35 90.7032C170.879 90.0052 170.439 89.2776 170.032 88.5208C169.224 87.0173 168.567 85.4301 168.081 83.7991C168.06 83.7255 168.038 83.6522 168.017 83.5786C167.853 83.0103 168.084 82.4219 168.549 82.1071C168.662 82.0307 168.79 81.9706 168.928 81.9309C169.634 81.7271 170.369 82.1372 170.574 82.8413C171.014 84.3684 171.621 85.8548 172.376 87.2597L172.377 87.2604C172.418 87.3376 172.461 87.4146 172.503 87.4908C174.321 90.7995 176.895 93.5296 179.992 95.5143C181.672 96.5914 183.509 97.4485 185.464 98.0567C185.48 98.0617 185.496 98.0667 185.512 98.0717C185.561 98.0862 185.609 98.1018 185.658 98.1159C191.39 99.8416 197.451 99.2325 202.724 96.3998C203.407 96.0338 204.065 95.6356 204.699 95.2079C208.96 92.3301 212.076 88.109 213.579 83.1184C215.305 77.3862 214.695 71.3257 211.863 66.0528C209.03 60.7841 204.313 56.9244 198.582 55.1975C192.85 53.4718 186.788 54.0809 181.515 56.9136C180.844 57.2736 180.193 57.6672 179.566 58.0903C176.848 59.9266 174.562 62.3364 172.88 65.1561C172.776 65.3299 172.64 65.4713 172.482 65.577C172.069 65.8563 171.513 65.8903 171.056 65.6174C170.425 65.2392 170.217 64.4244 170.595 63.7917C172.477 60.637 175.035 57.9399 178.075 55.8855C178.777 55.4114 179.504 54.9714 180.255 54.5682C186.156 51.3988 192.937 50.7173 199.35 52.6486C205.762 54.58 211.042 58.887 214.208 64.7922C217.378 70.6921 218.06 77.4726 216.128 83.8859C214.447 89.469 210.961 94.191 206.193 97.4107C205.485 97.8885 204.748 98.3346 203.985 98.7445C192.561 104.88 178.455 101.227 171.35 90.7032Z" fill="#BDD0FB"/>
<path d="M301.218 436.547C301.097 436.775 293.497 442.368 293.497 442.368C293.497 442.368 295.175 454.377 301.991 459.118C309.485 464.331 320.068 454.824 320.068 454.824C320.068 454.824 328.49 456.826 332.97 439.294C333.997 435.272 328.066 434.932 320.907 435.673C311.675 436.628 301.218 436.547 301.218 436.547Z" fill="url(#paint66_linear_7_2611)"/>
<path d="M287.011 477.515C289.985 475.47 293.272 473.929 296.758 472.981C298.067 472.624 305.135 474.679 309.505 474.578C315.503 474.44 321.608 471.711 326.552 472.943C331.463 474.167 335.483 475.765 337.804 477.416C344.751 482.357 348.83 491.57 351.315 500.696C346.609 505.527 340.686 507.674 340.686 507.674L339.591 552.032L313.361 565.453L283.423 550.422L284.495 507.073C284.495 507.073 274.988 502.646 274.291 501.036C273.593 499.425 278.624 483.282 287.011 477.515Z" fill="url(#paint67_linear_7_2611)"/>
<path d="M274.733 500.842C274.733 500.842 261.993 536.162 291.045 550.678C297.077 549.877 294.757 539.859 294.757 539.859C294.757 539.859 282.134 537.065 285.925 507.602C282.435 504.731 274.733 500.842 274.733 500.842Z" fill="url(#paint68_linear_7_2611)"/>
<path d="M350.702 500.842C350.702 500.842 359.468 537.711 334.391 550.678C328.358 549.877 330.678 539.859 330.678 539.859C330.678 539.859 340.852 534.849 339.51 507.602C343.001 504.731 350.702 500.842 350.702 500.842Z" fill="url(#paint69_linear_7_2611)"/>
<path d="M339.717 553.159H283.957C283.473 553.159 283.077 552.763 283.077 552.279V515.194C283.077 514.71 283.473 514.314 283.957 514.314H339.717C340.2 514.314 340.596 514.71 340.596 515.194V552.279C340.596 552.763 340.2 553.159 339.717 553.159Z" fill="url(#paint70_linear_7_2611)"/>
<path d="M365.825 564.675C359.242 563.164 344.028 563.976 344.028 563.976L343.41 565.652L342.385 573.981C342.385 573.981 356.873 576.593 364.015 576.587C364.744 576.586 365.41 576.477 366.019 576.287C366.237 576.092 366.449 575.889 366.651 575.669C369.681 572.36 368.806 567.499 365.825 564.675Z" fill="url(#paint71_linear_7_2611)"/>
<path d="M366.477 564.84C366.271 564.782 366.053 564.727 365.825 564.675C368.806 567.499 369.681 572.36 366.651 575.669C366.45 575.889 366.237 576.092 366.019 576.287C371.377 574.62 372.011 566.397 366.477 564.84Z" fill="url(#paint72_linear_7_2611)"/>
<path d="M339.657 563.507L342.233 563.617C343.617 563.676 344.922 564.35 345.852 565.488C346.783 566.626 347.262 568.131 347.18 569.665C347.115 570.888 346.614 572.031 345.786 572.843C344.959 573.654 343.874 574.066 342.772 573.987L338.83 573.707L339.657 563.507Z" fill="url(#paint73_linear_7_2611)"/>
<path d="M253.031 563.874C259.649 562.565 274.837 563.844 274.837 563.844L275.414 565.538L276.23 573.896C276.23 573.896 261.682 576.062 254.543 575.837C253.815 575.814 253.151 575.684 252.547 575.476C252.335 575.274 252.127 575.065 251.931 574.839C248.985 571.438 249.981 566.606 253.031 563.874Z" fill="url(#paint74_linear_7_2611)"/>
<path d="M252.375 564.019C252.583 563.967 252.802 563.919 253.031 563.874C249.981 566.606 248.985 571.438 251.931 574.839C252.127 575.065 252.335 575.274 252.547 575.476C247.234 573.644 246.805 565.405 252.375 564.019Z" fill="url(#paint75_linear_7_2611)"/>
<path d="M279.219 563.509L276.641 563.54C275.256 563.557 273.935 564.191 272.976 565.3C272.017 566.408 271.501 567.898 271.545 569.434C271.579 570.658 272.052 571.817 272.859 572.653C273.666 573.489 274.74 573.935 275.844 573.89L279.791 573.731L279.219 563.509Z" fill="url(#paint76_linear_7_2611)"/>
<path d="M367.666 538.562C364.681 531.692 357.379 530.576 351.165 533.789C351.057 533.931 311.701 554.101 276.994 562.941C277.988 566.126 278.499 569.516 278.61 572.847C278.63 573.589 278.618 574.322 278.574 575.044C305.19 573.677 334.075 564.801 358.896 557C366.593 554.518 370.975 546.177 367.666 538.562Z" fill="url(#paint77_linear_7_2611)"/>
<path d="M339.846 573.369C339.742 569.529 340.489 565.955 342.086 562.645C342.131 562.493 342.186 562.348 342.234 562.198C340.252 561.585 337.692 560.753 334.328 559.612C309.683 551.178 290.881 542.661 272.937 532.858C265.966 529.049 258.04 531.602 255.809 539.85C253.817 547.214 258.191 553.5 264.831 555.71C284.694 562.319 274.352 560.483 280.839 562.571C298.261 567.959 319.941 572.866 339.888 574.206C339.873 573.927 339.855 573.647 339.846 573.369Z" fill="url(#paint78_linear_7_2611)"/>
<path d="M296.757 472.981C296.757 472.981 299.408 484.467 312.276 484.228C325.383 483.99 326.552 472.943 326.552 472.943L317.99 471.111L317.275 461.571L304.396 462.525L304.157 471.587L296.757 472.981Z" fill="url(#paint79_linear_7_2611)"/>
<path d="M306.204 434.541C306.204 434.541 291.445 463.13 308.952 470.067C321.302 474.959 329.044 451.081 326.735 444.614C323.164 434.614 320.812 435.801 320.812 435.801L306.204 434.541Z" fill="url(#paint80_linear_7_2611)"/>
<path d="M330.287 431.94C337.578 433.944 331.346 449.757 320.369 446.017C309.391 442.278 305.078 442.333 303.367 445.347C301.657 448.361 301.289 459.066 297.577 453.775C293.508 447.974 291.239 436.331 296.229 432.578C300.687 429.223 301.728 424.023 307.076 424.203C314.175 424.442 319.665 421.296 322.869 423.565C326.549 426.171 324.921 430.465 330.287 431.94Z" fill="url(#paint81_linear_7_2611)"/>
<path d="M302.692 447.805C302.692 447.805 299.544 444.418 299.04 448.501C298.537 452.583 300.154 457.84 302.049 454.958C303.944 452.076 302.692 447.805 302.692 447.805Z" fill="url(#paint82_linear_7_2611)"/>
<path d="M315.23 524.834C315.535 526.894 314.43 528.765 312.37 529.07C310.309 529.375 308.391 527.952 308.086 525.891C307.781 523.83 308.724 521.783 310.785 521.478C312.846 521.173 314.924 522.773 315.23 524.834Z" fill="url(#paint83_linear_7_2611)"/>
<defs>
<linearGradient id="paint0_linear_7_2611" x1="656.266" y1="689.555" x2="235.999" y2="242.174" gradientUnits="userSpaceOnUse">
<stop stop-color="#DAE3FE"/>
<stop offset="1" stop-color="#E9EFFD"/>
</linearGradient>
<linearGradient id="paint1_linear_7_2611" x1="63.5346" y1="173.761" x2="541.72" y2="537.855" gradientUnits="userSpaceOnUse">
<stop stop-color="#09005D"/>
<stop offset="1" stop-color="#1A0F91"/>
</linearGradient>
<linearGradient id="paint2_linear_7_2611" x1="546.962" y1="643.346" x2="1.8447" y2="-7.41562" gradientUnits="userSpaceOnUse">
<stop stop-color="#4F52FF"/>
<stop offset="1" stop-color="#4042E2"/>
</linearGradient>
<linearGradient id="paint3_linear_7_2611" x1="347.286" y1="377.142" x2="208.314" y2="-118.278" gradientUnits="userSpaceOnUse">
<stop stop-color="#09005D"/>
<stop offset="1" stop-color="#1A0F91"/>
</linearGradient>
<linearGradient id="paint4_linear_7_2611" x1="229.651" y1="284.409" x2="298.105" y2="284.409" gradientUnits="userSpaceOnUse">
<stop stop-color="#DAE3FE"/>
<stop offset="1" stop-color="#E9EFFD"/>
</linearGradient>
<linearGradient id="paint5_linear_7_2611" x1="144.588" y1="284.409" x2="213.041" y2="284.409" gradientUnits="userSpaceOnUse">
<stop stop-color="#DAE3FE"/>
<stop offset="1" stop-color="#E9EFFD"/>
</linearGradient>
<linearGradient id="paint6_linear_7_2611" x1="59.5248" y1="285.53" x2="127.978" y2="285.53" gradientUnits="userSpaceOnUse">
<stop stop-color="#DAE3FE"/>
<stop offset="1" stop-color="#E9EFFD"/>
</linearGradient>
<linearGradient id="paint7_linear_7_2611" x1="142.993" y1="419.774" x2="375.014" y2="164.404" gradientUnits="userSpaceOnUse">
<stop stop-color="#4F52FF"/>
<stop offset="1" stop-color="#4042E2"/>
</linearGradient>
<linearGradient id="paint8_linear_7_2611" x1="99.0473" y1="379.847" x2="331.069" y2="124.478" gradientUnits="userSpaceOnUse">
<stop stop-color="#4F52FF"/>
<stop offset="1" stop-color="#4042E2"/>
</linearGradient>
<linearGradient id="paint9_linear_7_2611" x1="52.1554" y1="337.242" x2="284.177" y2="81.8729" gradientUnits="userSpaceOnUse">
<stop stop-color="#4F52FF"/>
<stop offset="1" stop-color="#4042E2"/>
</linearGradient>
<linearGradient id="paint10_linear_7_2611" x1="268.622" y1="497.684" x2="279.694" y2="497.684" gradientUnits="userSpaceOnUse">
<stop stop-color="#DAE3FE"/>
<stop offset="1" stop-color="#E9EFFD"/>
</linearGradient>
<linearGradient id="paint11_linear_7_2611" x1="250.122" y1="506.295" x2="261.194" y2="506.295" gradientUnits="userSpaceOnUse">
<stop stop-color="#DAE3FE"/>
<stop offset="1" stop-color="#E9EFFD"/>
</linearGradient>
<linearGradient id="paint12_linear_7_2611" x1="231.622" y1="485.012" x2="242.694" y2="485.012" gradientUnits="userSpaceOnUse">
<stop stop-color="#DAE3FE"/>
<stop offset="1" stop-color="#E9EFFD"/>
</linearGradient>
<linearGradient id="paint13_linear_7_2611" x1="213.122" y1="513.677" x2="224.194" y2="513.677" gradientUnits="userSpaceOnUse">
<stop stop-color="#DAE3FE"/>
<stop offset="1" stop-color="#E9EFFD"/>
</linearGradient>
<linearGradient id="paint14_linear_7_2611" x1="194.621" y1="490.056" x2="205.694" y2="490.056" gradientUnits="userSpaceOnUse">
<stop stop-color="#DAE3FE"/>
<stop offset="1" stop-color="#E9EFFD"/>
</linearGradient>
<linearGradient id="paint15_linear_7_2611" x1="176.121" y1="495.715" x2="187.193" y2="495.715" gradientUnits="userSpaceOnUse">
<stop stop-color="#DAE3FE"/>
<stop offset="1" stop-color="#E9EFFD"/>
</linearGradient>
<linearGradient id="paint16_linear_7_2611" x1="157.621" y1="501.867" x2="168.693" y2="501.867" gradientUnits="userSpaceOnUse">
<stop stop-color="#DAE3FE"/>
<stop offset="1" stop-color="#E9EFFD"/>
</linearGradient>
<linearGradient id="paint17_linear_7_2611" x1="139.121" y1="477.385" x2="150.193" y2="477.385" gradientUnits="userSpaceOnUse">
<stop stop-color="#DAE3FE"/>
<stop offset="1" stop-color="#E9EFFD"/>
</linearGradient>
<linearGradient id="paint18_linear_7_2611" x1="120.621" y1="482.183" x2="131.693" y2="482.183" gradientUnits="userSpaceOnUse">
<stop stop-color="#DAE3FE"/>
<stop offset="1" stop-color="#E9EFFD"/>
</linearGradient>
<linearGradient id="paint19_linear_7_2611" x1="102.12" y1="489.441" x2="113.192" y2="489.441" gradientUnits="userSpaceOnUse">
<stop stop-color="#DAE3FE"/>
<stop offset="1" stop-color="#E9EFFD"/>
</linearGradient>
<linearGradient id="paint20_linear_7_2611" x1="83.6201" y1="514.518" x2="94.6919" y2="514.518" gradientUnits="userSpaceOnUse">
<stop stop-color="#DAE3FE"/>
<stop offset="1" stop-color="#E9EFFD"/>
</linearGradient>
<linearGradient id="paint21_linear_7_2611" x1="65.1198" y1="498.545" x2="76.1917" y2="498.545" gradientUnits="userSpaceOnUse">
<stop stop-color="#DAE3FE"/>
<stop offset="1" stop-color="#E9EFFD"/>
</linearGradient>
<linearGradient id="paint22_linear_7_2611" x1="110.22" y1="555.975" x2="23.3055" y2="650.513" gradientUnits="userSpaceOnUse">
<stop stop-color="#09005D"/>
<stop offset="1" stop-color="#1A0F91"/>
</linearGradient>
<linearGradient id="paint23_linear_7_2611" x1="82.0086" y1="562.996" x2="89.7288" y2="562.996" gradientUnits="userSpaceOnUse">
<stop stop-color="#FEBBBA"/>
<stop offset="1" stop-color="#FF928E"/>
</linearGradient>
<linearGradient id="paint24_linear_7_2611" x1="77.1666" y1="429.231" x2="76.1937" y2="537.215" gradientUnits="userSpaceOnUse">
<stop stop-color="#09005D"/>
<stop offset="1" stop-color="#1A0F91"/>
</linearGradient>
<linearGradient id="paint25_linear_7_2611" x1="90.7219" y1="538.049" x2="3.80787" y2="632.587" gradientUnits="userSpaceOnUse">
<stop stop-color="#09005D"/>
<stop offset="1" stop-color="#1A0F91"/>
</linearGradient>
<linearGradient id="paint26_linear_7_2611" x1="54.1854" y1="562.6" x2="60.851" y2="562.6" gradientUnits="userSpaceOnUse">
<stop stop-color="#FEBBBA"/>
<stop offset="1" stop-color="#FF928E"/>
</linearGradient>
<linearGradient id="paint27_linear_7_2611" x1="65.4309" y1="429.125" x2="64.458" y2="537.11" gradientUnits="userSpaceOnUse">
<stop stop-color="#09005D"/>
<stop offset="1" stop-color="#1A0F91"/>
</linearGradient>
<linearGradient id="paint28_linear_7_2611" x1="202.242" y1="216.004" x2="162.842" y2="272.915" gradientUnits="userSpaceOnUse">
<stop stop-color="#FF928E"/>
<stop offset="1" stop-color="#FE7062"/>
</linearGradient>
<linearGradient id="paint29_linear_7_2611" x1="113.777" y1="361.588" x2="153.218" y2="361.588" gradientUnits="userSpaceOnUse">
<stop stop-color="#FEBBBA"/>
<stop offset="1" stop-color="#FF928E"/>
</linearGradient>
<linearGradient id="paint30_linear_7_2611" x1="144.432" y1="354.976" x2="117.966" y2="415.192" gradientUnits="userSpaceOnUse">
<stop stop-color="#FEBBBA"/>
<stop offset="1" stop-color="#FF928E"/>
</linearGradient>
<linearGradient id="paint31_linear_7_2611" x1="153.028" y1="334.923" x2="164.071" y2="317.944" gradientUnits="userSpaceOnUse">
<stop stop-color="#FEBBBA"/>
<stop offset="1" stop-color="#FF928E"/>
</linearGradient>
<linearGradient id="paint32_linear_7_2611" x1="179.509" y1="200.266" x2="140.109" y2="257.177" gradientUnits="userSpaceOnUse">
<stop stop-color="#FF928E"/>
<stop offset="1" stop-color="#FE7062"/>
</linearGradient>
<linearGradient id="paint33_linear_7_2611" x1="27.4724" y1="417.454" x2="77.385" y2="417.454" gradientUnits="userSpaceOnUse">
<stop stop-color="#FEBBBA"/>
<stop offset="1" stop-color="#FF928E"/>
</linearGradient>
<linearGradient id="paint34_linear_7_2611" x1="92.4853" y1="381.968" x2="119.93" y2="496.323" gradientUnits="userSpaceOnUse">
<stop stop-color="#09005D"/>
<stop offset="1" stop-color="#1A0F91"/>
</linearGradient>
<linearGradient id="paint35_linear_7_2611" x1="109.669" y1="363.943" x2="103.824" y2="389.61" gradientUnits="userSpaceOnUse">
<stop stop-color="#4F52FF"/>
<stop offset="1" stop-color="#4042E2"/>
</linearGradient>
<linearGradient id="paint36_linear_7_2611" x1="106.61" y1="374.709" x2="103.814" y2="391.482" gradientUnits="userSpaceOnUse">
<stop stop-color="#4F52FF"/>
<stop offset="1" stop-color="#4042E2"/>
</linearGradient>
<linearGradient id="paint37_linear_7_2611" x1="73.6792" y1="412.221" x2="89.229" y2="412.221" gradientUnits="userSpaceOnUse">
<stop stop-color="#FEBBBA"/>
<stop offset="1" stop-color="#FF928E"/>
</linearGradient>
<linearGradient id="paint38_linear_7_2611" x1="65.7983" y1="364.095" x2="85.5321" y2="364.095" gradientUnits="userSpaceOnUse">
<stop stop-color="#FEBBBA"/>
<stop offset="1" stop-color="#FF928E"/>
</linearGradient>
<linearGradient id="paint39_linear_7_2611" x1="90.2255" y1="351.541" x2="68.5281" y2="338.307" gradientUnits="userSpaceOnUse">
<stop stop-color="#FEBBBA"/>
<stop offset="1" stop-color="#FF928E"/>
</linearGradient>
<linearGradient id="paint40_linear_7_2611" x1="57.043" y1="324.357" x2="85.0734" y2="346.496" gradientUnits="userSpaceOnUse">
<stop stop-color="#09005D"/>
<stop offset="1" stop-color="#1A0F91"/>
</linearGradient>
<linearGradient id="paint41_linear_7_2611" x1="84.5266" y1="356.476" x2="65.005" y2="344.569" gradientUnits="userSpaceOnUse">
<stop stop-color="#FEBBBA"/>
<stop offset="1" stop-color="#FF928E"/>
</linearGradient>
<linearGradient id="paint42_linear_7_2611" x1="453.167" y1="213.212" x2="441.493" y2="169.921" gradientUnits="userSpaceOnUse">
<stop stop-color="#4F52FF"/>
<stop offset="1" stop-color="#4042E2"/>
</linearGradient>
<linearGradient id="paint43_linear_7_2611" x1="395.378" y1="151.419" x2="417.807" y2="220.311" gradientUnits="userSpaceOnUse">
<stop stop-color="#FEBBBA"/>
<stop offset="1" stop-color="#FF928E"/>
</linearGradient>
<linearGradient id="paint44_linear_7_2611" x1="480.768" y1="383.155" x2="494.149" y2="383.155" gradientUnits="userSpaceOnUse">
<stop stop-color="#09005D"/>
<stop offset="1" stop-color="#1A0F91"/>
</linearGradient>
<linearGradient id="paint45_linear_7_2611" x1="424.228" y1="435.92" x2="443.484" y2="210.871" gradientUnits="userSpaceOnUse">
<stop stop-color="#FEBBBA"/>
<stop offset="1" stop-color="#FF928E"/>
</linearGradient>
<linearGradient id="paint46_linear_7_2611" x1="418.603" y1="380.712" x2="440.254" y2="380.712" gradientUnits="userSpaceOnUse">
<stop stop-color="#09005D"/>
<stop offset="1" stop-color="#1A0F91"/>
</linearGradient>
<linearGradient id="paint47_linear_7_2611" x1="462.962" y1="439.269" x2="482.223" y2="214.16" gradientUnits="userSpaceOnUse">
<stop stop-color="#FEBBBA"/>
<stop offset="1" stop-color="#FF928E"/>
</linearGradient>
<linearGradient id="paint48_linear_7_2611" x1="510.34" y1="163.256" x2="468.022" y2="188.063" gradientUnits="userSpaceOnUse">
<stop stop-color="#FF928E"/>
<stop offset="1" stop-color="#FE7062"/>
</linearGradient>
<linearGradient id="paint49_linear_7_2611" x1="755.754" y1="-48.831" x2="385.104" y2="330.575" gradientUnits="userSpaceOnUse">
<stop stop-color="#E1473D"/>
<stop offset="1" stop-color="#E9605A"/>
</linearGradient>
<linearGradient id="paint50_linear_7_2611" x1="422.117" y1="214.089" x2="425.734" y2="187.627" gradientUnits="userSpaceOnUse">
<stop stop-color="#FEBBBA"/>
<stop offset="1" stop-color="#FF928E"/>
</linearGradient>
<linearGradient id="paint51_linear_7_2611" x1="412.987" y1="179.972" x2="444.547" y2="123.807" gradientUnits="userSpaceOnUse">
<stop stop-color="#FEBBBA"/>
<stop offset="1" stop-color="#FF928E"/>
</linearGradient>
<linearGradient id="paint52_linear_7_2611" x1="445.038" y1="215.404" x2="433.364" y2="172.113" gradientUnits="userSpaceOnUse">
<stop stop-color="#4F52FF"/>
<stop offset="1" stop-color="#4042E2"/>
</linearGradient>
<linearGradient id="paint53_linear_7_2611" x1="419.705" y1="183.747" x2="451.264" y2="127.582" gradientUnits="userSpaceOnUse">
<stop stop-color="#FEBBBA"/>
<stop offset="1" stop-color="#FF928E"/>
</linearGradient>
<linearGradient id="paint54_linear_7_2611" x1="387.794" y1="148.454" x2="403.285" y2="196.037" gradientUnits="userSpaceOnUse">
<stop stop-color="#FEBBBA"/>
<stop offset="1" stop-color="#FF928E"/>
</linearGradient>
<linearGradient id="paint55_linear_7_2611" x1="414.697" y1="183.479" x2="394.212" y2="224.475" gradientUnits="userSpaceOnUse">
<stop stop-color="#FEBBBA"/>
<stop offset="1" stop-color="#FF928E"/>
</linearGradient>
<linearGradient id="paint56_linear_7_2611" x1="489.168" y1="363.119" x2="589.856" y2="169.038" gradientUnits="userSpaceOnUse">
<stop stop-color="#4F52FF"/>
<stop offset="1" stop-color="#4042E2"/>
</linearGradient>
<linearGradient id="paint57_linear_7_2611" x1="527.466" y1="382.987" x2="628.155" y2="188.906" gradientUnits="userSpaceOnUse">
<stop stop-color="#4F52FF"/>
<stop offset="1" stop-color="#4042E2"/>
</linearGradient>
<linearGradient id="paint58_linear_7_2611" x1="585.702" y1="413.2" x2="686.391" y2="219.119" gradientUnits="userSpaceOnUse">
<stop stop-color="#4F52FF"/>
<stop offset="1" stop-color="#4042E2"/>
</linearGradient>
<linearGradient id="paint59_linear_7_2611" x1="541.062" y1="390.041" x2="641.751" y2="195.96" gradientUnits="userSpaceOnUse">
<stop stop-color="#4F52FF"/>
<stop offset="1" stop-color="#4042E2"/>
</linearGradient>
<linearGradient id="paint60_linear_7_2611" x1="476.029" y1="356.301" x2="576.717" y2="162.22" gradientUnits="userSpaceOnUse">
<stop stop-color="#4F52FF"/>
<stop offset="1" stop-color="#4042E2"/>
</linearGradient>
<linearGradient id="paint61_linear_7_2611" x1="507.621" y1="372.691" x2="608.309" y2="178.611" gradientUnits="userSpaceOnUse">
<stop stop-color="#4F52FF"/>
<stop offset="1" stop-color="#4042E2"/>
</linearGradient>
<linearGradient id="paint62_linear_7_2611" x1="538.038" y1="388.472" x2="638.726" y2="194.391" gradientUnits="userSpaceOnUse">
<stop stop-color="#4F52FF"/>
<stop offset="1" stop-color="#4042E2"/>
</linearGradient>
<linearGradient id="paint63_linear_7_2611" x1="568.017" y1="404.025" x2="668.705" y2="209.944" gradientUnits="userSpaceOnUse">
<stop stop-color="#4F52FF"/>
<stop offset="1" stop-color="#4042E2"/>
</linearGradient>
<linearGradient id="paint64_linear_7_2611" x1="598.643" y1="419.914" x2="699.331" y2="225.833" gradientUnits="userSpaceOnUse">
<stop stop-color="#4F52FF"/>
<stop offset="1" stop-color="#4042E2"/>
</linearGradient>
<linearGradient id="paint65_linear_7_2611" x1="628.807" y1="435.562" x2="729.495" y2="241.482" gradientUnits="userSpaceOnUse">
<stop stop-color="#4F52FF"/>
<stop offset="1" stop-color="#4042E2"/>
</linearGradient>
<linearGradient id="paint66_linear_7_2611" x1="312.456" y1="455.189" x2="313.325" y2="439.852" gradientUnits="userSpaceOnUse">
<stop stop-color="#09005D"/>
<stop offset="1" stop-color="#1A0F91"/>
</linearGradient>
<linearGradient id="paint67_linear_7_2611" x1="365.465" y1="438.687" x2="342.117" y2="472.25" gradientUnits="userSpaceOnUse">
<stop stop-color="#FF928E"/>
<stop offset="1" stop-color="#FE7062"/>
</linearGradient>
<linearGradient id="paint68_linear_7_2611" x1="268.224" y1="491.346" x2="318.068" y2="611.749" gradientUnits="userSpaceOnUse">
<stop stop-color="#FEBBBA"/>
<stop offset="1" stop-color="#FF928E"/>
</linearGradient>
<linearGradient id="paint69_linear_7_2611" x1="356.586" y1="491.087" x2="306.742" y2="611.49" gradientUnits="userSpaceOnUse">
<stop stop-color="#FEBBBA"/>
<stop offset="1" stop-color="#FF928E"/>
</linearGradient>
<linearGradient id="paint70_linear_7_2611" x1="312.5" y1="506.881" x2="309.906" y2="611.916" gradientUnits="userSpaceOnUse">
<stop stop-color="#09005D"/>
<stop offset="1" stop-color="#1A0F91"/>
</linearGradient>
<linearGradient id="paint71_linear_7_2611" x1="342.415" y1="570.047" x2="369.653" y2="570.256" gradientUnits="userSpaceOnUse">
<stop stop-color="#09005D"/>
<stop offset="1" stop-color="#1A0F91"/>
</linearGradient>
<linearGradient id="paint72_linear_7_2611" x1="372.996" y1="570.62" x2="349.082" y2="570.149" gradientUnits="userSpaceOnUse">
<stop stop-color="#4F52FF"/>
<stop offset="1" stop-color="#4042E2"/>
</linearGradient>
<linearGradient id="paint73_linear_7_2611" x1="360.393" y1="520.935" x2="331.642" y2="598.812" gradientUnits="userSpaceOnUse">
<stop stop-color="#FEBBBA"/>
<stop offset="1" stop-color="#FF928E"/>
</linearGradient>
<linearGradient id="paint74_linear_7_2611" x1="276.31" y1="569.912" x2="249.066" y2="569.367" gradientUnits="userSpaceOnUse">
<stop stop-color="#09005D"/>
<stop offset="1" stop-color="#1A0F91"/>
</linearGradient>
<linearGradient id="paint75_linear_7_2611" x1="245.723" y1="569.618" x2="269.561" y2="569.809" gradientUnits="userSpaceOnUse">
<stop stop-color="#4F52FF"/>
<stop offset="1" stop-color="#4042E2"/>
</linearGradient>
<linearGradient id="paint76_linear_7_2611" x1="302.789" y1="497.467" x2="274.022" y2="575.385" gradientUnits="userSpaceOnUse">
<stop stop-color="#FEBBBA"/>
<stop offset="1" stop-color="#FF928E"/>
</linearGradient>
<linearGradient id="paint77_linear_7_2611" x1="338.495" y1="501.953" x2="331.686" y2="524.815" gradientUnits="userSpaceOnUse">
<stop stop-color="#4F52FF"/>
<stop offset="1" stop-color="#4042E2"/>
</linearGradient>
<linearGradient id="paint78_linear_7_2611" x1="329.511" y1="562.595" x2="206.933" y2="527.573" gradientUnits="userSpaceOnUse">
<stop stop-color="#4F52FF"/>
<stop offset="1" stop-color="#4042E2"/>
</linearGradient>
<linearGradient id="paint79_linear_7_2611" x1="311.98" y1="501.287" x2="311.317" y2="443.584" gradientUnits="userSpaceOnUse">
<stop stop-color="#FEBBBA"/>
<stop offset="1" stop-color="#FF928E"/>
</linearGradient>
<linearGradient id="paint80_linear_7_2611" x1="310.057" y1="469.256" x2="320.17" y2="420.029" gradientUnits="userSpaceOnUse">
<stop stop-color="#FEBBBA"/>
<stop offset="1" stop-color="#FF928E"/>
</linearGradient>
<linearGradient id="paint81_linear_7_2611" x1="321.034" y1="407.637" x2="315.174" y2="430.859" gradientUnits="userSpaceOnUse">
<stop stop-color="#09005D"/>
<stop offset="1" stop-color="#1A0F91"/>
</linearGradient>
<linearGradient id="paint82_linear_7_2611" x1="303.355" y1="475.794" x2="296.106" y2="397.378" gradientUnits="userSpaceOnUse">
<stop stop-color="#FEBBBA"/>
<stop offset="1" stop-color="#FF928E"/>
</linearGradient>
<linearGradient id="paint83_linear_7_2611" x1="312.207" y1="498.877" x2="310.532" y2="579.037" gradientUnits="userSpaceOnUse">
<stop stop-color="#4F52FF"/>
<stop offset="1" stop-color="#4042E2"/>
</linearGradient>
</defs>
</svg>
