<svg width="388" height="320" viewBox="0 0 388 320" fill="none" xmlns="http://www.w3.org/2000/svg">
<path d="M193.889 319.117C300.971 319.117 387.778 314.048 387.778 307.794C387.778 301.54 300.971 296.471 193.889 296.471C86.8071 296.471 0 301.54 0 307.794C0 314.048 86.8071 319.117 193.889 319.117Z" fill="#F0F6FF"/>
<path d="M251.128 307.794H136.04C128.002 307.794 121.425 301.217 121.425 293.179V17.616C121.425 9.57797 128.002 3.00098 136.04 3.00098H251.128C259.167 3.00098 265.743 9.57797 265.743 17.616V293.179C265.743 301.217 259.166 307.794 251.128 307.794Z" fill="#C0DAFF"/>
<path d="M265.5 91.424H255.974C253.769 91.424 251.964 89.62 251.964 87.414V58.379C251.964 56.174 253.768 54.369 255.974 54.369H265.5C267.705 54.369 269.51 56.173 269.51 58.379V87.414C269.51 89.62 267.706 91.424 265.5 91.424Z" fill="#C0DAFF"/>
<path d="M266.498 123.016H254.976C253.32 123.016 251.964 121.661 251.964 120.004V105.123C251.964 103.466 253.319 102.111 254.976 102.111H266.498C268.154 102.111 269.51 103.466 269.51 105.123V120.004C269.51 121.661 268.155 123.016 266.498 123.016Z" fill="#C0DAFF"/>
<path d="M113.918 26.778H112.918V40H113.918V26.778Z" fill="#DCE9FF"/>
<path d="M113.918 43.667H112.918V47.81H113.918V43.667Z" fill="#DCE9FF"/>
<path opacity="0.6" d="M246.122 307.794H131.034C122.996 307.794 116.419 301.217 116.419 293.179V17.616C116.419 9.57797 122.996 3.00098 131.034 3.00098H246.122C254.16 3.00098 260.737 9.57797 260.737 17.616V293.179C260.737 301.217 254.16 307.794 246.122 307.794Z" fill="#0053CC"/>
<path d="M195.082 293.836C195.082 297.428 192.17 300.34 188.578 300.34C184.986 300.34 182.074 297.428 182.074 293.836C182.074 290.244 184.986 287.332 188.578 287.332C192.17 287.332 195.082 290.244 195.082 293.836Z" fill="#0053CC"/>
<path d="M260.737 19.798H116.418V281.725H260.737V19.798Z" fill="#DCE9FF"/>
<path d="M260.737 19.798H116.418V281.725H260.737V19.798Z" fill="#DCE9FF"/>
<path d="M238.385 112.565H138.77C133.306 112.565 128.835 108.094 128.835 102.63V43.164C128.835 37.7 133.306 33.229 138.77 33.229H238.385C243.849 33.229 248.32 37.7 248.32 43.164V102.63C248.32 108.094 243.85 112.565 238.385 112.565Z" fill="white"/>
<path d="M152.262 63.754C159.004 60.9349 162.183 53.1843 159.364 46.4426C156.545 39.7009 148.794 36.521 142.053 39.3402C135.311 42.1593 132.131 49.9099 134.95 56.6516C137.77 63.3933 145.52 66.5732 152.262 63.754Z" fill="#DCE9FF"/>
<path d="M158.073 51.546C158.073 53.432 157.595 55.202 156.753 56.747C154.911 60.151 151.304 62.465 147.153 62.465C143.002 62.465 139.395 60.15 137.553 56.747C136.712 55.202 136.233 53.431 136.233 51.546C136.233 45.514 141.121 40.626 147.153 40.626C153.185 40.626 158.073 45.514 158.073 51.546Z" fill="white"/>
<path d="M156.753 56.7469C154.911 60.1509 151.304 62.465 147.153 62.465C143.002 62.465 139.395 60.1499 137.553 56.7469C140.302 54.9099 143.601 53.838 147.153 53.838C150.705 53.839 154.004 54.9109 156.753 56.7469Z" fill="#C0DAFF"/>
<path d="M147.153 52.674C149.839 52.674 152.017 50.4963 152.017 47.81C152.017 45.1237 149.839 42.946 147.153 42.946C144.467 42.946 142.289 45.1237 142.289 47.81C142.289 50.4963 144.467 52.674 147.153 52.674Z" fill="#C0DAFF"/>
<path d="M240.99 147.667H136.165C132.133 147.667 128.835 144.368 128.835 140.337V127.226C128.835 123.194 132.134 119.896 136.165 119.896H240.99C245.021 119.896 248.32 123.194 248.32 127.226V140.337C248.32 144.369 245.022 147.667 240.99 147.667Z" fill="white"/>
<path d="M172.019 10.731C172.019 9.45997 173.049 8.43097 174.32 8.43097C175.591 8.43097 176.621 9.46097 176.621 10.731C176.621 12.002 175.591 13.032 174.32 13.032C173.049 13.032 172.019 12.001 172.019 10.731Z" fill="#0053CC"/>
<path d="M182.267 8.42999H201.379C202.644 8.42999 203.68 9.465 203.68 10.73C203.68 11.995 202.645 13.031 201.379 13.031H182.267C181.002 13.031 179.966 11.996 179.966 10.73C179.966 9.465 181.002 8.42999 182.267 8.42999Z" fill="#0053CC"/>
<path opacity="0.6" d="M265.639 150.354L279.765 189.298C280.53 191.407 279.43 193.759 277.321 194.524L203.184 221.416C201.075 222.181 198.723 221.081 197.958 218.972L183.832 180.028C183.432 178.926 183.542 177.754 184.038 176.778C184.494 175.893 185.269 175.167 186.276 174.802L260.413 147.91C261.42 147.545 262.479 147.605 263.397 147.992C264.404 148.423 265.24 149.252 265.639 150.354Z" fill="#0053CC"/>
<path d="M263.398 147.992L242.213 182.865C238.167 189.525 230.031 192.476 222.656 189.959L184.04 176.778C184.496 175.893 185.271 175.167 186.278 174.802L260.415 147.91C261.42 147.546 262.48 147.606 263.398 147.992Z" fill="#9FC6FF"/>
<path opacity="0.6" d="M242.388 217.281L241.709 252.364C241.672 254.264 240.088 255.788 238.188 255.752L171.402 254.46C169.502 254.423 167.978 252.839 168.014 250.939L168.692 215.856C168.711 214.863 169.155 213.97 169.843 213.35C170.473 212.789 171.306 212.451 172.213 212.468L238.999 213.76C239.906 213.777 240.725 214.148 241.333 214.732C241.998 215.379 242.407 216.288 242.388 217.281Z" fill="#0053CC"/>
<path d="M241.334 214.733L213.979 235.857C208.755 239.891 201.426 239.75 196.361 235.516L169.843 213.35C170.473 212.789 171.306 212.451 172.213 212.468L238.999 213.76C239.907 213.778 240.726 214.148 241.334 214.733Z" fill="#9FC6FF"/>
<mask id="mask0_1_96" style="mask-type:luminance" maskUnits="userSpaceOnUse" x="116" y="19" width="145" height="263">
<path d="M260.737 19.798H116.418V281.725H260.737V19.798Z" fill="white"/>
</mask>
<g mask="url(#mask0_1_96)">
<path d="M200.376 80C200.376 74 198.376 50.389 208.209 48.389C211.32 45.111 226.728 44.775 229.098 53.111C232.209 64.055 227.598 90.778 227.598 90.778L200.376 80Z" fill="#0F264C"/>
<path d="M229.641 90.834C229.631 90.834 229.62 90.833 229.611 90.832C229.474 90.815 229.377 90.69 229.393 90.554C229.426 90.286 232.64 63.571 229.055 52.97C228.077 50.074 225.272 48.038 221.158 47.238C215.792 46.193 209.99 47.497 208.387 49.36C208.297 49.465 208.139 49.477 208.034 49.386C207.93 49.296 207.918 49.138 208.008 49.033C209.882 46.852 216.192 45.762 221.253 46.746C225.551 47.582 228.49 49.735 229.529 52.809C233.149 63.518 229.922 90.345 229.888 90.614C229.873 90.742 229.766 90.834 229.641 90.834Z" fill="#0F264C"/>
<path d="M220.82 96.4129L221.063 96.947L221.37 97.575C221.574 97.999 221.802 98.4329 222.029 98.8589C222.499 99.7129 222.988 100.567 223.532 101.392C224.583 103.063 225.742 104.679 227.005 106.21C228.295 107.717 229.645 109.175 231.096 110.534C231.842 111.186 232.57 111.868 233.349 112.486L234.521 113.411L234.798 113.63C234.798 113.63 234.819 113.657 234.794 113.642C234.76 113.636 234.64 113.581 234.402 113.561C234.157 113.528 233.817 113.57 233.556 113.685C233.304 113.782 233.172 113.9 233.129 113.961C233.065 114.055 233.239 113.903 233.39 113.642C233.718 113.104 234.051 112.235 234.318 111.341C234.877 109.521 235.259 107.476 235.608 105.426C235.956 103.366 236.229 101.263 236.453 99.1479C236.717 97.0389 236.902 94.8889 237.106 92.7879L240.96 92.731C241.202 94.956 241.305 97.133 241.397 99.348C241.445 101.556 241.441 103.773 241.351 106.017C241.245 108.267 241.045 110.522 240.567 112.904C240.301 114.103 240.002 115.319 239.351 116.713C239.005 117.41 238.586 118.183 237.731 119.018C237.281 119.437 236.695 119.858 235.938 120.154C235.165 120.449 234.276 120.542 233.494 120.447C232.721 120.349 232.085 120.109 231.572 119.854C231.303 119.724 231.103 119.593 230.871 119.453L230.49 119.198L229.038 118.214C228.071 117.555 227.158 116.82 226.244 116.089C224.45 114.585 222.751 112.964 221.195 111.211C219.655 109.446 218.212 107.594 216.927 105.624C216.284 104.64 215.696 103.615 215.127 102.572C214.848 102.043 214.569 101.52 214.312 100.966L213.933 100.124C213.802 99.8229 213.7 99.5789 213.542 99.1649L220.82 96.4129Z" fill="#FF8B7B"/>
<path d="M224.204 101.584L217.481 110.852L220.259 113.584L227.415 104.982L224.204 101.584Z" fill="#DCE9FF"/>
<path d="M213.665 89.351C221.234 91.387 226.451 101.968 226.451 101.968L217.709 114.223C217.709 114.223 207.205 101.01 207.46 96.809C207.725 92.433 209.104 88.124 213.665 89.351Z" fill="#9FC6FF"/>
<path d="M237.22 93.759L235.221 85.799L242.857 88.0249C242.857 88.0249 242.639 93.399 240.007 95.155L237.22 93.759Z" fill="#FF8B7B"/>
<path d="M237.626 79.337L242.987 82.047L242.857 88.026L235.221 85.799L237.626 79.337Z" fill="#FF8B7B"/>
<path d="M141.776 82.283L134.788 77.979L141.81 74.243C141.81 74.243 145.405 78.243 144.746 81.338L141.776 82.283Z" fill="#FF8B7B"/>
<path d="M131.999 71.672L137.729 69.871L141.81 74.243L134.788 77.979L131.999 71.672Z" fill="#FF8B7B"/>
<path d="M138.174 275.417L145.526 276.135L153.176 258.637L145.824 257.918L138.174 275.417Z" fill="#FF8B7B"/>
<path d="M146.502 273.864H137.473C137.144 273.864 136.848 274.092 136.76 274.413L134.797 281.556C134.593 282.297 135.139 282.998 135.899 282.985C139.054 282.931 140.595 282.746 144.566 282.746C147.009 282.746 153.323 283 156.696 283C159.995 283 160.685 279.664 159.32 279.362C153.199 278.007 149.67 276.139 147.782 274.357C147.44 274.037 146.983 273.864 146.502 273.864Z" fill="#14365B"/>
<path d="M153.173 258.641L149.231 267.661H141.561L145.817 257.922L153.173 258.641Z" fill="#EA7063"/>
<path d="M220.228 93.265C220.228 93.265 222.712 96.198 193.889 131.076C183.302 124.881 172.361 118.479 167.209 115.465C174.01 104.869 177.941 98.18 185.79 72.859C185.79 72.859 192.092 74.914 197.993 77.995C205.981 82.167 209.663 84.767 210.108 85.084C215.034 88.605 220.228 93.265 220.228 93.265Z" fill="#9FC6FF"/>
<path d="M207.176 65.057C205.659 69.402 202.243 76.991 197.994 77.996C197.994 77.996 196.746 82.574 203.989 86.812C211.953 91.472 210.109 85.085 210.109 85.085C206.37 81.503 208.369 78.344 210.898 75.758L207.176 65.057Z" fill="#FF8B7B"/>
<path d="M216.729 90.255C214.851 88.687 212.446 86.757 210.108 85.082C206.371 82.408 202.604 80.403 197.991 77.992C195.631 76.755 193.212 75.682 191.152 74.856C190.821 75.408 191.089 77.0899 192.104 79.5529C195.944 84.5029 204.859 91.7889 212.3 93.2359C215.761 92.7399 216.846 91.644 216.729 90.255Z" fill="#FF8B7B"/>
<path d="M192.105 79.553C193.496 82.928 196.297 87.779 200.958 93.275C206.229 93.641 209.854 93.587 212.301 93.236C204.86 91.79 195.944 84.504 192.105 79.553Z" fill="#DCE9FF"/>
<path d="M208.692 69.422L210.896 75.753C210.295 76.363 209.728 77.008 209.264 77.685C207.744 76.473 206.112 73.521 206.953 71.68C207.373 70.761 208.314 69.743 208.692 69.422Z" fill="#EA7063"/>
<path d="M207.254 56.414C205.186 63.679 204.155 66.71 206.461 71.625C209.929 79.018 219.305 79.97 223.503 73.469C227.281 67.618 230.029 56.72 224.065 51.438C218.188 46.234 209.322 49.149 207.254 56.414Z" fill="#FF8B7B"/>
<path d="M205.126 60.973C210.292 62.899 222.445 56.487 225.751 52.556C226.195 46.5 211.987 48.889 211.987 48.889C211.987 48.889 204.404 46.584 205.126 60.973Z" fill="#0F264C"/>
<path d="M203.889 62.441C203.517 63.962 203.881 65.513 204.566 66.603C205.597 68.242 207.407 67.633 208.206 65.982C208.925 64.496 209.255 61.852 207.699 60.783C206.166 59.729 204.315 60.702 203.889 62.441Z" fill="#FF8B7B"/>
<path d="M193.889 131.076C193.889 131.076 194.326 199.599 182.174 219.38C169.534 239.955 153.053 265.036 153.053 265.036L138.788 264.346C138.788 264.346 155.427 227.225 161.703 209.998C170.356 186.249 174.352 119.643 174.352 119.643L193.889 131.076Z" fill="#0053CC"/>
<path d="M178.709 132.973C176.821 134.365 174.77 136.923 172.82 139.825C172.377 144.918 171.835 150.655 171.193 156.655C175.543 150.761 178.987 140.389 178.709 132.973Z" fill="#004DAA"/>
<path d="M186.844 126.954C186.844 126.954 156.649 169.811 137.825 192.907C122.621 211.562 78.618 224.884 78.618 224.884L73.251 215.879C73.251 215.879 108.257 196.344 118.697 183.723C152.11 143.325 151.696 122.372 167.21 115.466L186.844 126.954Z" fill="#0053CC"/>
<path d="M167.726 113.666L165.126 115.35C164.924 115.481 165.033 115.798 165.342 115.978L193.322 132.35C193.563 132.491 193.831 132.489 193.934 132.347L195.572 130.1C195.685 129.944 195.559 129.682 195.296 129.528L168.279 113.719C168.079 113.603 167.856 113.581 167.726 113.666Z" fill="#14365B"/>
<path d="M169.587 118.81L168.863 118.387C168.719 118.303 168.653 118.164 168.716 118.079L170.871 115.175C170.934 115.09 171.103 115.09 171.248 115.174L171.972 115.597C172.116 115.681 172.182 115.82 172.119 115.905L169.964 118.809C169.901 118.893 169.731 118.894 169.587 118.81Z" fill="#0053CC"/>
<path d="M191.136 131.419L190.412 130.996C190.268 130.912 190.202 130.773 190.265 130.688L192.42 127.784C192.483 127.699 192.653 127.699 192.797 127.783L193.52 128.206C193.664 128.29 193.73 128.429 193.667 128.514L191.512 131.418C191.45 131.503 191.28 131.503 191.136 131.419Z" fill="#0053CC"/>
<path d="M180.362 125.114L179.638 124.691C179.494 124.607 179.428 124.468 179.491 124.383L181.646 121.479C181.709 121.394 181.879 121.393 182.023 121.478L182.747 121.901C182.891 121.985 182.957 122.124 182.894 122.209L180.739 125.113C180.675 125.198 180.506 125.199 180.362 125.114Z" fill="#0053CC"/>
<path d="M217.34 62.201C217.136 62.78 217.277 63.358 217.656 63.491C218.034 63.624 218.507 63.263 218.711 62.684C218.915 62.105 218.774 61.528 218.395 61.394C218.016 61.26 217.544 61.622 217.34 62.201Z" fill="#0F264C"/>
<path d="M223.885 64.507C223.681 65.086 223.822 65.663 224.201 65.797C224.579 65.93 225.052 65.569 225.256 64.99C225.46 64.411 225.318 63.834 224.94 63.7C224.561 63.566 224.089 63.928 223.885 64.507Z" fill="#0F264C"/>
<path d="M224.761 63.673L226.293 63.762C226.293 63.762 225.197 64.597 224.761 63.673Z" fill="#0F264C"/>
<path d="M221.805 64.892C221.805 64.892 221.909 67.731 222.567 69.315C221.551 69.759 220.366 68.975 220.366 68.975L221.805 64.892Z" fill="#FF5652"/>
<path d="M217.585 70.548C217.565 70.548 217.545 70.545 217.525 70.538C214.799 69.579 214.21 67.271 214.186 67.173C214.163 67.076 214.221 66.979 214.318 66.956C214.42 66.932 214.513 66.992 214.536 67.088C214.542 67.11 215.11 69.306 217.644 70.199C217.738 70.232 217.787 70.335 217.754 70.429C217.729 70.501 217.659 70.548 217.585 70.548Z" fill="#0F264C"/>
<path d="M217.05 59.913C216.922 59.913 216.798 59.845 216.733 59.724C216.638 59.549 216.704 59.33 216.879 59.235C218.633 58.289 220.106 59.066 220.167 59.1C220.343 59.195 220.407 59.414 220.312 59.589C220.216 59.764 219.996 59.827 219.825 59.734C219.767 59.704 218.619 59.116 217.222 59.869C217.167 59.9 217.109 59.913 217.05 59.913Z" fill="#0F264C"/>
<path d="M228.038 62.558C227.877 62.558 227.73 62.449 227.688 62.286C227.293 60.727 226.041 60.284 226.028 60.28C225.84 60.216 225.739 60.011 225.803 59.822C225.866 59.634 226.072 59.532 226.26 59.597C226.326 59.62 227.896 60.175 228.387 62.108C228.436 62.301 228.319 62.497 228.126 62.546C228.097 62.555 228.068 62.558 228.038 62.558Z" fill="#0F264C"/>
<path d="M183.587 84.329C181.694 85.846 179.891 87.062 177.98 88.317C176.091 89.558 174.132 90.686 172.135 91.757C168.161 93.926 163.948 95.739 159.527 97.096C158.983 97.281 158.408 97.406 157.85 97.561C157.266 97.707 156.775 97.86 156.115 97.998C154.762 98.303 153.26 98.414 151.739 98.225C150.218 98.041 148.68 97.509 147.38 96.7C146.076 95.89 145.027 94.844 144.195 93.757C142.531 91.56 141.691 89.189 141.074 86.893C140.765 85.74 140.571 84.579 140.43 83.423C140.286 82.251 140.197 81.149 140.204 79.898L144.045 79.573C144.495 81.465 145.141 83.493 145.915 85.278C146.677 87.082 147.689 88.726 148.82 89.866C149.978 91.017 151.116 91.51 152.365 91.517C153.003 91.508 153.692 91.43 154.44 91.191C155.314 90.912 156.336 90.593 157.267 90.249C161.069 88.837 164.796 87.057 168.397 84.998C170.208 83.989 171.954 82.853 173.708 81.74C175.431 80.627 177.205 79.381 178.742 78.239L183.587 84.329Z" fill="#FF8B7B"/>
<path d="M171.217 81.709L174.676 92.167L177.926 90.223L174.884 79.848L171.217 81.709Z" fill="#DCE9FF"/>
<path d="M185.791 72.859C182.643 72.108 172.952 79.491 172.952 79.491L177.063 92.602C177.063 92.602 187.233 86.975 188.131 82.863C189.067 78.581 189.384 73.716 185.791 72.859Z" fill="#9FC6FF"/>
<path d="M150.507 275.355C149.636 275.355 148.692 275.187 148.037 275.041C147.962 275.024 147.905 274.962 147.897 274.885C147.889 274.809 147.93 274.735 148 274.702C148.608 274.416 151.684 273.018 152.501 273.575C152.613 273.65 152.743 273.797 152.728 274.066C152.707 274.427 152.553 274.718 152.269 274.933C151.854 275.246 151.204 275.355 150.507 275.355ZM148.66 274.798C149.645 274.977 151.341 275.181 152.052 274.645C152.25 274.496 152.353 274.299 152.367 274.044C152.373 273.939 152.336 273.897 152.299 273.872C151.855 273.574 150.008 274.213 148.66 274.798Z" fill="#407BFF"/>
<path d="M148.076 275.045C148.034 275.045 147.992 275.03 147.959 275.002C147.908 274.958 147.885 274.89 147.9 274.824C147.932 274.684 148.688 271.414 150.486 271.639C150.95 271.695 151.078 271.928 151.103 272.115C151.218 272.967 149.163 274.614 148.144 275.031C148.122 275.04 148.099 275.045 148.076 275.045ZM150.321 271.991C149.24 271.991 148.591 273.743 148.354 274.53C149.393 273.96 150.813 272.659 150.746 272.165C150.734 272.077 150.632 272.02 150.443 271.998C150.402 271.992 150.361 271.991 150.321 271.991Z" fill="#407BFF"/>
<path d="M218.216 61.367L219.748 61.456C219.748 61.456 218.652 62.291 218.216 61.367Z" fill="#0F264C"/>
</g>
<path d="M217.952 2.04042L285.424 0.00607064C290.935 -0.160004 291.123 3.10978 290.967 6.32762C290.811 9.54545 289.366 39.3514 289.223 42.2901C289.08 45.2289 288.902 46.6937 283.694 46.5447C278.486 46.3957 253.483 45.3606 253.483 45.3606L241.125 58.016C240.45 58.8682 239.193 59.3703 237.996 59.2665C236.799 59.1623 236.209 58.373 236.507 57.4795L242.324 45.3606L219.624 44.7106C215.281 44.5862 211.695 42.3546 211.566 39.7095L210.004 7.49605C209.865 4.62722 213.399 2.17779 217.952 2.04042Z" fill="url(#paint0_linear_1_96)" fill-opacity="0.8"/>
<path d="M263.154 15.7005C260.814 11.6981 256.471 9.0097 251.5 9.0097C244.05 9.0097 238.01 15.0494 238.01 22.4993C238.01 23.0097 238.039 23.5128 238.094 24.0087" stroke="#3CDA81" stroke-width="3" stroke-linecap="round" stroke-linejoin="round"/>
<path d="M239.717 29.0574L238.039 35.0643C237.886 35.6112 238.39 36.1157 238.937 35.9626L244.947 34.2855C246.888 35.3669 249.121 35.9889 251.5 35.9889C258.95 35.9889 264.99 29.9492 264.99 22.4993C264.99 22.1879 264.979 21.8795 264.958 21.574" stroke="#3CDA81" stroke-width="3" stroke-linecap="round" stroke-linejoin="round"/>
<path d="M258.323 27.3497C258.033 28.1634 256.611 28.9473 255.972 29.0042C255.333 29.0625 254.735 29.2929 251.793 28.1335C248.253 26.7379 246.018 23.1089 245.845 22.8777C245.67 22.6444 244.423 20.9899 244.423 19.2764C244.423 17.5628 245.323 16.7199 245.642 16.3728C245.962 16.0243 246.339 15.9375 246.572 15.9375C246.803 15.9375 247.036 15.9375 247.239 15.9455C247.487 15.955 247.762 15.9681 248.023 16.5471C248.333 17.2361 249.009 18.9584 249.096 19.1327C249.183 19.307 249.241 19.5111 249.125 19.7423C249.009 19.9742 248.951 20.1193 248.778 20.3227C248.604 20.5261 248.413 20.7763 248.256 20.9323C248.082 21.1051 247.9 21.2954 248.103 21.6425C248.306 21.991 249.004 23.1315 250.039 24.0539C251.371 25.2402 252.491 25.607 252.84 25.7827C253.189 25.957 253.391 25.9278 253.595 25.6945C253.798 25.4626 254.466 24.6787 254.697 24.3302C254.929 23.9817 255.162 24.04 255.481 24.1559C255.801 24.2719 257.513 25.1148 257.861 25.2891C258.209 25.4633 258.441 25.5501 258.528 25.6952C258.613 25.8389 258.613 26.5359 258.323 27.3497Z" fill="#3CDA81"/>
<path d="M269 2C271.911 2 274 3.74563 274 7C274 10.2544 272.254 12 269 12C265.746 12 264 10.2544 264 7C264 3.74563 266.089 2 269 2Z" fill="url(#paint1_linear_1_96)"/>
<path d="M269 5C270.164 5 271 5.69825 271 7C271 8.30175 270.302 9 269 9C267.698 9 267 8.30175 267 7C267 5.69825 267.836 5 269 5Z" fill="white"/>
<defs>
<linearGradient id="paint0_linear_1_96" x1="285.636" y1="-34.675" x2="246.954" y2="165.553" gradientUnits="userSpaceOnUse">
<stop stop-color="#3F2BF3"/>
<stop offset="1" stop-color="#3522CB"/>
</linearGradient>
<linearGradient id="paint1_linear_1_96" x1="269" y1="12" x2="269" y2="2" gradientUnits="userSpaceOnUse">
<stop stop-color="#E1473D"/>
<stop offset="1" stop-color="#E9605A"/>
</linearGradient>
</defs>
</svg>
